<?xml version="1.0" encoding="iso-8859-1"?>
<!-- Uploaded to: SVG Repo, www.svgrepo.com, Generator: SVG Repo Mixer Tools -->
<svg height="800px" width="800px" version="1.1" id="Layer_1" xmlns="http://www.w3.org/2000/svg" xmlns:xlink="http://www.w3.org/1999/xlink" 
	 viewBox="0 0 512 512" xml:space="preserve">
<g>
	<path style="fill:#7CD8A4;" d="M290.646,73.064c-7.843,24.452-21.978,184.79-27.588,267.806
		c-3.445,50.979,19.284,6.23,11.794,18.771c-15.611,26.137,125.983-210.484,140.782-246.49
		c13.78-33.525,1.362-100.459-33.153-111.529S301.716,38.549,290.646,73.064z"/>
	<path style="fill:#7CD8A4;" d="M220.25,73.762c7.798,24.313,19.933,188.834,26.397,272.025c1.159,14.92-10.815,15.582-18.55,2.77
		c-43.128-71.432-125.038-210.395-132.836-234.709C84.191,79.335,93.9,13.39,128.414,2.32S209.18,39.248,220.25,73.762z"/>
	<path style="fill:#7CD8A4;" d="M384.588,259.731c-13.207,6.793-84.299,67.393-123.589,100.948
		c-8.369,7.147-6.872,16.774,3.81,14.124c50.149-12.445,143.222-37.023,156.429-43.814c19.677-10.121,43.952-42.777,33.832-62.454
		C444.95,248.857,404.265,249.612,384.588,259.731z"/>
	<path style="fill:#7CD8A4;" d="M126.187,259.848c13.164,6.771,74.719,58.592,114.028,92.158
		c8.465,7.228,17.314,25.208,6.511,22.526c-50.169-12.453-144.024-36.656-157.188-43.426
		c-19.677-10.121-43.952-42.777-33.832-62.454S106.509,249.729,126.187,259.848z"/>
</g>
<g>
	<path style="fill:#328777;" d="M259.347,512h-8.26c-3.919,0-7.124-3.205-7.124-7.124V336.404c0-3.919,3.206-7.124,7.124-7.124h8.26
		c3.919,0,7.124,3.206,7.124,7.124v168.472C266.471,508.795,263.266,512,259.347,512z"/>
	<path style="fill:#328777;" d="M191.09,205.373c-3.246,0-6.283-2.031-7.41-5.271L141.236,77.949
		c-1.421-4.092,0.744-8.562,4.835-9.985c4.096-1.418,8.562,0.744,9.985,4.835L198.5,194.952c1.421,4.092-0.744,8.562-4.835,9.985
		C192.813,205.231,191.945,205.373,191.09,205.373z"/>
	<path style="fill:#328777;" d="M319.514,205.373c-0.853,0-1.721-0.14-2.575-0.436c-4.091-1.422-6.256-5.892-4.835-9.985
		l42.444-122.153c1.422-4.091,5.888-6.257,9.985-4.835c4.091,1.422,6.256,5.892,4.835,9.985l-42.444,122.153
		C325.797,203.342,322.761,205.373,319.514,205.373z"/>
	<path style="fill:#328777;" d="M148.64,325.527c-1.231,0-2.479-0.291-3.644-0.903l-54.503-28.653
		c-3.834-2.016-5.309-6.758-3.292-10.593c2.016-3.834,6.758-5.306,10.593-3.292l54.503,28.653c3.834,2.016,5.309,6.758,3.292,10.593
		C154.186,324.001,151.46,325.527,148.64,325.527z"/>
	<path style="fill:#328777;" d="M361.964,325.527c-2.82,0-5.546-1.526-6.95-4.196c-2.016-3.835-0.542-8.577,3.292-10.593
		l54.503-28.653c3.832-2.014,8.577-0.542,10.593,3.292c2.016,3.835,0.542,8.577-3.292,10.593l-54.503,28.653
		C364.444,325.235,363.195,325.527,361.964,325.527z"/>
	<g style="opacity:0.53;">
		<path style="fill:#328777;" d="M404.972,104.679C393.833,131.78,291.621,307.17,257.916,363.993
			c10.885-9.247-3.141,20.231,8.118,10.811c38.969-66.121,141.657-239.345,150.826-261.653
			c13.292-32.336,2.207-95.746-29.568-110.137C409.759,25.73,416.442,76.775,404.972,104.679z"/>
		<path style="fill:#328777;" d="M209.588,65.291c7.798,24.313,19.934,188.834,26.397,272.025c0.155,1.996,8.253,36,7.979,37.488
			l6.107-0.238c-6.523-84.149-20.896-276.803-28.594-300.803c-7.027-21.908-28.229-49.244-51.608-63.462
			C188.276,25.354,203.778,47.177,209.588,65.291z"/>
		<path style="fill:#328777;" d="M252.527,368.837h4.439c-0.761,4.41,2.317,7.643,9.068,5.966
			c50.148-12.444,143.222-37.023,156.429-43.815c19.677-10.121,43.952-42.777,33.832-62.454c-2.748-5.344-7.761-9.17-13.985-11.722
			c0.795,1.017,1.503,2.095,2.097,3.25c10.121,19.677-14.154,52.334-33.832,62.454c-13.207,6.793-106.28,31.37-156.429,43.815
			L252.527,368.837z"/>
	</g>
</g>
</svg>