<?xml version="1.0" encoding="iso-8859-1"?>
<!-- Uploaded to: SVG Repo, www.svgrepo.com, Generator: SVG Repo Mixer Tools -->
<svg height="800px" width="800px" version="1.1" id="Layer_1" xmlns="http://www.w3.org/2000/svg" xmlns:xlink="http://www.w3.org/1999/xlink" 
	 viewBox="0 0 496 496" xml:space="preserve">
<path style="fill:#5E6363;" d="M481.6,261.2c0,36-104.8-12-233.6-12s-233.6,48-233.6,12s104.8-88.8,233.6-88.8
	C376.8,172.4,481.6,225.2,481.6,261.2z"/>
<path style="fill:#4A4F4F;" d="M481.6,261.2c0,36-104.8-12-233.6-12s-233.6,48-233.6,12s104.8-81.6,233.6-81.6
	S481.6,225.2,481.6,261.2z"/>
<path style="fill:#323535;" d="M248,249.2c114.4,0,210.4,37.6,229.6,20.8c-20-33.6-115.2-68.8-229.6-68.8S37.6,236.4,18.4,270
	C37.6,287.6,133.6,249.2,248,249.2z"/>
<path style="fill:#A5D647;" d="M496,466c0,9.6-7.2,16-16.8,16H16.8C7.2,482,0,475.6,0,466l0,0c0-9.6,7.2-16,16.8-16h462.4
	C488.8,450,496,456.4,496,466L496,466z"/>
<g>
	<ellipse style="fill:#73C42C;" cx="68.8" cy="473.2" rx="44" ry="5.6"/>
	<ellipse style="fill:#73C42C;" cx="189.6" cy="473.2" rx="44" ry="5.6"/>
</g>
<path style="fill:#4A4F4F;" d="M120,412.4c0,61.6-21.6,58.4-48.8,58.4s-48.8,3.2-48.8-58.4S44,263.6,71.2,263.6
	C98.4,263.6,120,350.8,120,412.4z"/>
<path style="fill:#5E6363;" d="M22.4,412.4c0-61.6,21.6-148.8,48.8-148.8"/>
<path style="fill:#323535;" d="M71.2,263.6c27.2,0,48.8,87.2,48.8,148.8s-21.6,58.4-48.8,58.4"/>
<path style="fill:#4A4F4F;" d="M238.4,404.4c0,69.6-21.6,65.6-48.8,65.6s-48.8,4-48.8-65.6s21.6-168.8,48.8-168.8
	C216,235.6,238.4,334.8,238.4,404.4z"/>
<path style="fill:#5E6363;" d="M140,404.4c0-69.6,21.6-168.8,48.8-168.8"/>
<path style="fill:#323535;" d="M189.6,235.6c27.2,0,48.8,99.2,48.8,168.8S216.8,470,189.6,470"/>
<g>
	<ellipse style="fill:#73C42C;" cx="427.2" cy="473.2" rx="44" ry="5.6"/>
	<ellipse style="fill:#73C42C;" cx="306.4" cy="473.2" rx="44" ry="5.6"/>
</g>
<path style="fill:#4A4F4F;" d="M376,412.4c0,61.6,21.6,58.4,48.8,58.4c27.2,0,48.8,3.2,48.8-58.4S452,263.6,424.8,263.6
	C397.6,263.6,376,350.8,376,412.4z"/>
<path style="fill:#5E6363;" d="M473.6,412.4c0-61.6-21.6-148.8-48.8-148.8"/>
<path style="fill:#323535;" d="M424.8,263.6c-27.2,0-48.8,87.2-48.8,148.8s21.6,58.4,48.8,58.4"/>
<path style="fill:#4A4F4F;" d="M257.6,404.4c0,69.6,21.6,65.6,48.8,65.6c27.2,0,48.8,4,48.8-65.6s-21.6-168.8-48.8-168.8
	C280,235.6,257.6,334.8,257.6,404.4z"/>
<path style="fill:#5E6363;" d="M356,404.4c0-69.6-21.6-168.8-48.8-168.8"/>
<path style="fill:#323535;" d="M306.4,235.6c-27.2,0-48.8,99.2-48.8,168.8s21.6,65.6,48.8,65.6"/>
<ellipse style="fill:#B3E529;" cx="248" cy="43.6" rx="41.6" ry="29.6"/>
<path style="fill:#7BE22B;" d="M248,14c23.2,0,41.6,13.6,41.6,29.6c0,16.8-18.4,29.6-41.6,29.6"/>
<ellipse style="fill:#0C91C4;" cx="248" cy="63.6" rx="142.4" ry="34.4"/>
<g>
	<path style="fill:#17B5E5;" d="M248,29.2c78.4,0,142.4,15.2,142.4,34.4"/>
	<path style="fill:#17B5E5;" d="M105.6,63.6c0-19.2,64-34.4,142.4-34.4"/>
</g>
<path style="fill:#0977AF;" d="M390.4,63.6c0,19.2-64,34.4-142.4,34.4S105.6,82,105.6,63.6"/>
<g>
	<circle style="fill:#B3E529;" cx="133.6" cy="63.6" r="2.4"/>
	<circle style="fill:#B3E529;" cx="159.2" cy="63.6" r="2.4"/>
	<circle style="fill:#B3E529;" cx="184.8" cy="63.6" r="2.4"/>
	<circle style="fill:#B3E529;" cx="209.6" cy="63.6" r="2.4"/>
	<circle style="fill:#B3E529;" cx="235.2" cy="63.6" r="2.4"/>
	<circle style="fill:#B3E529;" cx="260.8" cy="63.6" r="2.4"/>
	<circle style="fill:#B3E529;" cx="286.4" cy="63.6" r="2.4"/>
	<circle style="fill:#B3E529;" cx="311.2" cy="63.6" r="2.4"/>
	<circle style="fill:#B3E529;" cx="336.8" cy="63.6" r="2.4"/>
	<circle style="fill:#B3E529;" cx="362.4" cy="63.6" r="2.4"/>
	<ellipse style="fill:#B3E529;" cx="248" cy="89.2" rx="37.6" ry="4"/>
</g>
</svg>