<?xml version="1.0" encoding="iso-8859-1"?>
<!-- Uploaded to: SVG Repo, www.svgrepo.com, Generator: SVG Repo Mixer Tools -->
<svg version="1.1" id="Layer_1" xmlns="http://www.w3.org/2000/svg" xmlns:xlink="http://www.w3.org/1999/xlink" 
	 viewBox="0 0 496 496" xml:space="preserve">
<rect y="417.6" style="fill:#A3481F;" width="195.2" height="65.6"/>
<rect y="404.8" style="fill:#7F7269;" width="195.2" height="15.2"/>
<rect y="399.2" style="fill:#9B948F;" width="195.2" height="8"/>
<rect y="436" style="fill:#7C361A;" width="195.2" height="46.4"/>
<polygon style="fill:#9B948F;" points="164.8,464 81.6,464 137.6,116 164.8,116 "/>
<polygon style="fill:#7F7269;" points="191.2,464 129.6,464 164,116 191.2,116 "/>
<path style="fill:#E56730;" d="M195.2,188.8c0,1.6-1.6,3.2-3.2,3.2h-89.6c-1.6,0-3.2-1.6-3.2-3.2V180c0-1.6,1.6-3.2,3.2-3.2H192
	c1.6,0,3.2,1.6,3.2,3.2V188.8z"/>
<path style="fill:#BF471D;" d="M195.2,188.8V180c0-1.6-1.6-3.2-3.2-3.2h-48c-1.6,0-3.2,1.6-3.2,3.2v8.8c0,1.6,1.6,3.2,3.2,3.2h48
	C194.4,192,195.2,190.4,195.2,188.8z"/>
<polygon style="fill:#C1673A;" points="136,140 109.6,179.2 191.2,179.2 191.2,140 "/>
<polygon style="fill:#A3481F;" points="161.6,140 148,179.2 191.2,179.2 191.2,140 "/>
<path style="fill:#E56730;" d="M195.2,271.2c0,1.6-1.6,3.2-3.2,3.2H84c-1.6,0-3.2-1.6-3.2-3.2v-10.4c0-1.6,1.6-3.2,3.2-3.2h108
	c1.6,0,3.2,1.6,3.2,3.2V271.2z"/>
<path style="fill:#BF471D;" d="M195.2,271.2v-10.4c0-1.6-1.6-3.2-3.2-3.2h-57.6c-1.6,0-3.2,1.6-3.2,3.2v10.4c0,1.6,1.6,3.2,3.2,3.2
	H192C193.6,274.4,195.2,272.8,195.2,271.2z"/>
<polygon style="fill:#C1673A;" points="124,212 92.8,259.2 190.4,259.2 190.4,212 "/>
<polygon style="fill:#A3481F;" points="155.2,212 138.4,259.2 190.4,259.2 190.4,212 "/>
<path style="fill:#E56730;" d="M195.2,365.6c0,2.4-1.6,4-4,4H61.6c-2.4,0-4-1.6-4-4v-12.8c0-2.4,1.6-4,4-4h129.6c2.4,0,4,1.6,4,4
	L195.2,365.6L195.2,365.6z"/>
<path style="fill:#BF471D;" d="M195.2,365.6v-12.8c0-2.4-1.6-4-4-4h-69.6c-2.4,0-4,1.6-4,4v12.8c0,2.4,1.6,4,4,4h69.6
	C193.6,369.6,195.2,368,195.2,365.6z"/>
<polygon style="fill:#C1673A;" points="109.6,294.4 72,351.2 189.6,351.2 189.6,294.4 "/>
<polygon style="fill:#A3481F;" points="147.2,294.4 126.4,351.2 189.6,351.2 189.6,294.4 "/>
<path style="fill:#E56730;" d="M195.2,478.4c0,2.4-2.4,4.8-4.8,4.8H35.2c-2.4,0-4.8-2.4-4.8-4.8v-15.2c0-2.4,2.4-4.8,4.8-4.8h155.2
	c2.4,0,4.8,2.4,4.8,4.8V478.4z"/>
<path style="fill:#BF471D;" d="M195.2,478.4v-15.2c0-2.4-2.4-4.8-4.8-4.8h-83.2c-2.4,0-4.8,2.4-4.8,4.8v15.2c0,2.4,2.4,4.8,4.8,4.8
	h83.2C193.6,483.2,195.2,480.8,195.2,478.4z"/>
<polygon style="fill:#C1673A;" points="92.8,392.8 47.2,461.6 188,461.6 188,392.8 "/>
<polygon style="fill:#A3481F;" points="136.8,392.8 112.8,461.6 188,461.6 188,392.8 "/>
<polygon style="fill:#C1673A;" points="124,116 192,116 192,12.8 "/>
<polygon style="fill:#A3481F;" points="156,116 192,116 192,12.8 "/>
<path style="fill:#E56730;" d="M195.2,124c0,1.6-0.8,2.4-2.4,2.4h-75.2c-1.6,0-2.4-0.8-2.4-2.4v-7.2c0-1.6,0.8-2.4,2.4-2.4h75.2
	c1.6,0,2.4,0.8,2.4,2.4V124z"/>
<path style="fill:#BF471D;" d="M195.2,124v-7.2c0-1.6-0.8-2.4-2.4-2.4h-40c-1.6,0-2.4,0.8-2.4,2.4v7.2c0,1.6,0.8,2.4,2.4,2.4h40
	C194.4,126.4,195.2,125.6,195.2,124z"/>
<path style="fill:#604533;" d="M195.2,479.2c0,1.6-1.6,3.2-3.2,3.2l0,0c-1.6,0-3.2-1.6-3.2-3.2V17.6c0-1.6,1.6-3.2,3.2-3.2l0,0
	c1.6,0,3.2,1.6,3.2,3.2V479.2z"/>
<rect x="300.8" y="417.6" style="fill:#A3481F;" width="195.2" height="65.6"/>
<rect x="300.8" y="404.8" style="fill:#7F7269;" width="195.2" height="15.2"/>
<rect x="300.8" y="399.2" style="fill:#9B948F;" width="195.2" height="8"/>
<rect x="300.8" y="436" style="fill:#7C361A;" width="195.2" height="46.4"/>
<polygon style="fill:#9B948F;" points="331.2,464 414.4,464 358.4,116 331.2,116 "/>
<polygon style="fill:#7F7269;" points="304.8,464 366.4,464 332,116 304.8,116 "/>
<path style="fill:#E56730;" d="M300.8,188.8c0,1.6,1.6,3.2,3.2,3.2h89.6c1.6,0,3.2-1.6,3.2-3.2V180c0-1.6-1.6-3.2-3.2-3.2h-90.4
	c-1.6,0-3.2,1.6-3.2,3.2v8.8H300.8z"/>
<path style="fill:#BF471D;" d="M300.8,188.8V180c0-1.6,1.6-3.2,3.2-3.2h48c1.6,0,3.2,1.6,3.2,3.2v8.8c0,1.6-1.6,3.2-3.2,3.2h-48
	C301.6,192,300.8,190.4,300.8,188.8z"/>
<polygon style="fill:#C1673A;" points="360,140 386.4,179.2 304.8,179.2 304.8,140 "/>
<polygon style="fill:#A3481F;" points="334.4,140 348,179.2 304.8,179.2 304.8,140 "/>
<path style="fill:#E56730;" d="M300.8,271.2c0,1.6,1.6,3.2,3.2,3.2h108c1.6,0,3.2-1.6,3.2-3.2v-10.4c0-1.6-1.6-3.2-3.2-3.2H304
	c-1.6,0-3.2,1.6-3.2,3.2V271.2z"/>
<path style="fill:#BF471D;" d="M300.8,271.2v-10.4c0-1.6,1.6-3.2,3.2-3.2h57.6c1.6,0,3.2,1.6,3.2,3.2v10.4c0,1.6-1.6,3.2-3.2,3.2
	H304C302.4,274.4,300.8,272.8,300.8,271.2z"/>
<polygon style="fill:#C1673A;" points="372,212 403.2,259.2 305.6,259.2 305.6,212 "/>
<polygon style="fill:#A3481F;" points="340.8,212 357.6,259.2 305.6,259.2 305.6,212 "/>
<path style="fill:#E56730;" d="M300.8,365.6c0,2.4,1.6,4,4,4h129.6c2.4,0,4-1.6,4-4v-12.8c0-2.4-1.6-4-4-4H304.8c-2.4,0-4,1.6-4,4
	V365.6z"/>
<path style="fill:#BF471D;" d="M300.8,365.6v-12.8c0-2.4,1.6-4,4-4h69.6c2.4,0,4,1.6,4,4v12.8c0,2.4-1.6,4-4,4h-69.6
	C302.4,369.6,300.8,368,300.8,365.6z"/>
<polygon style="fill:#C1673A;" points="386.4,294.4 424,351.2 306.4,351.2 306.4,294.4 "/>
<polygon style="fill:#A3481F;" points="348.8,294.4 369.6,351.2 306.4,351.2 306.4,294.4 "/>
<path style="fill:#E56730;" d="M300.8,478.4c0,2.4,2.4,4.8,4.8,4.8h155.2c2.4,0,4.8-2.4,4.8-4.8v-15.2c0-2.4-2.4-4.8-4.8-4.8H305.6
	c-2.4,0-4.8,2.4-4.8,4.8L300.8,478.4L300.8,478.4z"/>
<path style="fill:#BF471D;" d="M300.8,478.4v-15.2c0-2.4,2.4-4.8,4.8-4.8h83.2c2.4,0,4.8,2.4,4.8,4.8v15.2c0,2.4-2.4,4.8-4.8,4.8
	h-83.2C302.4,483.2,300.8,480.8,300.8,478.4z"/>
<polygon style="fill:#C1673A;" points="403.2,392.8 448.8,461.6 308,461.6 308,392.8 "/>
<polygon style="fill:#A3481F;" points="359.2,392.8 383.2,461.6 308,461.6 308,392.8 "/>
<polygon style="fill:#C1673A;" points="372,116 304,116 304,12.8 "/>
<polygon style="fill:#A3481F;" points="340,116 304,116 304,12.8 "/>
<path style="fill:#E56730;" d="M300.8,124c0,1.6,0.8,2.4,2.4,2.4h75.2c1.6,0,2.4-0.8,2.4-2.4v-7.2c0-1.6-0.8-2.4-2.4-2.4h-75.2
	c-1.6,0-2.4,0.8-2.4,2.4L300.8,124L300.8,124z"/>
<path style="fill:#BF471D;" d="M300.8,124v-7.2c0-1.6,0.8-2.4,2.4-2.4h40c1.6,0,2.4,0.8,2.4,2.4v7.2c0,1.6-0.8,2.4-2.4,2.4h-40
	C301.6,126.4,300.8,125.6,300.8,124z"/>
<path style="fill:#604533;" d="M300.8,479.2c0,1.6,1.6,3.2,3.2,3.2l0,0c1.6,0,3.2-1.6,3.2-3.2V17.6c0-1.6-1.6-3.2-3.2-3.2l0,0
	c-1.6,0-3.2,1.6-3.2,3.2V479.2z"/>
</svg>