<svg id="visual" viewBox="0 0 900 600" width="900" height="600" xmlns="http://www.w3.org/2000/svg" xmlns:xlink="http://www.w3.org/1999/xlink" version="1.1"><g><g transform="translate(594 503)"><path d="M8.8 -12.4C10.4 -9.2 10.1 -5.4 10.8 -1.8C11.6 1.8 13.5 5.3 13.1 9C12.7 12.7 10.1 16.6 6.9 16.8C3.7 17 0 13.6 -2.4 10.8C-4.8 8.1 -6 6.1 -6.7 4.2C-7.3 2.3 -7.4 0.5 -7 -1.2C-6.7 -2.8 -5.8 -4.3 -4.5 -7.6C-3.3 -10.8 -1.6 -15.8 1 -17C3.6 -18.2 7.2 -15.5 8.8 -12.4Z" stroke="#e1e1e1" fill="none" stroke-width="1"></path></g><g transform="translate(269 226)"><path d="M6.3 -8C8.3 -5.9 10.2 -4 9.8 -2.3C9.5 -0.5 7 1 5.9 3.7C4.7 6.4 4.9 10.3 3.4 11.9C2 13.4 -1.2 12.8 -4.3 11.7C-7.4 10.6 -10.4 9.2 -10.6 7C-10.8 4.8 -8.3 1.9 -6.9 -0.4C-5.4 -2.6 -5.1 -4.2 -4.2 -6.5C-3.2 -8.8 -1.6 -11.9 0.3 -12.2C2.2 -12.5 4.3 -10.2 6.3 -8Z" stroke="#e1e1e1" fill="none" stroke-width="1"></path></g><g transform="translate(610 146)"><path d="M8.6 -9.1C10.9 -8.4 12.3 -5.4 13.5 -1.9C14.8 1.7 15.9 5.8 14.5 8.4C13 11.1 9 12.3 5.8 11.6C2.6 10.9 0.3 8.3 -2.1 6.9C-4.4 5.5 -6.7 5.4 -8.8 4C-10.9 2.6 -12.8 0 -12.6 -2.4C-12.4 -4.8 -10.1 -7.1 -7.7 -7.8C-5.2 -8.4 -2.6 -7.5 0.3 -7.9C3.2 -8.2 6.3 -9.8 8.6 -9.1Z" stroke="#e1e1e1" fill="none" stroke-width="1"></path></g><g transform="translate(633 401)"><path d="M4.2 -3.7C6.2 -3.2 9.4 -2.7 9.6 -1.6C9.9 -0.6 7.3 1.1 5.9 3.4C4.5 5.6 4.3 8.5 3 9.5C1.7 10.5 -0.7 9.6 -3.2 8.7C-5.6 7.8 -8.1 7 -9.3 5.2C-10.6 3.4 -10.6 0.8 -9.4 -1C-8.3 -2.7 -6 -3.6 -4.2 -4.1C-2.5 -4.7 -1.2 -5.1 -0.1 -5C1 -4.8 2.1 -4.3 4.2 -3.7Z" stroke="#e1e1e1" fill="none" stroke-width="1"></path></g><g transform="translate(849 425)"><path d="M1.4 -1.6C1.9 -1.3 2.4 -0.9 2.4 -0.5C2.4 0 2 0.4 1.6 0.9C1.3 1.4 1.1 2 0.8 2.1C0.4 2.2 -0.1 1.9 -0.4 1.6C-0.8 1.3 -1 1 -1.2 0.6C-1.5 0.3 -1.9 -0.1 -1.8 -0.3C-1.7 -0.5 -1.2 -0.6 -0.8 -0.9C-0.4 -1.2 -0.2 -1.7 0.1 -1.9C0.5 -2 0.9 -1.8 1.4 -1.6Z" stroke="#e1e1e1" fill="none" stroke-width="1"></path></g><g transform="translate(353 217)"><path d="M3 -3C4.4 -2.4 6.5 -1.9 7 -0.9C7.5 0 6.5 1.6 5.5 3.1C4.6 4.7 3.7 6.1 2.5 6.3C1.4 6.4 0 5.1 -2 4.7C-3.9 4.3 -6.4 4.7 -6.9 4C-7.4 3.2 -5.8 1.2 -4.8 -0.2C-3.8 -1.7 -3.4 -2.6 -2.7 -3.3C-2 -4.1 -1 -4.6 -0.1 -4.5C0.8 -4.4 1.5 -3.6 3 -3Z" stroke="#e1e1e1" fill="none" stroke-width="1"></path></g><g transform="translate(211 343)"><path d="M1.1 -1.5C1.4 -1 1.8 -0.7 1.9 -0.3C2.1 0.1 2.1 0.7 1.8 1.1C1.6 1.5 1.2 1.8 0.7 2.1C0.1 2.4 -0.5 2.7 -0.9 2.5C-1.3 2.3 -1.5 1.6 -1.7 1.1C-2 0.5 -2.3 0 -2.3 -0.5C-2.3 -1 -2 -1.5 -1.6 -2C-1.1 -2.5 -0.6 -3 -0.1 -2.9C0.4 -2.8 0.7 -2.1 1.1 -1.5Z" stroke="#e1e1e1" fill="none" stroke-width="1"></path></g><g transform="translate(664 511)"><path d="M6.4 -8.3C9 -5.4 12.3 -4.1 14.2 -1.3C16.1 1.4 16.6 5.7 15.1 9.2C13.7 12.8 10.2 15.7 6.6 16.2C2.9 16.7 -0.9 14.8 -4.7 13.3C-8.5 11.8 -12.4 10.6 -14.7 7.9C-16.9 5.2 -17.7 1 -16.1 -2C-14.6 -4.9 -10.8 -6.6 -7.7 -9.4C-4.6 -12.3 -2.3 -16.3 -0.2 -16C1.9 -15.8 3.7 -11.2 6.4 -8.3Z" stroke="#e1e1e1" fill="none" stroke-width="1"></path></g><g transform="translate(873 539)"><path d="M10.5 -11C13.3 -10.1 15 -6.6 13.9 -3.8C12.8 -1 8.8 0.9 7.1 4.3C5.3 7.7 5.8 12.5 4.7 13C3.5 13.5 0.7 9.6 -1.7 7.5C-4.1 5.4 -6.1 5 -7.8 3.7C-9.6 2.4 -11.1 0.1 -10.3 -1.3C-9.5 -2.8 -6.4 -3.3 -4.3 -4.3C-2.2 -5.3 -1.1 -6.8 1.4 -8.5C3.8 -10.1 7.7 -11.9 10.5 -11Z" stroke="#e1e1e1" fill="none" stroke-width="1"></path></g><g transform="translate(233 394)"><path d="M6.6 -8.3C7.8 -6.8 7.5 -4 7.2 -1.8C7 0.4 6.7 2.1 5.9 3.2C5 4.3 3.5 4.8 1.8 5.7C0.1 6.6 -1.6 8 -2.6 7.5C-3.6 7 -3.8 4.7 -5.2 2.8C-6.5 0.9 -9 -0.6 -9.7 -2.6C-10.4 -4.7 -9.4 -7.3 -7.5 -8.7C-5.6 -10.1 -2.8 -10.3 -0.1 -10.2C2.7 -10.1 5.4 -9.9 6.6 -8.3Z" stroke="#e1e1e1" fill="none" stroke-width="1"></path></g><g transform="translate(76 516)"><path d="M2.5 -2.9C2.9 -2.6 2.8 -1.5 3.1 -0.4C3.4 0.7 4.2 1.8 3.9 2.2C3.6 2.6 2.2 2.3 0.9 3C-0.3 3.6 -1.4 5.3 -2.4 5.4C-3.4 5.6 -4.4 4.3 -4.9 3C-5.4 1.7 -5.5 0.4 -4.9 -0.5C-4.4 -1.4 -3.1 -1.9 -2.2 -2.1C-1.3 -2.4 -0.6 -2.5 0.2 -2.7C1 -2.9 2 -3.3 2.5 -2.9Z" stroke="#e1e1e1" fill="none" stroke-width="1"></path></g><g transform="translate(514 571)"><path d="M4.8 -5.7C7.2 -3.8 10.5 -3.1 12.1 -1.1C13.7 0.9 13.5 4.3 11.7 6.2C9.9 8.1 6.6 8.4 4 8C1.5 7.6 -0.2 6.4 -2.3 5.9C-4.4 5.3 -7 5.4 -8.8 4.1C-10.6 2.9 -11.8 0.3 -11.3 -1.9C-10.8 -4 -8.6 -5.8 -6.4 -7.7C-4.2 -9.6 -2.1 -11.7 -0.4 -11.2C1.3 -10.7 2.5 -7.6 4.8 -5.7Z" stroke="#e1e1e1" fill="none" stroke-width="1"></path></g><g transform="translate(50 98)"><path d="M5.3 -5.8C6.6 -5.3 7 -3.3 6.6 -1.7C6.1 -0.2 4.9 1 4.3 3C3.8 5.1 3.9 8.2 3 8.6C2.1 9.1 0.2 7 -2 6C-4.2 5 -6.7 5.1 -8.7 3.9C-10.7 2.7 -12.3 0.1 -12.3 -2.6C-12.3 -5.3 -10.7 -8.1 -8.4 -8.3C-6.1 -8.6 -3 -6.3 -0.5 -5.7C2 -5.1 4.1 -6.2 5.3 -5.8Z" stroke="#e1e1e1" fill="none" stroke-width="1"></path></g><g transform="translate(822 546)"><path d="M2.7 -2.7C3.3 -2.6 3.6 -1.6 3.6 -0.7C3.7 0.2 3.5 1.1 3 1.5C2.5 1.9 1.6 1.8 0.8 2C0 2.1 -0.5 2.6 -1.1 2.6C-1.8 2.6 -2.4 2.2 -3 1.6C-3.5 0.9 -3.9 0.1 -3.8 -0.7C-3.7 -1.5 -3.1 -2.2 -2.4 -2.3C-1.7 -2.4 -0.8 -1.9 0.1 -2C1 -2.1 2 -2.9 2.7 -2.7Z" stroke="#e1e1e1" fill="none" stroke-width="1"></path></g><g transform="translate(665 179)"><path d="M2.6 -2.4C3.6 -2.2 4.9 -1.7 5.1 -0.8C5.3 0 4.4 1 3.7 2C3 3 2.4 4 1.7 4C1 4 0.1 3 -0.9 2.6C-2 2.2 -3.2 2.4 -4 1.9C-4.7 1.4 -5 0.2 -4.5 -0.5C-4 -1.3 -2.9 -1.7 -2 -1.9C-1.1 -2.1 -0.6 -2.2 0.1 -2.3C0.8 -2.5 1.6 -2.6 2.6 -2.4Z" stroke="#e1e1e1" fill="none" stroke-width="1"></path></g><g transform="translate(389 104)"><path d="M1.5 -2C1.7 -1.6 1.5 -0.9 1.7 -0.2C1.9 0.5 2.6 1.2 2.5 1.6C2.4 2 1.6 2.2 0.9 2.4C0.2 2.6 -0.5 2.9 -0.9 2.6C-1.3 2.4 -1.4 1.6 -1.8 1C-2.2 0.4 -3 -0.1 -3.1 -0.8C-3.3 -1.4 -2.8 -2.2 -2.2 -2.4C-1.6 -2.7 -0.8 -2.5 -0.1 -2.4C0.7 -2.3 1.3 -2.3 1.5 -2Z" stroke="#e1e1e1" fill="none" stroke-width="1"></path></g><g transform="translate(235 507)"><path d="M5.9 -6C8.7 -4.7 12.7 -3.8 14.3 -1.5C15.9 0.7 15 4.4 12.5 5.8C10 7.2 6 6.2 3.3 5.6C0.7 4.9 -0.4 4.6 -1.7 4.3C-2.9 4 -4.3 3.6 -5.1 2.7C-5.8 1.8 -6 0.4 -6.2 -1.5C-6.4 -3.5 -6.6 -5.8 -5.6 -7.5C-4.6 -9.1 -2.3 -9.9 -0.4 -9.5C1.6 -9 3.1 -7.3 5.9 -6Z" stroke="#e1e1e1" fill="none" stroke-width="1"></path></g><g transform="translate(737 347)"><path d="M2.5 -3.7C3.1 -2.4 3.5 -1.5 4.5 -0.1C5.5 1.2 7.2 3.2 7 4.6C6.8 6 4.8 6.9 3.1 6.6C1.5 6.3 0.1 4.9 -1.6 4.3C-3.3 3.7 -5.3 4 -6 3.2C-6.7 2.5 -6.1 0.8 -5.7 -1C-5.4 -2.7 -5.3 -4.4 -4.4 -5.7C-3.4 -7 -1.7 -7.8 -0.4 -7.3C0.9 -6.9 1.8 -5 2.5 -3.7Z" stroke="#e1e1e1" fill="none" stroke-width="1"></path></g><g transform="translate(402 543)"><path d="M6.5 -8.3C8.3 -6.2 9.6 -4.1 10.8 -1.3C11.9 1.4 13 4.8 11.7 6.7C10.5 8.6 7 9.1 3.8 10.2C0.5 11.3 -2.4 13 -4.5 12.3C-6.5 11.5 -7.7 8.3 -8.4 5.6C-9.1 2.8 -9.3 0.6 -8.8 -1.3C-8.2 -3.3 -6.8 -4.8 -5.2 -6.9C-3.6 -9 -1.8 -11.6 0.3 -12C2.3 -12.3 4.7 -10.3 6.5 -8.3Z" stroke="#e1e1e1" fill="none" stroke-width="1"></path></g><g transform="translate(508 522)"><path d="M3 -4.4C3.9 -2.8 4.8 -1.9 5.4 -0.6C6 0.6 6.4 2.3 5.6 2.9C4.9 3.6 2.9 3.2 1.2 4.2C-0.5 5.1 -2 7.3 -3.1 7.4C-4.2 7.5 -4.9 5.3 -5.5 3.5C-6.2 1.7 -6.9 0.2 -6.7 -1.2C-6.5 -2.6 -5.4 -3.9 -4.1 -5.5C-2.9 -7 -1.4 -8.8 -0.2 -8.6C1 -8.3 2 -6 3 -4.4Z" stroke="#e1e1e1" fill="none" stroke-width="1"></path></g><g transform="translate(305 327)"><path d="M5.1 -7.1C5.9 -5.5 5.1 -3.1 5.4 -1C5.8 1.1 7.2 3 6.8 4.2C6.5 5.3 4.3 5.7 2.4 6.5C0.4 7.2 -1.5 8.2 -3.1 7.9C-4.7 7.6 -6 5.9 -6.5 4.2C-7 2.5 -6.6 0.7 -5.7 -0.5C-4.9 -1.6 -3.6 -2.2 -2.6 -3.7C-1.5 -5.3 -0.8 -7.9 0.7 -8.7C2.2 -9.6 4.4 -8.7 5.1 -7.1Z" stroke="#e1e1e1" fill="none" stroke-width="1"></path></g><g transform="translate(604 84)"><path d="M1.6 -1.9C2 -1.5 2.5 -1 2.7 -0.4C2.9 0.2 2.9 0.9 2.6 1.6C2.3 2.2 1.8 2.8 1.2 3C0.5 3.1 -0.2 2.8 -0.9 2.5C-1.5 2.2 -2.1 1.9 -2.4 1.4C-2.6 0.9 -2.4 0.3 -2.4 -0.5C-2.3 -1.2 -2.3 -2 -1.9 -2.5C-1.6 -3 -0.8 -3.3 -0.1 -3.1C0.5 -3 1.1 -2.4 1.6 -1.9Z" stroke="#e1e1e1" fill="none" stroke-width="1"></path></g><g transform="translate(550 229)"><path d="M4.2 -3.8C6.1 -3.5 8.7 -2.7 9.9 -1C11.2 0.8 11.2 3.6 9.5 4.6C7.9 5.5 4.6 4.7 2.5 4.3C0.4 3.9 -0.5 4 -1.4 3.7C-2.2 3.4 -2.9 2.8 -3.5 1.9C-4 1.1 -4.4 0.1 -4.5 -1.1C-4.7 -2.3 -4.6 -3.9 -3.8 -4.4C-3 -5 -1.5 -4.5 -0.2 -4.4C1.2 -4.2 2.4 -4.2 4.2 -3.8Z" stroke="#e1e1e1" fill="none" stroke-width="1"></path></g><g transform="translate(401 235)"><path d="M7.1 -7.3C9.1 -6.8 10.5 -4.4 10.5 -2.2C10.5 0.1 9.2 2.3 7.7 4.1C6.3 6 4.7 7.4 3 7.9C1.2 8.4 -0.7 7.9 -1.9 6.8C-3 5.7 -3.4 3.9 -4 2.5C-4.6 1.1 -5.4 0 -5.4 -1.1C-5.4 -2.2 -4.5 -3.3 -3.5 -3.9C-2.4 -4.6 -1.2 -4.9 0.7 -5.7C2.6 -6.5 5.1 -7.8 7.1 -7.3Z" stroke="#e1e1e1" fill="none" stroke-width="1"></path></g><g transform="translate(42 563)"><path d="M9.4 -11.8C11.9 -9.1 13.6 -5.9 12.7 -3.3C11.9 -0.8 8.6 1.1 7.1 4.5C5.6 7.9 6.1 12.8 4 15.7C1.9 18.5 -2.7 19.3 -4.8 17C-6.9 14.6 -6.5 9 -7.8 5.2C-9.2 1.4 -12.4 -0.7 -13.2 -3.5C-14.1 -6.3 -12.7 -9.9 -10.1 -12.6C-7.5 -15.3 -3.8 -17.1 -0.2 -16.9C3.4 -16.7 6.9 -14.5 9.4 -11.8Z" stroke="#e1e1e1" fill="none" stroke-width="1"></path></g><g transform="translate(525 446)"><path d="M2.4 -2.8C3.3 -2.1 4.4 -1.5 5.2 -0.4C6 0.7 6.4 2.3 6 3.9C5.6 5.4 4.3 6.9 2.9 7.1C1.4 7.3 -0.2 6.3 -1.7 5.4C-3.2 4.6 -4.4 3.9 -5 2.9C-5.7 1.9 -5.6 0.4 -5.3 -0.8C-4.9 -2 -4.1 -3 -3.2 -3.7C-2.2 -4.4 -1.1 -4.9 -0.2 -4.6C0.7 -4.4 1.5 -3.5 2.4 -2.8Z" stroke="#e1e1e1" fill="none" stroke-width="1"></path></g><g transform="translate(101 203)"><path d="M3 -3.6C4.1 -2.8 5.1 -1.9 5.5 -0.8C5.8 0.3 5.4 1.6 4.7 2.5C3.9 3.4 2.8 3.9 1.8 3.7C0.8 3.5 0.1 2.7 -0.6 2.2C-1.3 1.7 -1.9 1.6 -2.6 1.1C-3.3 0.7 -4.1 -0.1 -4 -0.8C-4 -1.6 -3.3 -2.3 -2.5 -3.2C-1.7 -4 -0.8 -5.1 0.1 -5.2C1 -5.3 2 -4.5 3 -3.6Z" stroke="#e1e1e1" fill="none" stroke-width="1"></path></g><g transform="translate(784 200)"><path d="M7.7 -8.9C9.7 -7.5 10.8 -4.8 10.8 -2.3C10.7 0.2 9.5 2.5 7.9 3.9C6.3 5.3 4.3 5.8 2.1 7.2C-0.1 8.6 -2.4 10.9 -4.7 10.9C-6.9 10.9 -9 8.7 -10 6.2C-11 3.7 -10.8 0.9 -10.4 -1.9C-9.9 -4.6 -9.2 -7.4 -7.5 -8.8C-5.7 -10.3 -2.8 -10.4 0 -10.4C2.9 -10.4 5.7 -10.3 7.7 -8.9Z" stroke="#e1e1e1" fill="none" stroke-width="1"></path></g><g transform="translate(198 52)"><path d="M1.5 -1.7C1.8 -1.4 2 -0.9 2 -0.4C2.1 0.1 2.1 0.6 1.9 1.2C1.7 1.9 1.5 2.6 0.8 3.2C0.2 3.9 -0.9 4.6 -1.7 4.4C-2.6 4.2 -3.3 3.3 -3.8 2.2C-4.3 1.2 -4.7 0.2 -4.5 -0.8C-4.4 -1.8 -3.7 -2.7 -2.9 -2.9C-2 -3.1 -1 -2.7 -0.2 -2.4C0.5 -2.2 1.1 -2.1 1.5 -1.7Z" stroke="#e1e1e1" fill="none" stroke-width="1"></path></g><g transform="translate(826 280)"><path d="M4.5 -5.5C5.4 -4.6 5.4 -2.8 5.3 -1.3C5.1 0.2 4.7 1.3 4.3 3C4 4.7 3.7 6.9 2.6 7.5C1.5 8.1 -0.4 7.2 -1.6 6C-2.7 4.8 -3.2 3.5 -3.5 2.3C-3.9 1.1 -4.2 0.2 -4.4 -1.1C-4.5 -2.4 -4.6 -4 -3.9 -5C-3.2 -6 -1.6 -6.4 0.1 -6.5C1.8 -6.6 3.6 -6.5 4.5 -5.5Z" stroke="#e1e1e1" fill="none" stroke-width="1"></path></g><g transform="translate(249 52)"><path d="M1.4 -1.7C1.7 -1.4 1.7 -0.9 1.6 -0.4C1.4 0 1.2 0.3 1.1 0.9C1.1 1.6 1.2 2.6 0.8 3.1C0.5 3.6 -0.4 3.5 -1.1 3.2C-1.9 2.9 -2.6 2.4 -2.8 1.7C-3 1.1 -2.7 0.3 -2.5 -0.3C-2.2 -1 -2 -1.5 -1.6 -1.8C-1.2 -2.1 -0.6 -2.1 0 -2.1C0.6 -2.1 1.1 -2 1.4 -1.7Z" stroke="#e1e1e1" fill="none" stroke-width="1"></path></g><g transform="translate(139 454)"><path d="M1.1 -1.7C1.3 -1.1 1.3 -0.7 1.3 -0.3C1.2 0 1.2 0.3 1.1 0.9C1.1 1.5 1.2 2.5 0.8 2.8C0.5 3.1 -0.2 2.8 -0.6 2.3C-0.9 1.9 -1 1.2 -1.1 0.7C-1.3 0.3 -1.6 0 -1.6 -0.3C-1.6 -0.6 -1.2 -0.8 -0.9 -1.4C-0.6 -2 -0.3 -2.9 0.1 -3C0.4 -3 0.8 -2.3 1.1 -1.7Z" stroke="#e1e1e1" fill="none" stroke-width="1"></path></g><g transform="translate(783 316)"><path d="M8.4 -11.9C10.3 -8.5 10.7 -5.2 10.5 -2.4C10.3 0.4 9.6 2.7 8.7 5.9C7.9 9.1 7.1 13 5 13.8C3 14.6 -0.3 12.1 -4.5 11.2C-8.8 10.2 -14 10.7 -14.8 8.8C-15.6 6.9 -11.8 2.8 -10.8 -1.7C-9.7 -6.1 -11.4 -10.8 -10 -14.2C-8.6 -17.7 -4.3 -19.9 -0.5 -19.2C3.3 -18.6 6.6 -15.2 8.4 -11.9Z" stroke="#e1e1e1" fill="none" stroke-width="1"></path></g><g transform="translate(562 328)"><path d="M4 -4.1C5.4 -3.6 6.8 -2.5 8 -0.7C9.2 1.2 10.2 3.8 9 4.7C7.9 5.7 4.8 5 2.3 5.7C-0.2 6.3 -2 8.3 -3 8C-4 7.7 -4.3 5.2 -5.2 3.2C-6.1 1.2 -7.7 -0.2 -7.7 -1.5C-7.6 -2.8 -5.9 -3.9 -4.3 -4.4C-2.8 -4.8 -1.4 -4.7 -0.1 -4.6C1.3 -4.6 2.6 -4.6 4 -4.1Z" stroke="#e1e1e1" fill="none" stroke-width="1"></path></g><g transform="translate(320 400)"><path d="M7.7 -9.4C9.8 -7.4 11.2 -4.8 12.4 -1.6C13.7 1.6 14.8 5.4 13 6.6C11.2 7.8 6.5 6.4 2.9 7.5C-0.7 8.7 -3.3 12.3 -6.2 13C-9.1 13.7 -12.3 11.3 -12.2 8.5C-12.1 5.7 -8.7 2.4 -7.8 -1.2C-6.9 -4.7 -8.6 -8.5 -7.8 -10.8C-6.9 -13 -3.5 -13.7 -0.3 -13.3C2.8 -12.9 5.6 -11.4 7.7 -9.4Z" stroke="#e1e1e1" fill="none" stroke-width="1"></path></g><g transform="translate(734 152)"><path d="M0.7 -0.8C1 -0.6 1.4 -0.5 1.7 -0.1C2 0.3 2.3 0.9 2.1 1.1C1.9 1.4 1.1 1.2 0.5 1.4C-0.1 1.7 -0.5 2.2 -0.9 2.2C-1.3 2.2 -1.6 1.6 -1.6 1.2C-1.7 0.7 -1.5 0.2 -1.3 -0.1C-1.1 -0.4 -0.9 -0.7 -0.7 -0.8C-0.5 -1 -0.2 -1.1 0 -1.1C0.2 -1.1 0.5 -1 0.7 -0.8Z" stroke="#e1e1e1" fill="none" stroke-width="1"></path></g><g transform="translate(203 228)"><path d="M3.1 -3.2C4.3 -2.7 5.6 -2 5.7 -1.1C5.8 -0.2 4.6 0.9 3.5 1.5C2.5 2.1 1.7 2.3 0.9 2.7C0 3.2 -0.8 3.9 -1.5 3.9C-2.2 3.8 -2.8 2.8 -2.8 2C-2.9 1.1 -2.5 0.4 -2.3 -0.4C-2.2 -1.1 -2.2 -1.9 -1.8 -2.5C-1.5 -3.1 -0.7 -3.5 0.1 -3.7C1 -3.8 1.9 -3.6 3.1 -3.2Z" stroke="#e1e1e1" fill="none" stroke-width="1"></path></g><g transform="translate(810 109)"><path d="M6.8 -7.8C8.9 -6.3 10.9 -4.3 11.8 -1.7C12.8 0.9 12.7 4.1 11.3 6.5C9.9 8.9 7.2 10.5 4.7 10.2C2.3 10 0.1 7.8 -3.4 7.4C-6.9 6.9 -11.8 8.3 -12.6 7.1C-13.4 6 -10.2 2.4 -8.8 -0.9C-7.5 -4.2 -8 -7.2 -6.9 -8.8C-5.7 -10.5 -2.8 -10.7 -0.3 -10.4C2.3 -10.1 4.7 -9.2 6.8 -7.8Z" stroke="#e1e1e1" fill="none" stroke-width="1"></path></g><g transform="translate(289 519)"><path d="M13.2 -14.7C17 -12.6 19.8 -8.3 19.4 -4.3C19.1 -0.3 15.7 3.4 12.5 5.6C9.3 7.8 6.3 8.5 3.8 8.7C1.3 8.8 -0.8 8.4 -4.1 8.5C-7.4 8.5 -11.8 9 -13.1 7.3C-14.3 5.7 -12.3 1.9 -10.3 -0.5C-8.3 -2.9 -6.3 -4 -4.6 -6.5C-2.9 -8.9 -1.4 -12.7 1.6 -14.7C4.7 -16.6 9.4 -16.8 13.2 -14.7Z" stroke="#e1e1e1" fill="none" stroke-width="1"></path></g><g transform="translate(300 144)"><path d="M7.6 -9.7C8.5 -8.4 6.8 -4.6 6.5 -1.9C6.1 0.9 7.1 2.8 6.9 4.7C6.7 6.7 5.3 8.8 3.2 10C1.2 11.3 -1.6 11.7 -4.9 11.4C-8.1 11 -11.8 10 -13.3 7.6C-14.8 5.2 -14.1 1.4 -12.9 -1.7C-11.7 -4.9 -10.1 -7.5 -7.8 -8.6C-5.6 -9.7 -2.8 -9.4 0.3 -9.7C3.4 -10 6.8 -11.1 7.6 -9.7Z" stroke="#e1e1e1" fill="none" stroke-width="1"></path></g><g transform="translate(716 100)"><path d="M4.5 -5.1C5.8 -4.2 6.8 -2.8 6.7 -1.4C6.7 -0.1 5.6 1.3 4.6 2.4C3.7 3.6 2.9 4.6 1.8 5.1C0.7 5.6 -0.6 5.5 -2 5.1C-3.3 4.8 -4.7 4.1 -5.3 3.1C-5.9 2 -5.7 0.5 -5.2 -0.7C-4.8 -2 -4.1 -3 -3.2 -4C-2.2 -4.9 -1.1 -5.8 0.2 -6.1C1.6 -6.4 3.2 -6 4.5 -5.1Z" stroke="#e1e1e1" fill="none" stroke-width="1"></path></g><g transform="translate(460 532)"><path d="M5.1 -5.7C6 -5.2 6 -3.1 5.5 -1.6C5.1 0 4.3 1 3.6 1.9C2.9 2.8 2.3 3.7 1.5 3.8C0.7 4 -0.2 3.5 -2.1 3.7C-4.1 3.9 -7.1 4.9 -7.4 4.3C-7.8 3.7 -5.6 1.5 -5.2 -0.9C-4.8 -3.4 -6.2 -6.2 -5.6 -6.7C-5 -7.2 -2.5 -5.5 -0.2 -5.2C2 -4.9 4.1 -6.1 5.1 -5.7Z" stroke="#e1e1e1" fill="none" stroke-width="1"></path></g><g transform="translate(450 52)"><path d="M2.8 -3.3C4.1 -2.2 6.1 -1.8 6.9 -0.7C7.7 0.4 7.5 2.3 6.5 3.6C5.6 5 4 5.8 2.5 6C1 6.2 -0.5 5.7 -2.1 5.3C-3.7 4.9 -5.6 4.6 -6.7 3.5C-7.8 2.4 -8.1 0.4 -7.5 -1.1C-7 -2.6 -5.5 -3.7 -4.1 -4.8C-2.7 -5.9 -1.3 -6.9 -0.3 -6.6C0.7 -6.2 1.5 -4.4 2.8 -3.3Z" stroke="#e1e1e1" fill="none" stroke-width="1"></path></g><g transform="translate(406 489)"><path d="M1.2 -1.4C1.6 -1.1 2 -0.8 2 -0.4C2 -0.1 1.5 0.3 1.2 0.7C1 1.1 0.9 1.7 0.6 2C0.2 2.3 -0.3 2.4 -0.7 2.2C-1 1.9 -1.1 1.3 -1.3 0.8C-1.5 0.3 -1.8 0 -1.9 -0.5C-2 -1 -2 -1.7 -1.6 -2C-1.3 -2.3 -0.6 -2.3 -0.1 -2.1C0.4 -2 0.8 -1.7 1.2 -1.4Z" stroke="#e1e1e1" fill="none" stroke-width="1"></path></g><g transform="translate(100 309)"><path d="M7.2 -6.9C9.9 -6.2 13.4 -4.6 14.4 -2C15.5 0.5 14.2 4 12.3 6.8C10.3 9.6 7.7 11.7 5 11.9C2.3 12 -0.4 10.3 -3.8 9.5C-7.3 8.7 -11.4 8.8 -12.1 7.2C-12.7 5.6 -9.9 2.2 -8.6 -0.8C-7.2 -3.9 -7.4 -6.5 -6.3 -7.5C-5.1 -8.5 -2.5 -7.9 -0.2 -7.7C2.2 -7.4 4.4 -7.6 7.2 -6.9Z" stroke="#e1e1e1" fill="none" stroke-width="1"></path></g><g transform="translate(140 391)"><path d="M4.3 -5.5C5.3 -4.4 5.6 -2.7 5.7 -1.1C5.8 0.4 5.8 1.9 5.1 2.8C4.4 3.7 3 4.2 1.7 4.7C0.3 5.3 -1.1 6 -1.9 5.6C-2.8 5.1 -3.1 3.5 -3.3 2.3C-3.5 1.1 -3.6 0.2 -3.5 -0.7C-3.4 -1.6 -3.1 -2.4 -2.5 -3.6C-1.9 -4.8 -0.9 -6.3 0.4 -6.8C1.7 -7.2 3.4 -6.6 4.3 -5.5Z" stroke="#e1e1e1" fill="none" stroke-width="1"></path></g><g transform="translate(157 298)"><path d="M4.5 -5.1C5.5 -4.5 5.8 -2.8 6.2 -1.1C6.5 0.7 6.9 2.4 6.4 4C5.9 5.6 4.5 7 2.9 7.4C1.3 7.7 -0.5 7 -1.6 5.9C-2.7 4.9 -3.1 3.4 -4.1 2.1C-5.2 0.8 -7 -0.4 -6.7 -1.1C-6.5 -1.8 -4.2 -2 -2.7 -2.5C-1.3 -3 -0.6 -3.8 0.6 -4.5C1.7 -5.1 3.5 -5.7 4.5 -5.1Z" stroke="#e1e1e1" fill="none" stroke-width="1"></path></g><g transform="translate(402 429)"><path d="M1.7 -1.9C2.3 -1.6 3 -1.1 3.1 -0.5C3.3 0.1 2.9 0.8 2.6 1.6C2.2 2.4 1.9 3.2 1.3 3.4C0.7 3.6 -0.2 3.1 -1.3 3C-2.4 2.8 -3.8 2.9 -4.4 2.3C-5 1.7 -4.8 0.5 -4.2 -0.4C-3.6 -1.2 -2.6 -1.6 -1.9 -1.9C-1.1 -2.2 -0.5 -2.5 0 -2.6C0.6 -2.6 1.1 -2.3 1.7 -1.9Z" stroke="#e1e1e1" fill="none" stroke-width="1"></path></g><g transform="translate(700 431)"><path d="M7.3 -9.3C8.9 -7.4 9.2 -4.5 9.2 -2C9.1 0.5 8.8 2.7 8.1 5.4C7.4 8.1 6.3 11.2 4.1 12.5C2 13.8 -1.3 13.3 -4.4 12.1C-7.4 11 -10.2 9.3 -10.6 6.9C-10.9 4.6 -8.8 1.7 -8.2 -1.4C-7.6 -4.5 -8.5 -7.8 -7.4 -9.8C-6.2 -11.7 -3.1 -12.3 -0.1 -12.1C2.9 -12 5.8 -11.1 7.3 -9.3Z" stroke="#e1e1e1" fill="none" stroke-width="1"></path></g><g transform="translate(476 312)"><path d="M6 -7.9C6.7 -6.4 5.7 -3.6 6.4 -1C7 1.7 9.4 4.2 8.9 5.2C8.5 6.3 5.2 5.7 2.7 6C0.3 6.2 -1.3 7.2 -4 7.7C-6.7 8.2 -10.5 8.2 -11 6.6C-11.6 5.1 -9 2 -8.5 -1.6C-8 -5.2 -9.6 -9.3 -8.5 -10.7C-7.5 -12.1 -3.7 -10.9 -0.6 -10.2C2.6 -9.5 5.2 -9.4 6 -7.9Z" stroke="#e1e1e1" fill="none" stroke-width="1"></path></g><g transform="translate(137 250)"><path d="M7.7 -9.9C9.5 -7.6 10.2 -4.8 10.2 -2.2C10.2 0.4 9.5 2.8 8.5 5.3C7.5 7.8 6.1 10.5 4.1 11.2C2.1 11.9 -0.6 10.5 -3 9.2C-5.3 7.9 -7.2 6.6 -8.3 4.8C-9.4 3 -9.5 0.6 -9.7 -2.3C-9.9 -5.2 -10 -8.7 -8.4 -11C-6.8 -13.3 -3.4 -14.5 -0.2 -14.2C2.9 -13.9 5.8 -12.2 7.7 -9.9Z" stroke="#e1e1e1" fill="none" stroke-width="1"></path></g><g transform="translate(97 33)"><path d="M7.4 -8.6C9.3 -7.2 10.4 -4.6 10.9 -1.9C11.3 0.8 11.1 3.5 9.8 5.6C8.5 7.6 6.1 8.9 3.7 9.6C1.3 10.2 -1.2 10.2 -2.9 9.1C-4.5 7.9 -5.4 5.8 -6.2 3.8C-7 1.9 -7.8 0.2 -8 -1.8C-8.1 -3.9 -7.7 -6.2 -6.2 -7.7C-4.8 -9.2 -2.4 -9.8 0.2 -10C2.7 -10.2 5.5 -10 7.4 -8.6Z" stroke="#e1e1e1" fill="none" stroke-width="1"></path></g><g transform="translate(557 116)"><path d="M8 -8.6C10.6 -7.4 13.2 -5.1 13.5 -2.5C13.8 0.1 11.8 2.9 9.6 4.4C7.4 5.9 4.8 6 2.3 7.5C-0.3 9 -2.8 11.8 -4.5 11.5C-6.3 11.3 -7.2 8 -9.1 5.1C-10.9 2.2 -13.6 -0.3 -12.8 -1.8C-12 -3.3 -7.7 -3.7 -5 -4.9C-2.3 -6.1 -1.1 -8.1 0.8 -9C2.7 -9.9 5.4 -9.8 8 -8.6Z" stroke="#e1e1e1" fill="none" stroke-width="1"></path></g><g transform="translate(187 116)"><path d="M9.9 -11.8C11.5 -10.4 10.6 -6.1 10.5 -2.5C10.4 1.1 11.1 4 10.5 7.2C10 10.5 8.3 14.2 5.8 14.4C3.4 14.6 0.2 11.4 -1.7 8.9C-3.6 6.4 -4.3 4.6 -6.2 2.8C-8.2 1 -11.4 -0.8 -12.8 -3.8C-14.1 -6.9 -13.5 -11.2 -11.1 -12.4C-8.6 -13.6 -4.3 -11.8 -0.1 -11.7C4.1 -11.6 8.3 -13.2 9.9 -11.8Z" stroke="#e1e1e1" fill="none" stroke-width="1"></path></g><g transform="translate(228 183)"><path d="M3.4 -3.6C5.3 -2.5 8.4 -2.3 8.7 -1.4C9 -0.5 6.5 0.9 5.1 2.5C3.7 4.1 3.2 5.8 2.3 6C1.4 6.2 0 4.9 -1.6 4.4C-3.3 3.8 -5.3 4 -6.1 3.3C-6.9 2.5 -6.4 0.7 -6.2 -1.2C-6 -3.1 -6 -5.2 -5.1 -6.4C-4.1 -7.7 -2 -8.1 -0.6 -7.3C0.8 -6.6 1.5 -4.7 3.4 -3.6Z" stroke="#e1e1e1" fill="none" stroke-width="1"></path></g><g transform="translate(429 190)"><path d="M1.5 -1.9C2.3 -1.2 3.4 -1 4.1 -0.2C4.8 0.5 5 1.8 4.5 2.4C3.9 3.1 2.5 3.1 1.4 3.3C0.2 3.5 -0.7 3.9 -1.1 3.6C-1.6 3.2 -1.7 2.1 -2.4 1.2C-3.1 0.3 -4.5 -0.3 -4.5 -0.9C-4.5 -1.4 -3.2 -1.9 -2.2 -2.5C-1.3 -3.2 -0.6 -4.1 -0.1 -3.9C0.4 -3.8 0.8 -2.6 1.5 -1.9Z" stroke="#e1e1e1" fill="none" stroke-width="1"></path></g><g transform="translate(34 174)"><path d="M2.1 -2.3C2.8 -2 3.3 -1.3 3.6 -0.5C3.9 0.4 4.1 1.4 3.6 1.9C3.1 2.4 2 2.4 1 2.7C0.1 3 -0.7 3.6 -1.4 3.5C-2.1 3.4 -2.6 2.6 -3.1 1.8C-3.5 1 -3.9 0.1 -4 -0.9C-4.1 -2 -3.9 -3.2 -3.2 -3.5C-2.5 -3.7 -1.2 -2.9 -0.2 -2.6C0.7 -2.3 1.5 -2.5 2.1 -2.3Z" stroke="#e1e1e1" fill="none" stroke-width="1"></path></g><g transform="translate(517 267)"><path d="M0.8 -1C1 -0.8 1.2 -0.5 1.5 -0.1C1.7 0.3 2 0.8 1.9 1.2C1.8 1.6 1.3 1.9 0.8 1.9C0.3 2 -0.1 1.8 -0.4 1.5C-0.6 1.2 -0.6 0.8 -1 0.4C-1.4 0.1 -2.1 -0.2 -2.1 -0.5C-2.2 -0.7 -1.6 -0.9 -1.1 -1.1C-0.6 -1.3 -0.3 -1.5 0 -1.5C0.3 -1.4 0.6 -1.2 0.8 -1Z" stroke="#e1e1e1" fill="none" stroke-width="1"></path></g><g transform="translate(132 157)"><path d="M4.4 -6.8C5.2 -4.6 4.8 -2.7 4.8 -1.1C4.8 0.6 5.3 1.9 4.9 3.1C4.5 4.3 3.4 5.2 1.7 6.7C0.1 8.1 -2.1 10 -4.1 9.9C-6.1 9.8 -7.8 7.6 -8.4 5.4C-9 3.2 -8.4 0.9 -7.4 -0.6C-6.3 -2.2 -4.7 -3 -3.4 -5C-2.1 -7.1 -1 -10.4 0.4 -10.9C1.8 -11.3 3.7 -9 4.4 -6.8Z" stroke="#e1e1e1" fill="none" stroke-width="1"></path></g><g transform="translate(730 228)"><path d="M7 -7.5C9.2 -6.6 11.1 -4.4 12 -1.8C12.9 0.9 12.8 4.1 11.2 6.2C9.7 8.3 6.7 9.3 3.9 10C1.1 10.7 -1.5 11 -4.2 10.5C-6.9 9.9 -9.6 8.5 -9.9 6.5C-10.2 4.4 -8.1 1.7 -7.1 -0.8C-6.1 -3.2 -6.2 -5.3 -5.2 -6.4C-4.2 -7.5 -2.1 -7.6 0.2 -7.9C2.4 -8.1 4.9 -8.4 7 -7.5Z" stroke="#e1e1e1" fill="none" stroke-width="1"></path></g><g transform="translate(603 363)"><path d="M3.8 -4.1C5.1 -3.4 6.7 -2.4 7.3 -1C7.9 0.4 7.6 2.3 6.5 3.3C5.4 4.3 3.5 4.4 2 4.6C0.5 4.8 -0.7 5 -1.8 4.7C-2.8 4.4 -3.6 3.5 -4.3 2.4C-5 1.4 -5.6 0.1 -5.6 -1.2C-5.6 -2.6 -5.1 -4.1 -4.1 -4.9C-3.1 -5.8 -1.6 -5.9 -0.2 -5.7C1.2 -5.5 2.4 -4.9 3.8 -4.1Z" stroke="#e1e1e1" fill="none" stroke-width="1"></path></g><g transform="translate(702 279)"><path d="M5.5 -5.5C7.8 -4.6 10.8 -3.5 12.5 -1.1C14.2 1.3 14.6 5 13.3 8.1C12 11.3 9 13.9 5.9 14C2.8 14.2 -0.3 11.9 -2.5 9.8C-4.7 7.8 -6 6 -7 4.1C-8 2.2 -8.8 0.3 -9.5 -2.6C-10.1 -5.6 -10.6 -9.4 -9 -10.5C-7.4 -11.6 -3.7 -9.9 -1.1 -8.6C1.6 -7.3 3.2 -6.5 5.5 -5.5Z" stroke="#e1e1e1" fill="none" stroke-width="1"></path></g><g transform="translate(636 263)"><path d="M3.3 -3.9C4.1 -3.2 4.6 -2 4.8 -0.9C4.9 0.3 4.8 1.5 4.2 2.3C3.6 3.2 2.6 3.8 1.6 3.8C0.7 3.8 -0.1 3.3 -1.1 3C-2.1 2.7 -3.3 2.6 -3.7 2.1C-4 1.5 -3.6 0.5 -3.2 -0.3C-2.8 -1.1 -2.4 -1.7 -1.8 -2.4C-1.3 -3.2 -0.6 -4.1 0.3 -4.4C1.2 -4.7 2.4 -4.5 3.3 -3.9Z" stroke="#e1e1e1" fill="none" stroke-width="1"></path></g><g transform="translate(488 106)"><path d="M2.1 -2.5C2.5 -2.1 2.5 -1.3 2.3 -0.7C2.1 -0.1 1.7 0.3 1.4 0.9C1.2 1.4 1.1 2.1 0.7 2.5C0.3 2.9 -0.5 3.1 -1 2.9C-1.5 2.6 -1.9 1.9 -1.8 1.4C-1.8 0.8 -1.4 0.3 -1.2 0C-0.9 -0.4 -0.8 -0.6 -0.6 -1C-0.5 -1.5 -0.2 -2.1 0.3 -2.5C0.8 -2.8 1.6 -2.9 2.1 -2.5Z" stroke="#e1e1e1" fill="none" stroke-width="1"></path></g><g transform="translate(829 338)"><path d="M11 -13.8C12.5 -11.8 10.9 -6.7 11.3 -2.3C11.6 2.1 14.1 5.8 13.4 8.3C12.6 10.8 8.7 12 4.9 13.4C1 14.8 -2.7 16.4 -5.7 15.4C-8.7 14.5 -10.9 11 -11.8 7.7C-12.8 4.3 -12.5 1.1 -11.4 -1.5C-10.3 -4 -8.5 -5.9 -6.4 -7.8C-4.4 -9.7 -2.2 -11.6 1.3 -13.1C4.7 -14.6 9.5 -15.8 11 -13.8Z" stroke="#e1e1e1" fill="none" stroke-width="1"></path></g><g transform="translate(427 340)"><path d="M7.8 -7.8C9.9 -7.5 11.4 -4.9 10.5 -2.9C9.7 -0.8 6.6 0.6 5.2 2.8C3.7 4.9 3.8 7.8 2.7 8.7C1.7 9.7 -0.6 8.7 -2.5 7.7C-4.4 6.6 -5.9 5.5 -6.6 4C-7.2 2.5 -7 0.7 -7.1 -1.7C-7.1 -4 -7.6 -6.8 -6.5 -7.3C-5.4 -7.7 -2.7 -5.9 0.1 -5.9C2.8 -6 5.7 -8.1 7.8 -7.8Z" stroke="#e1e1e1" fill="none" stroke-width="1"></path></g><g transform="translate(443 395)"><path d="M3.7 -3.6C4.9 -3.4 6.2 -2.3 6.7 -1C7.2 0.4 7 2.2 6.2 3.5C5.4 4.9 3.9 5.9 2.6 5.7C1.4 5.5 0.2 4.1 -1 3.4C-2.1 2.6 -3.3 2.6 -4.2 2C-5 1.4 -5.5 0.1 -5.6 -1.2C-5.6 -2.6 -5.2 -4.1 -4.2 -4.4C-3.1 -4.6 -1.6 -3.6 -0.2 -3.5C1.2 -3.3 2.5 -3.8 3.7 -3.6Z" stroke="#e1e1e1" fill="none" stroke-width="1"></path></g><g transform="translate(798 449)"><path d="M8.8 -9.8C11.9 -7.8 15.4 -5.6 16.7 -2.4C17.9 0.8 16.9 5 15 9C13.1 12.9 10.3 16.7 6.7 17.5C3.2 18.4 -1 16.3 -4.6 14.3C-8.2 12.3 -11.3 10.3 -11.5 7.7C-11.7 5.1 -9.1 2 -9.1 -2.3C-9.2 -6.6 -11.9 -12 -10.8 -14.3C-9.7 -16.7 -4.9 -16 -1 -14.7C2.8 -13.5 5.6 -11.8 8.8 -9.8Z" stroke="#e1e1e1" fill="none" stroke-width="1"></path></g><g transform="translate(517 358)"><path d="M3.2 -4C4 -3.1 4.4 -2 4.6 -0.8C4.7 0.3 4.6 1.4 4.4 3.2C4.2 5.1 3.9 7.6 2.6 8.7C1.3 9.8 -1 9.5 -2.7 8.5C-4.3 7.4 -5.2 5.5 -5.4 3.8C-5.5 2.1 -4.8 0.7 -4.8 -1.1C-4.7 -2.8 -5.3 -4.9 -4.6 -5.9C-3.9 -6.8 -1.9 -6.7 -0.4 -6.3C1.2 -5.8 2.3 -5 3.2 -4Z" stroke="#e1e1e1" fill="none" stroke-width="1"></path></g><g transform="translate(388 40)"><path d="M5.6 -6.8C6.3 -6.2 5.1 -3.4 5.5 -1C5.9 1.5 8 3.6 7.7 4.6C7.3 5.6 4.6 5.5 2.6 5.6C0.5 5.8 -0.9 6.2 -2.4 5.9C-3.8 5.6 -5.1 4.7 -6.1 3.4C-7 2 -7.5 0.3 -7 -1.1C-6.6 -2.5 -5.3 -3.6 -4 -4.2C-2.7 -4.7 -1.3 -4.7 0.6 -5.4C2.5 -6.1 5 -7.5 5.6 -6.8Z" stroke="#e1e1e1" fill="none" stroke-width="1"></path></g><g transform="translate(704 39)"><path d="M1.9 -2.4C2.3 -1.9 2.4 -1.2 2.3 -0.6C2.1 -0.1 1.7 0.3 1.5 1C1.3 1.7 1.3 2.7 1 3C0.6 3.3 -0.1 2.9 -0.9 2.5C-1.6 2.2 -2.3 2 -2.5 1.5C-2.8 1 -2.5 0.3 -2.2 -0.2C-1.9 -0.7 -1.5 -1 -1.1 -1.6C-0.7 -2.1 -0.4 -2.8 0.2 -3.1C0.7 -3.3 1.4 -2.9 1.9 -2.4Z" stroke="#e1e1e1" fill="none" stroke-width="1"></path></g><g transform="translate(528 64)"><path d="M5 -5.3C6.3 -4.9 7.1 -3.1 6.8 -1.7C6.4 -0.2 5 0.9 4.2 2.4C3.3 3.8 3 5.5 2.2 5.7C1.3 5.9 0 4.7 -1.6 4.2C-3.3 3.7 -5.4 4 -5.9 3.3C-6.4 2.6 -5.3 0.9 -4.9 -0.8C-4.6 -2.5 -4.9 -4.3 -4.1 -4.9C-3.4 -5.4 -1.7 -4.7 0.1 -4.8C1.9 -4.9 3.7 -5.8 5 -5.3Z" stroke="#e1e1e1" fill="none" stroke-width="1"></path></g><g transform="translate(353 532)"><path d="M2.9 -4C3.5 -3 3.6 -1.8 3.8 -0.6C4.1 0.5 4.5 1.7 4.2 2.6C3.9 3.5 2.8 4.2 1.6 4.8C0.4 5.3 -1 5.9 -1.7 5.3C-2.4 4.7 -2.4 3.1 -2.8 1.9C-3.2 0.6 -4.1 -0.1 -4.3 -1.1C-4.5 -2 -4.1 -3.2 -3.3 -4.2C-2.5 -5.2 -1.2 -5.9 0 -5.9C1.2 -5.8 2.3 -5 2.9 -4Z" stroke="#e1e1e1" fill="none" stroke-width="1"></path></g><g transform="translate(720 566)"><path d="M3.7 -4.6C5.4 -3 7.8 -2.4 8.4 -1.1C9.1 0.2 8 2.1 6.8 3.6C5.5 5 4 6 2.6 6C1.2 6.1 -0.2 5.2 -1.8 4.7C-3.3 4.2 -5.1 4.1 -5.5 3.2C-5.9 2.4 -5 0.8 -4.2 -0.2C-3.4 -1.3 -2.7 -1.8 -2 -3.5C-1.3 -5.3 -0.6 -8.2 0.2 -8.4C1 -8.7 2 -6.2 3.7 -4.6Z" stroke="#e1e1e1" fill="none" stroke-width="1"></path></g><g transform="translate(65 275)"><path d="M3.1 -3.6C3.5 -3.4 3 -1.9 3 -0.7C2.9 0.5 3.5 1.4 3.5 2.5C3.4 3.5 2.8 4.7 2 4.7C1.2 4.6 0.3 3.3 -0.6 2.5C-1.4 1.8 -2.1 1.7 -2.6 1.3C-3.2 0.8 -3.6 0.1 -3.6 -0.8C-3.7 -1.7 -3.4 -2.7 -2.7 -2.9C-2.1 -3 -1 -2.4 0.2 -2.6C1.4 -2.8 2.7 -3.9 3.1 -3.6Z" stroke="#e1e1e1" fill="none" stroke-width="1"></path></g><g transform="translate(569 26)"><path d="M1.9 -2C2.5 -1.8 2.9 -1.2 2.8 -0.7C2.7 -0.2 2 0.3 1.5 0.7C1.1 1.2 1 1.7 0.5 2.2C0.1 2.6 -0.6 3 -0.9 2.8C-1.3 2.6 -1.3 1.7 -1.6 1C-1.8 0.4 -2.3 -0.1 -2.4 -0.5C-2.4 -1 -2.1 -1.6 -1.6 -1.8C-1.2 -2 -0.6 -1.9 0 -1.9C0.7 -2 1.3 -2.2 1.9 -2Z" stroke="#e1e1e1" fill="none" stroke-width="1"></path></g><g transform="translate(56 374)"><path d="M7 -8.8C9.9 -6 13.5 -4.5 13.6 -2.6C13.6 -0.7 10.2 1.6 7.9 3.5C5.5 5.5 4.3 7.1 2.2 9.3C0 11.6 -3.2 14.5 -5.7 14.2C-8.1 13.9 -9.9 10.3 -11.8 6.9C-13.7 3.5 -15.7 0.2 -14.5 -1.9C-13.3 -3.9 -9 -4.7 -6 -7.4C-3.1 -10.2 -1.5 -14.8 0.3 -15.2C2.1 -15.5 4.2 -11.5 7 -8.8Z" stroke="#e1e1e1" fill="none" stroke-width="1"></path></g><g transform="translate(263 569)"><path d="M3.7 -3.8C5.1 -3.3 6.6 -2.4 6.4 -1.4C6.2 -0.5 4.2 0.4 3.3 1.8C2.3 3.2 2.4 5.1 1.6 6.1C0.8 7.2 -1 7.4 -1.9 6.5C-2.8 5.6 -2.9 3.7 -3.6 2.2C-4.4 0.7 -5.7 -0.3 -5.9 -1.3C-6 -2.4 -4.9 -3.5 -3.8 -4C-2.6 -4.5 -1.3 -4.3 0 -4.3C1.2 -4.2 2.4 -4.2 3.7 -3.8Z" stroke="#e1e1e1" fill="none" stroke-width="1"></path></g><g transform="translate(651 102)"><path d="M5.4 -7.2C6.4 -5.6 6.3 -3.3 6.6 -1.2C6.9 0.9 7.6 2.9 7.3 5C7 7.1 5.6 9.3 3.4 10.7C1.1 12.2 -1.9 12.8 -4.9 12.3C-7.9 11.7 -10.8 9.8 -13.3 7C-15.8 4.1 -17.8 0.3 -16.3 -1.9C-14.7 -4 -9.5 -4.6 -6.2 -5.8C-2.9 -7 -1.4 -8.8 0.4 -9.3C2.2 -9.7 4.4 -8.8 5.4 -7.2Z" stroke="#e1e1e1" fill="none" stroke-width="1"></path></g><g transform="translate(193 422)"><path d="M3.4 -3.5C4.5 -3.1 5.7 -2.1 6 -1C6.3 0.2 5.7 1.6 4.8 2.4C3.9 3.1 2.6 3.3 1.3 3.9C0 4.4 -1.1 5.4 -2 5.2C-2.8 5 -3.3 3.6 -3.5 2.5C-3.6 1.3 -3.4 0.4 -3.4 -0.8C-3.4 -1.9 -3.6 -3.2 -3.1 -3.8C-2.5 -4.3 -1.3 -4.1 -0.1 -4C1.1 -3.9 2.2 -3.9 3.4 -3.5Z" stroke="#e1e1e1" fill="none" stroke-width="1"></path></g><g transform="translate(871 134)"><path d="M5.3 -6.1C6.9 -4.9 8.4 -3.3 9 -1.4C9.5 0.5 9.2 2.8 7.9 4C6.6 5.2 4.2 5.2 2.3 5.7C0.3 6.1 -1.3 7 -2.5 6.7C-3.8 6.3 -4.8 4.8 -5 3.4C-5.3 1.9 -4.8 0.6 -4.2 -0.4C-3.7 -1.4 -2.9 -2 -2.2 -3.4C-1.5 -4.7 -0.7 -6.8 0.5 -7.5C1.8 -8.1 3.6 -7.3 5.3 -6.1Z" stroke="#e1e1e1" fill="none" stroke-width="1"></path></g><g transform="translate(313 44)"><path d="M12 -14.3C15.6 -11.3 18.5 -7.5 18.6 -3.7C18.7 0.1 16 3.9 13.7 7.8C11.3 11.7 9.2 15.7 6.4 16.2C3.5 16.7 -0.2 13.8 -3.8 11.8C-7.3 9.9 -10.6 9 -11.6 6.9C-12.5 4.8 -11.1 1.6 -11 -2.4C-10.9 -6.4 -12.1 -11.2 -10.5 -14.6C-8.9 -18 -4.5 -20 -0.1 -19.8C4.2 -19.7 8.4 -17.4 12 -14.3Z" stroke="#e1e1e1" fill="none" stroke-width="1"></path></g><g transform="translate(844 218)"><path d="M7.4 -9.5C9.3 -7.1 10.5 -4.6 11 -1.9C11.5 0.8 11.4 3.6 10.3 6.4C9.2 9.1 7.2 11.8 5.1 11.5C2.9 11.2 0.6 7.9 -2.8 7C-6.3 6.1 -10.8 7.5 -12.8 6.3C-14.8 5.1 -14.2 1.4 -13.4 -2.2C-12.6 -5.9 -11.7 -9.3 -9.4 -11.6C-7.2 -13.9 -3.6 -15 -0.4 -14.4C2.7 -13.9 5.4 -11.8 7.4 -9.5Z" stroke="#e1e1e1" fill="none" stroke-width="1"></path></g><g transform="translate(755 482)"><path d="M4.8 -4.8C6.3 -4.5 7.7 -3 7.4 -1.7C7.1 -0.5 5.1 0.7 4 2.2C3 3.7 2.9 5.6 1.7 7C0.5 8.5 -1.6 9.5 -3.1 8.8C-4.5 8.2 -5.2 5.8 -6 3.8C-6.7 1.8 -7.4 0.2 -6.9 -0.9C-6.3 -2 -4.5 -2.7 -3.2 -3C-1.8 -3.4 -0.9 -3.4 0.4 -3.9C1.7 -4.3 3.3 -5.1 4.8 -4.8Z" stroke="#e1e1e1" fill="none" stroke-width="1"></path></g><g transform="translate(487 170)"><path d="M0.9 -0.8C1.3 -0.7 1.9 -0.6 2.1 -0.3C2.2 0 1.8 0.4 1.5 0.7C1.2 1 0.8 1.2 0.5 1.3C0.2 1.4 -0.2 1.4 -0.5 1.3C-0.9 1.2 -1.2 1.1 -1.3 0.8C-1.5 0.5 -1.4 0.2 -1.3 -0.2C-1.1 -0.5 -1 -0.8 -0.8 -0.9C-0.6 -1.1 -0.3 -1.2 0 -1.1C0.2 -1.1 0.5 -1 0.9 -0.8Z" stroke="#e1e1e1" fill="none" stroke-width="1"></path></g><g transform="translate(859 71)"><path d="M4.9 -6.1C6 -4.9 6.4 -3 6.8 -1.1C7.2 0.8 7.7 2.8 7.6 5.6C7.4 8.5 6.6 12.2 4.6 13.2C2.6 14.2 -0.7 12.4 -3.2 10.7C-5.8 9 -7.7 7.2 -8.7 5.2C-9.6 3.1 -9.7 0.7 -8.9 -1.1C-8 -3 -6.3 -4.2 -4.7 -5.4C-3.1 -6.6 -1.5 -7.7 0.2 -7.9C1.9 -8.1 3.7 -7.4 4.9 -6.1Z" stroke="#e1e1e1" fill="none" stroke-width="1"></path></g><g transform="translate(365 158)"><path d="M1.1 -1.4C1.5 -1 1.9 -0.7 2.1 -0.3C2.2 0.1 2.2 0.7 1.8 0.9C1.5 1.1 0.9 1 0.5 1.1C0 1.1 -0.2 1.3 -0.5 1.2C-0.7 1.2 -0.9 0.9 -1.3 0.6C-1.6 0.3 -2.1 -0.1 -2.2 -0.5C-2.3 -0.9 -1.9 -1.4 -1.5 -1.8C-1 -2.2 -0.5 -2.6 -0.1 -2.5C0.3 -2.4 0.7 -1.8 1.1 -1.4Z" stroke="#e1e1e1" fill="none" stroke-width="1"></path></g><g transform="translate(772 45)"><path d="M5.9 -6.9C6.9 -6.2 6.5 -3.6 7.6 -0.8C8.8 2 11.4 5 10.8 6.4C10.2 7.8 6.4 7.5 3.3 8.4C0.1 9.2 -2.3 11.3 -3.8 10.6C-5.2 10 -5.5 6.7 -6.4 4.2C-7.3 1.7 -8.7 0 -8.2 -1.3C-7.8 -2.5 -5.6 -3.3 -3.9 -3.9C-2.2 -4.5 -1.1 -5 0.7 -5.8C2.4 -6.5 4.9 -7.6 5.9 -6.9Z" stroke="#e1e1e1" fill="none" stroke-width="1"></path></g><g transform="translate(142 75)"><path d="M10 -12.1C12.3 -10 13.1 -6.2 12 -3.4C11 -0.6 8.1 1.2 6.8 4.2C5.4 7.2 5.5 11.4 3.9 12.8C2.3 14.3 -1 13 -3.7 11.5C-6.5 9.9 -8.7 8.1 -10.3 5.7C-11.9 3.4 -12.8 0.5 -13.2 -3.2C-13.6 -6.9 -13.4 -11.3 -11.1 -13.4C-8.8 -15.5 -4.4 -15.3 -0.3 -15C3.9 -14.6 7.7 -14.2 10 -12.1Z" stroke="#e1e1e1" fill="none" stroke-width="1"></path></g><g transform="translate(120 548)"><path d="M3.5 -5.1C4.6 -3.2 5.7 -2.2 6.6 -0.6C7.4 0.9 8.1 3 8.1 6.3C8.2 9.6 7.5 14.2 5.6 14.5C3.6 14.9 0.5 11.1 -2.5 9.1C-5.5 7 -8.3 6.7 -9.6 5.2C-10.9 3.7 -10.6 0.9 -9.4 -0.9C-8.1 -2.7 -5.9 -3.5 -4.2 -5.4C-2.5 -7.2 -1.2 -10.1 0 -10C1.2 -10 2.3 -7.1 3.5 -5.1Z" stroke="#e1e1e1" fill="none" stroke-width="1"></path></g><g transform="translate(364 309)"><path d="M4.6 -6.2C5.2 -5 4.2 -2.8 4.5 -0.8C4.9 1.2 6.5 2.9 6.6 4.9C6.8 6.9 5.5 9.1 3.7 9.5C1.9 9.9 -0.3 8.3 -2.2 7.1C-4.1 6 -5.8 5.2 -6.6 3.8C-7.3 2.5 -7.2 0.6 -7.1 -1.5C-7.1 -3.7 -7.1 -6.1 -5.9 -7.1C-4.7 -8.1 -2.4 -7.7 -0.2 -7.5C2 -7.3 4.1 -7.3 4.6 -6.2Z" stroke="#e1e1e1" fill="none" stroke-width="1"></path></g><g transform="translate(584 270)"><path d="M5.3 -6.6C7.6 -4.3 10.8 -3.4 11.2 -1.8C11.6 -0.3 9.4 1.9 7.8 4.6C6.3 7.2 5.6 10.4 4.1 10.8C2.5 11.3 0 9 -1.8 7.3C-3.6 5.6 -4.7 4.5 -6.2 3C-7.8 1.5 -9.8 -0.3 -9.6 -1.7C-9.3 -3.1 -6.8 -4.1 -4.8 -6.4C-2.8 -8.7 -1.4 -12.2 0 -12.3C1.5 -12.3 2.9 -8.8 5.3 -6.6Z" stroke="#e1e1e1" fill="none" stroke-width="1"></path></g><g transform="translate(700 380)"><path d="M3.2 -2.7C5.1 -2.3 8.2 -2.1 8.3 -1.4C8.5 -0.7 5.8 0.5 4.1 1.3C2.4 2.2 1.7 2.6 0.8 3.4C-0.1 4.2 -1.2 5.4 -2.9 5.7C-4.5 6.1 -6.5 5.5 -7.5 4.2C-8.4 2.8 -8.2 0.7 -7.7 -1.1C-7.1 -3 -6.1 -4.5 -4.8 -5C-3.4 -5.5 -1.7 -5 -0.5 -4.4C0.7 -3.8 1.4 -3.1 3.2 -2.7Z" stroke="#e1e1e1" fill="none" stroke-width="1"></path></g><g transform="translate(608 563)"><path d="M8.6 -10.3C11.2 -8.1 13.4 -5.4 13.9 -2.4C14.5 0.5 13.4 3.8 11.2 5.5C9.1 7.1 5.8 7.1 3 8.1C0.2 9 -2.3 11 -5.3 11.3C-8.3 11.6 -12 10.3 -12.8 7.9C-13.7 5.4 -11.8 1.8 -11.2 -2C-10.5 -5.8 -11.1 -9.9 -9.5 -12.3C-7.8 -14.7 -3.9 -15.4 -0.5 -14.8C3 -14.3 6 -12.5 8.6 -10.3Z" stroke="#e1e1e1" fill="none" stroke-width="1"></path></g><g transform="translate(318 250)"><path d="M1.1 -1.4C1.3 -1.2 1.2 -0.7 1.1 -0.3C1 0 0.9 0.3 0.9 0.7C0.8 1.1 0.8 1.6 0.6 1.8C0.3 2 -0.1 1.8 -0.7 1.7C-1.2 1.5 -1.8 1.5 -2.1 1.2C-2.4 0.8 -2.3 0.2 -2.1 -0.3C-2 -0.9 -1.8 -1.4 -1.4 -1.6C-1.1 -1.9 -0.5 -1.8 0 -1.7C0.5 -1.7 0.9 -1.7 1.1 -1.4Z" stroke="#e1e1e1" fill="none" stroke-width="1"></path></g><g transform="translate(186 560)"><path d="M6.7 -7.3C9 -6.1 11.3 -4.2 12.4 -1.6C13.5 1 13.4 4.3 11.5 5.7C9.6 7.1 5.9 6.6 2.9 7.6C-0.2 8.6 -2.6 11.1 -5.6 11.6C-8.7 12.1 -12.4 10.7 -12.9 8.2C-13.5 5.7 -11 2.1 -9.3 -0.6C-7.6 -3.4 -6.8 -5.3 -5.4 -6.6C-4 -7.9 -2 -8.6 0.1 -8.8C2.2 -8.9 4.4 -8.4 6.7 -7.3Z" stroke="#e1e1e1" fill="none" stroke-width="1"></path></g><g transform="translate(285 458)"><path d="M5.5 -6.1C7.3 -5.1 8.8 -3.5 8.5 -2C8.2 -0.5 5.9 0.8 4.5 1.8C3 2.8 2.2 3.4 1 4.7C-0.3 6 -2 8.1 -3.1 7.9C-4.2 7.8 -4.8 5.4 -5.7 3.5C-6.6 1.5 -7.7 0 -7.3 -1C-6.8 -2.1 -4.7 -2.5 -3.2 -3.6C-1.7 -4.6 -0.8 -6.2 0.5 -6.9C1.9 -7.5 3.8 -7.1 5.5 -6.1Z" stroke="#e1e1e1" fill="none" stroke-width="1"></path></g><g transform="translate(668 567)"><path d="M3 -2.9C4.2 -2.5 5.8 -1.9 6.2 -0.9C6.6 0.1 5.9 1.5 4.8 2.3C3.8 3.1 2.5 3.2 1.4 3.4C0.3 3.6 -0.6 3.9 -1.9 3.9C-3.2 4 -5 4 -5.5 3.1C-6 2.3 -5.3 0.8 -5.1 -1C-4.9 -2.7 -5.2 -4.7 -4.5 -5.1C-3.7 -5.5 -1.8 -4.4 -0.5 -3.8C0.9 -3.3 1.8 -3.2 3 -2.9Z" stroke="#e1e1e1" fill="none" stroke-width="1"></path></g><g transform="translate(637 40)"><path d="M3.7 -5.6C5 -3.3 6.3 -2.3 6.8 -1C7.2 0.3 6.7 1.9 6.1 4C5.5 6.2 4.8 8.8 3.3 9.7C1.7 10.6 -0.8 9.7 -4.4 9.5C-8 9.3 -12.7 9.7 -14.2 7.8C-15.7 6 -14 1.9 -11.9 -0.7C-9.8 -3.4 -7.4 -4.7 -5.3 -6.8C-3.3 -9 -1.7 -12 -0.2 -11.7C1.2 -11.4 2.4 -7.8 3.7 -5.6Z" stroke="#e1e1e1" fill="none" stroke-width="1"></path></g><g transform="translate(25 460)"><path d="M8.4 -11.1C9.6 -9 8.4 -5.1 8.8 -1.7C9.1 1.7 11.1 4.6 10.9 7.5C10.7 10.4 8.3 13.3 5.2 14.5C2.1 15.8 -1.7 15.4 -3.5 13.2C-5.3 11 -5.1 6.9 -6.7 4C-8.2 1 -11.5 -0.8 -12.2 -3.1C-12.9 -5.4 -11 -8.1 -8.5 -10C-6.1 -11.8 -3 -12.8 0.3 -13.1C3.6 -13.4 7.2 -13.1 8.4 -11.1Z" stroke="#e1e1e1" fill="none" stroke-width="1"></path></g><g transform="translate(92 409)"><path d="M3.4 -3.5C4.6 -3.1 5.9 -2.2 5.8 -1.2C5.6 -0.3 4.2 0.6 3.3 1.8C2.5 3.1 2.4 4.6 1.7 5.1C0.9 5.6 -0.3 5 -1.1 4.2C-1.8 3.4 -2 2.3 -3.1 1.3C-4.3 0.3 -6.5 -0.6 -6.8 -1.6C-7.1 -2.6 -5.5 -3.7 -4.1 -4.1C-2.7 -4.4 -1.3 -4.1 -0.1 -4C1.1 -3.9 2.2 -3.9 3.4 -3.5Z" stroke="#e1e1e1" fill="none" stroke-width="1"></path></g><g transform="translate(354 474)"><path d="M4.2 -5.1C5.4 -4 6.3 -2.6 7.2 -0.8C8.1 1.1 9 3.4 8.3 4.9C7.5 6.4 5.2 7 2.7 8.3C0.3 9.5 -2.3 11.4 -4.4 11.1C-6.6 10.7 -8.3 8.3 -9.7 5.7C-11.1 3.1 -12.1 0.4 -11.4 -1.8C-10.8 -3.9 -8.4 -5.5 -6.2 -6.5C-4 -7.5 -2 -8 -0.3 -7.6C1.5 -7.3 3 -6.3 4.2 -5.1Z" stroke="#e1e1e1" fill="none" stroke-width="1"></path></g><g transform="translate(419 280)"><path d="M3.4 -4.6C3.9 -3.6 3.6 -2.1 3.4 -0.9C3.3 0.2 3.3 1.1 3.2 2.4C3.1 3.8 2.9 5.7 1.9 6.6C0.9 7.6 -0.9 7.5 -1.7 6.4C-2.5 5.4 -2.3 3.3 -2.8 1.8C-3.3 0.4 -4.7 -0.3 -4.7 -1C-4.8 -1.7 -3.6 -2.3 -2.6 -3.2C-1.6 -4.1 -0.8 -5.3 0.3 -5.7C1.4 -6.1 2.9 -5.6 3.4 -4.6Z" stroke="#e1e1e1" fill="none" stroke-width="1"></path></g><g transform="translate(239 267)"><path d="M0.5 -0.8C0.7 -0.5 1 -0.3 1 -0.2C1.1 0 1 0.3 0.8 0.4C0.7 0.6 0.5 0.7 0.3 0.8C0 0.9 -0.2 1 -0.4 1C-0.6 0.9 -0.7 0.7 -1 0.5C-1.3 0.2 -1.8 -0.1 -1.8 -0.4C-1.9 -0.8 -1.6 -1.1 -1.2 -1.4C-0.8 -1.7 -0.4 -2 -0.1 -1.9C0.2 -1.7 0.3 -1.2 0.5 -0.8Z" stroke="#e1e1e1" fill="none" stroke-width="1"></path></g><g transform="translate(307 192)"><path d="M2.1 -2.9C2.9 -1.7 4.1 -1.3 4.5 -0.6C4.9 0.2 4.5 1.3 4 2.4C3.4 3.5 2.8 4.7 1.8 5.1C0.9 5.4 -0.4 5 -1.8 4.6C-3.2 4.2 -4.8 3.9 -5.1 3.1C-5.4 2.2 -4.4 0.8 -3.8 -0.3C-3.1 -1.3 -2.7 -2.1 -2.1 -3.3C-1.6 -4.5 -0.8 -6.1 -0.1 -6C0.6 -5.9 1.2 -4 2.1 -2.9Z" stroke="#e1e1e1" fill="none" stroke-width="1"></path></g><g transform="translate(826 31)"><path d="M9.6 -12.2C11.6 -9.8 11.8 -5.9 11.8 -2.6C11.8 0.8 11.6 3.7 10.7 7.1C9.8 10.5 8.2 14.3 5.5 15.4C2.8 16.5 -1 14.9 -3.1 12.5C-5.2 10 -5.6 6.8 -6.2 4.3C-6.7 1.9 -7.3 0.2 -8 -2.4C-8.7 -5 -9.4 -8.5 -8.1 -11.2C-6.8 -13.8 -3.4 -15.4 0.2 -15.6C3.8 -15.9 7.6 -14.7 9.6 -12.2Z" stroke="#e1e1e1" fill="none" stroke-width="1"></path></g><g transform="translate(787 366)"><path d="M3.2 -3.9C4.1 -3.1 4.8 -2 5 -0.9C5.2 0.3 4.9 1.5 4.1 2C3.4 2.5 2.1 2.4 1.1 2.6C0.1 2.8 -0.7 3.3 -1.2 3.2C-1.8 3.1 -2.1 2.3 -2.6 1.5C-3.1 0.7 -3.7 0 -3.9 -1C-4.1 -1.9 -3.8 -3.1 -3.1 -3.9C-2.4 -4.7 -1.2 -5.1 0 -5.1C1.2 -5.1 2.3 -4.6 3.2 -3.9Z" stroke="#e1e1e1" fill="none" stroke-width="1"></path></g><g transform="translate(102 110)"><path d="M6.6 -8.9C7.5 -7.1 6.4 -4 7.4 -0.9C8.5 2.2 11.7 5.4 11.7 8.2C11.8 11 8.8 13.5 6 13C3.2 12.4 0.6 8.9 -1.7 7.1C-4.1 5.2 -6.2 5 -8.7 3.6C-11.2 2.2 -14 -0.4 -13.3 -2C-12.6 -3.7 -8.4 -4.3 -5.6 -5.8C-2.8 -7.3 -1.4 -9.5 0.7 -10.4C2.9 -11.2 5.7 -10.7 6.6 -8.9Z" stroke="#e1e1e1" fill="none" stroke-width="1"></path></g><g transform="translate(42 37)"><path d="M12 -13.8C15.4 -11.5 17.9 -7.5 16.6 -4.5C15.3 -1.4 10.1 0.7 7.5 3.4C4.9 6.1 4.7 9.4 3.2 11C1.6 12.6 -1.4 12.4 -5.1 12C-8.7 11.5 -13 10.8 -15.2 8.2C-17.4 5.6 -17.5 1.3 -16.1 -2.2C-14.7 -5.7 -11.9 -8.2 -8.9 -10.6C-6 -13 -3 -15.2 0.6 -16C4.3 -16.7 8.6 -16.1 12 -13.8Z" stroke="#e1e1e1" fill="none" stroke-width="1"></path></g><g transform="translate(761 409)"><path d="M5.9 -7.4C8.6 -4.7 12.5 -3.8 14.6 -1.2C16.7 1.4 17.1 5.8 14.8 7.5C12.6 9.3 7.7 8.5 4.4 8.1C1 7.6 -0.8 7.4 -3.8 7.6C-6.8 7.7 -11 8.2 -12 6.8C-13.1 5.3 -11.1 1.8 -10.4 -1.7C-9.6 -5.2 -10 -8.9 -8.5 -11.7C-7 -14.6 -3.5 -16.8 -1 -15.6C1.6 -14.5 3.2 -10.1 5.9 -7.4Z" stroke="#e1e1e1" fill="none" stroke-width="1"></path></g><g transform="translate(586 419)"><path d="M0.9 -1.3C1.1 -0.9 1.2 -0.6 1.2 -0.3C1.2 0.1 1.2 0.4 1.1 0.8C1 1.1 0.9 1.6 0.6 1.9C0.2 2.2 -0.3 2.2 -0.7 2C-1 1.8 -1.2 1.3 -1.6 0.8C-1.9 0.4 -2.4 -0.1 -2.3 -0.4C-2.3 -0.8 -1.7 -1 -1.2 -1.3C-0.7 -1.6 -0.4 -2 0 -2C0.4 -2 0.7 -1.6 0.9 -1.3Z" stroke="#e1e1e1" fill="none" stroke-width="1"></path></g><g transform="translate(622 455)"><path d="M6.5 -7.3C8.4 -6.2 9.9 -4.1 10.2 -1.9C10.5 0.3 9.6 2.6 8.2 4.4C6.7 6.1 4.9 7.2 2.9 7.9C0.9 8.6 -1.3 9 -3.3 8.5C-5.4 8 -7.3 6.7 -8.5 4.8C-9.7 2.9 -10.1 0.5 -10.1 -2.1C-10 -4.8 -9.5 -7.7 -7.7 -8.9C-6 -10.1 -3 -9.5 -0.3 -9.1C2.3 -8.7 4.6 -8.5 6.5 -7.3Z" stroke="#e1e1e1" fill="none" stroke-width="1"></path></g><g transform="translate(242 106)"><path d="M1.1 -1.3C1.4 -1.1 1.5 -0.7 1.7 -0.2C1.8 0.2 1.9 0.7 1.8 1.1C1.6 1.5 1.2 1.7 0.8 1.7C0.4 1.7 0 1.4 -0.4 1.2C-0.8 1 -1.2 1 -1.5 0.8C-1.7 0.5 -1.8 0.1 -1.8 -0.3C-1.7 -0.8 -1.5 -1.2 -1.2 -1.4C-0.9 -1.6 -0.4 -1.7 0 -1.6C0.4 -1.6 0.8 -1.5 1.1 -1.3Z" stroke="#e1e1e1" fill="none" stroke-width="1"></path></g><g transform="translate(155 514)"><path d="M4.3 -4.8C6.3 -3.4 9.4 -2.8 11.4 -0.6C13.5 1.5 14.5 5.2 13.1 7.4C11.7 9.6 7.8 10.3 4.8 10C1.8 9.7 -0.4 8.3 -2.3 7.2C-4.2 6.1 -5.8 5.2 -7.1 3.7C-8.3 2.3 -9.3 0.2 -9.4 -2C-9.4 -4.3 -8.6 -6.8 -6.9 -8.3C-5.2 -9.8 -2.6 -10.2 -0.8 -9.3C1.1 -8.4 2.2 -6.2 4.3 -4.8Z" stroke="#e1e1e1" fill="none" stroke-width="1"></path></g><g transform="translate(771 545)"><path d="M6.6 -9C7.8 -6.8 7.7 -4.1 8.2 -1.4C8.7 1.2 9.8 3.8 8.9 4.9C8 6.1 5 6 3 5.6C0.9 5.3 -0.4 4.9 -2.4 4.9C-4.5 4.9 -7.4 5.4 -9.2 4.3C-11 3.2 -11.7 0.5 -10.9 -1.6C-10.2 -3.7 -7.9 -5.3 -5.9 -7.4C-3.8 -9.5 -1.9 -12.1 0.4 -12.6C2.7 -13 5.3 -11.3 6.6 -9Z" stroke="#e1e1e1" fill="none" stroke-width="1"></path></g><g transform="translate(88 467)"><path d="M3.1 -4C3.9 -3 4.4 -2 4.6 -0.8C4.7 0.3 4.5 1.4 3.9 2C3.3 2.7 2.2 2.9 1.1 3.4C0.1 3.9 -0.9 4.6 -1.8 4.5C-2.6 4.4 -3.3 3.3 -3.5 2.4C-3.6 1.4 -3.2 0.4 -2.8 -0.3C-2.5 -1 -2.1 -1.5 -1.6 -2.5C-1.1 -3.5 -0.6 -4.9 0.3 -5.3C1.2 -5.6 2.3 -4.9 3.1 -4Z" stroke="#e1e1e1" fill="none" stroke-width="1"></path></g><g transform="translate(477 437)"><path d="M2.8 -3.8C3.5 -2.9 3.7 -1.8 4.1 -0.5C4.5 0.7 5.2 2 4.7 2.6C4.2 3.1 2.6 2.8 1.3 2.9C0.1 3.1 -0.7 3.7 -1.6 3.7C-2.5 3.7 -3.5 3.1 -3.9 2.3C-4.3 1.5 -4.1 0.4 -3.7 -0.4C-3.3 -1.3 -2.7 -1.9 -2.1 -2.9C-1.4 -3.8 -0.7 -5.1 0.2 -5.4C1.1 -5.6 2.2 -4.8 2.8 -3.8Z" stroke="#e1e1e1" fill="none" stroke-width="1"></path></g><g transform="translate(774 268)"><path d="M2 -2.5C2.5 -1.9 3 -1.2 3.5 -0.3C4 0.6 4.6 1.8 4.4 2.9C4.2 4.1 3.2 5.2 2.2 5.1C1.2 5 0.2 3.7 -0.7 2.9C-1.5 2.1 -2.2 1.9 -3.1 1.3C-4 0.8 -5 -0.2 -5.3 -1.3C-5.5 -2.4 -4.9 -3.8 -3.9 -4.4C-2.9 -4.9 -1.5 -4.7 -0.4 -4.2C0.7 -3.8 1.4 -3.2 2 -2.5Z" stroke="#e1e1e1" fill="none" stroke-width="1"></path></g><g transform="translate(622 316)"><path d="M7 -9.1C8.2 -7.2 8 -4.3 7.8 -1.9C7.6 0.5 7.4 2.4 6.8 4.3C6.1 6.2 4.9 8.3 3.3 8.7C1.7 9.1 -0.4 7.9 -1.9 6.7C-3.5 5.5 -4.5 4.4 -4.7 3.1C-5 1.9 -4.4 0.6 -4.8 -1.5C-5.1 -3.5 -6.4 -6.4 -5.8 -8.3C-5.2 -10.3 -2.6 -11.4 0.1 -11.5C2.8 -11.7 5.7 -10.9 7 -9.1Z" stroke="#e1e1e1" fill="none" stroke-width="1"></path></g><g transform="translate(874 264)"><path d="M4.7 -6.4C5.5 -5 5 -2.9 5 -1.1C5 0.6 5.5 2 5.5 4.2C5.5 6.4 5 9.4 3.4 10.6C1.8 11.8 -1 11.1 -2.5 9.4C-3.9 7.7 -4 5.1 -4 3.2C-3.9 1.4 -3.8 0.4 -4 -1.1C-4.2 -2.6 -4.8 -4.5 -4.2 -6C-3.6 -7.4 -1.8 -8.4 0.1 -8.5C2 -8.7 4 -7.9 4.7 -6.4Z" stroke="#e1e1e1" fill="none" stroke-width="1"></path></g><g transform="translate(426 136)"><path d="M8.6 -9.3C10.7 -8.5 11.6 -5.4 13.1 -1.6C14.5 2.1 16.5 6.4 15.5 9.8C14.5 13.2 10.6 15.8 6.4 17.3C2.1 18.8 -2.5 19.1 -4.7 16.6C-7 14.2 -6.9 9.1 -8 5.5C-9 1.9 -11.2 -0.2 -10.7 -1.7C-10.2 -3.1 -7.1 -3.9 -4.9 -4.7C-2.6 -5.4 -1.3 -6.1 1 -7.3C3.3 -8.5 6.5 -10.1 8.6 -9.3Z" stroke="#e1e1e1" fill="none" stroke-width="1"></path></g><g transform="translate(380 369)"><path d="M1.3 -1.4C1.6 -1.2 1.7 -0.8 1.7 -0.3C1.8 0.1 1.7 0.6 1.5 0.8C1.3 1.1 0.9 1.3 0.6 1.3C0.2 1.3 -0.1 1.3 -0.7 1.3C-1.3 1.4 -2.1 1.5 -2.6 1.2C-3 0.9 -3.1 0.2 -2.8 -0.2C-2.4 -0.6 -1.5 -0.7 -1 -0.9C-0.5 -1 -0.2 -1.2 0.1 -1.4C0.5 -1.5 1 -1.6 1.3 -1.4Z" stroke="#e1e1e1" fill="none" stroke-width="1"></path></g><g transform="translate(152 27)"><path d="M2.3 -2.3C3 -2.1 3.6 -1.4 3.5 -0.8C3.4 -0.2 2.5 0.4 1.9 0.7C1.3 1.1 0.9 1.2 0.3 1.7C-0.2 2.2 -0.8 3.1 -1.6 3.3C-2.4 3.5 -3.3 3 -3.2 2.2C-3.2 1.5 -2.2 0.6 -1.9 -0.2C-1.5 -1 -1.8 -1.7 -1.6 -2C-1.4 -2.3 -0.7 -2.1 0 -2.1C0.8 -2.2 1.6 -2.5 2.3 -2.3Z" stroke="#e1e1e1" fill="none" stroke-width="1"></path></g><g transform="translate(477 218)"><path d="M3.2 -4C4 -3.1 4.4 -2 4.7 -0.8C5 0.5 5.2 1.8 4.6 2.3C3.9 2.9 2.4 2.7 1.1 3.1C-0.1 3.5 -1.1 4.6 -2.2 4.7C-3.3 4.9 -4.6 4.1 -4.6 3.1C-4.6 2.1 -3.4 0.9 -2.9 -0.2C-2.3 -1.3 -2.5 -2.2 -2.1 -3.2C-1.8 -4.2 -0.9 -5.2 0.2 -5.4C1.2 -5.6 2.4 -4.9 3.2 -4Z" stroke="#e1e1e1" fill="none" stroke-width="1"></path></g><g transform="translate(673 229)"><path d="M1.9 -2.3C2.3 -1.9 2.4 -1.2 2.6 -0.4C2.7 0.3 2.8 1 2.7 1.8C2.5 2.6 2 3.4 1.2 4C0.4 4.6 -0.8 5 -1.6 4.6C-2.3 4.2 -2.7 3 -3 2C-3.2 1 -3.4 0.2 -3.3 -0.7C-3.3 -1.5 -3 -2.4 -2.4 -2.8C-1.8 -3.1 -0.9 -3 -0.1 -2.9C0.7 -2.8 1.4 -2.7 1.9 -2.3Z" stroke="#e1e1e1" fill="none" stroke-width="1"></path></g><g transform="translate(572 185)"><path d="M5.4 -6.2C6.1 -5.8 5.2 -3.3 5 -1.3C4.8 0.6 5.2 1.9 4.7 2.6C4.2 3.3 2.7 3.4 1.4 3.7C0.2 4.1 -0.9 4.7 -2 4.7C-3.1 4.6 -4.2 3.8 -5.3 2.7C-6.4 1.5 -7.5 0 -7.4 -1.4C-7.2 -2.8 -5.8 -4 -4.4 -4.3C-2.9 -4.6 -1.5 -4 0.4 -4.5C2.3 -5 4.6 -6.6 5.4 -6.2Z" stroke="#e1e1e1" fill="none" stroke-width="1"></path></g><g transform="translate(179 184)"><path d="M4.1 -5.6C5.2 -4.1 5.7 -2.6 5.7 -1.2C5.8 0.2 5.3 1.5 4.6 2.7C3.9 3.8 3 4.9 2.1 4.9C1.1 4.9 0.1 3.8 -1.3 3.4C-2.6 3 -4.2 3.2 -4.7 2.6C-5.1 2 -4.3 0.7 -4.3 -1C-4.3 -2.7 -5.1 -4.8 -4.5 -6.4C-3.9 -7.9 -1.9 -9 -0.2 -8.7C1.6 -8.5 3.1 -7 4.1 -5.6Z" stroke="#e1e1e1" fill="none" stroke-width="1"></path></g><g transform="translate(39 225)"><path d="M6.1 -8.4C7 -6.4 6.4 -3.7 6.6 -1.3C6.8 1 7.8 3.1 7.8 5.8C7.8 8.5 6.6 11.8 4.2 13.7C1.7 15.5 -2.1 15.9 -4.3 14.1C-6.4 12.3 -6.9 8.3 -7.4 5.3C-7.9 2.3 -8.5 0.4 -7.8 -1C-7.1 -2.4 -5.2 -3.1 -3.7 -5C-2.2 -6.9 -1.1 -10 0.7 -10.9C2.6 -11.8 5.1 -10.4 6.1 -8.4Z" stroke="#e1e1e1" fill="none" stroke-width="1"></path></g><g transform="translate(41 321)"><path d="M7.1 -9C8.6 -7.1 8.9 -4.4 8.1 -2.4C7.3 -0.4 5.4 0.8 4.5 2.9C3.7 5.1 3.9 8.2 3 8.6C2.1 9.1 0.2 7 -1.7 5.8C-3.5 4.6 -5.3 4.3 -7.3 3.1C-9.3 1.9 -11.7 -0.3 -11.9 -2.6C-12.1 -5 -10.2 -7.4 -7.9 -9.2C-5.5 -10.9 -2.8 -11.9 0 -11.9C2.8 -11.9 5.5 -10.9 7.1 -9Z" stroke="#e1e1e1" fill="none" stroke-width="1"></path></g><g transform="translate(671 334)"><path d="M9.5 -11.1C12.3 -9 14.5 -6 15.8 -2.2C17.1 1.5 17.6 6 15.9 9.5C14.3 13.1 10.5 15.8 7.1 15.4C3.6 14.9 0.4 11.2 -2.3 9C-5 6.9 -7.3 6.2 -9.5 4.5C-11.7 2.8 -13.8 0 -14 -3.2C-14.3 -6.4 -12.8 -9.9 -10.2 -12C-7.5 -14.1 -3.8 -14.8 -0.2 -14.5C3.4 -14.3 6.7 -13.1 9.5 -11.1Z" stroke="#e1e1e1" fill="none" stroke-width="1"></path></g><g transform="translate(331 97)"><path d="M2.6 -3C3 -2.7 3 -1.6 3.2 -0.5C3.4 0.5 3.9 1.5 3.7 2.4C3.5 3.2 2.5 3.8 1.6 4C0.6 4.3 -0.4 4.2 -1.5 3.9C-2.6 3.6 -3.7 3.2 -4 2.4C-4.4 1.6 -4.1 0.5 -3.6 -0.4C-3.1 -1.2 -2.5 -1.7 -1.9 -2.1C-1.3 -2.5 -0.6 -2.7 0.2 -2.9C1 -3.2 2.1 -3.4 2.6 -3Z" stroke="#e1e1e1" fill="none" stroke-width="1"></path></g><g transform="translate(842 498)"><path d="M3.3 -4C4.5 -2.9 5.9 -2.1 5.8 -1.3C5.6 -0.4 3.9 0.4 2.8 1C1.7 1.5 1.2 1.8 0.4 2.7C-0.3 3.7 -1.4 5.3 -2.2 5.3C-2.9 5.3 -3.4 3.8 -3.7 2.5C-4 1.2 -4.1 0.2 -3.8 -0.5C-3.4 -1.2 -2.5 -1.6 -1.8 -2.7C-1.1 -3.9 -0.5 -5.8 0.2 -6.1C1 -6.4 2.1 -5 3.3 -4Z" stroke="#e1e1e1" fill="none" stroke-width="1"></path></g><g transform="translate(617 212)"><path d="M2.3 -2.5C3.2 -2 4.3 -1.5 4.6 -0.7C5 0.2 4.6 1.3 3.9 2C3.2 2.7 2.2 2.9 1.4 2.8C0.5 2.7 -0.1 2.3 -1.1 2.2C-2.1 2.2 -3.5 2.5 -4.1 2C-4.8 1.6 -4.8 0.4 -4.6 -0.8C-4.4 -2 -4 -3.2 -3.3 -3.6C-2.5 -4.1 -1.2 -3.8 -0.3 -3.5C0.7 -3.2 1.5 -2.9 2.3 -2.5Z" stroke="#e1e1e1" fill="none" stroke-width="1"></path></g><g transform="translate(455 482)"><path d="M6.6 -9.2C7.4 -7.1 6.3 -4 6.4 -1.4C6.6 1.2 8 3.3 7.7 5.1C7.5 6.9 5.5 8.3 3.4 8.9C1.3 9.4 -0.9 9 -3.8 8.7C-6.6 8.4 -10 8.1 -11.6 6.2C-13.2 4.4 -12.9 1.1 -11.8 -1.5C-10.7 -4.1 -8.6 -6 -6.5 -7.9C-4.4 -9.7 -2.2 -11.6 0.3 -12C2.9 -12.4 5.7 -11.3 6.6 -9.2Z" stroke="#e1e1e1" fill="none" stroke-width="1"></path></g><g transform="translate(195 472)"><path d="M3.3 -4.4C4.3 -3 5.3 -2.1 5.5 -1C5.6 0.1 5 1.3 4.5 2.8C3.9 4.3 3.4 6 2.3 6.3C1.3 6.7 -0.2 5.6 -2.8 5.5C-5.4 5.5 -9.1 6.4 -11.2 5.3C-13.3 4.1 -13.8 0.8 -12.4 -1.4C-11 -3.5 -7.8 -4.5 -5.5 -5.6C-3.1 -6.7 -1.5 -7.9 -0.2 -7.7C1.1 -7.4 2.2 -5.7 3.3 -4.4Z" stroke="#e1e1e1" fill="none" stroke-width="1"></path></g><g transform="translate(817 161)"><path d="M3.3 -3.5C4.2 -3.1 4.9 -2.1 5.8 -0.5C6.8 1.1 7.9 3.2 7.3 4.2C6.7 5.2 4.3 5.1 2.5 4.8C0.8 4.4 -0.2 3.8 -1.2 3.4C-2.3 3 -3.4 2.8 -4.1 2.1C-4.9 1.4 -5.2 0.2 -5.1 -0.9C-4.9 -2 -4.2 -3.1 -3.2 -3.4C-2.3 -3.7 -1.1 -3.4 0 -3.4C1.2 -3.5 2.3 -3.8 3.3 -3.5Z" stroke="#e1e1e1" fill="none" stroke-width="1"></path></g><g transform="translate(871 371)"><path d="M1 -1.2C1.4 -0.8 1.9 -0.6 2.1 -0.2C2.4 0.2 2.3 0.7 2 1C1.7 1.4 1.1 1.4 0.6 1.6C0.1 1.7 -0.4 2 -1.1 2.1C-1.8 2.2 -2.7 2.2 -3.2 1.7C-3.8 1.2 -3.9 0.2 -3.7 -0.7C-3.6 -1.6 -3.3 -2.6 -2.6 -2.9C-2 -3.3 -1 -3.1 -0.4 -2.6C0.3 -2.2 0.6 -1.6 1 -1.2Z" stroke="#e1e1e1" fill="none" stroke-width="1"></path></g><g transform="translate(313 566)"><path d="M6.3 -6.9C8.3 -5.8 10.3 -4 11.3 -1.5C12.4 1 12.6 4.2 11.4 7C10.3 9.8 7.8 12.3 5.2 12.4C2.6 12.5 -0.1 10.2 -1.8 8.2C-3.5 6.2 -4.1 4.5 -5.8 2.8C-7.5 1.1 -10.2 -0.6 -10 -1.7C-9.8 -2.9 -6.6 -3.5 -4.4 -4.5C-2.3 -5.5 -1.1 -7 0.5 -7.6C2.1 -8.2 4.3 -7.9 6.3 -6.9Z" stroke="#e1e1e1" fill="none" stroke-width="1"></path></g><g transform="translate(561 545)"><path d="M4.1 -5.4C5.2 -4 5.8 -2.6 5.5 -1.4C5.2 -0.2 4 0.7 3.3 1.8C2.6 3 2.3 4.3 1.6 4.6C1 4.9 -0.1 4.1 -1.1 3.5C-2.1 3 -2.9 2.6 -3.7 1.9C-4.5 1.1 -5.3 0 -5.3 -1.1C-5.3 -2.3 -4.7 -3.5 -3.7 -4.9C-2.7 -6.3 -1.3 -7.8 0.1 -8C1.5 -8.1 3.1 -6.8 4.1 -5.4Z" stroke="#e1e1e1" fill="none" stroke-width="1"></path></g><g transform="translate(495 28)"><path d="M7.6 -8.9C9 -7.8 8.9 -4.7 8.5 -2.3C8 0.2 7.1 1.9 6.2 3.8C5.4 5.7 4.5 7.8 2.8 9C1.1 10.1 -1.4 10.3 -2.8 9.2C-4.3 8 -4.7 5.5 -6.2 3.3C-7.8 1.2 -10.4 -0.6 -10.3 -1.9C-10.2 -3.3 -7.3 -4.2 -5.1 -5.2C-2.9 -6.1 -1.4 -7.1 0.8 -8.1C3 -9 6.1 -9.9 7.6 -8.9Z" stroke="#e1e1e1" fill="none" stroke-width="1"></path></g><g transform="translate(237 446)"><path d="M1.7 -2.3C2.5 -1.4 3.7 -1.1 3.7 -0.7C3.8 -0.2 2.7 0.4 2.2 1.3C1.7 2.2 1.7 3.4 1.2 3.7C0.8 4 -0.1 3.4 -0.7 2.8C-1.3 2.2 -1.6 1.7 -2.3 1C-3.1 0.4 -4.3 -0.3 -4.2 -0.8C-4.1 -1.2 -2.8 -1.5 -1.9 -2.5C-1 -3.4 -0.5 -5 0 -5C0.5 -5 0.9 -3.3 1.7 -2.3Z" stroke="#e1e1e1" fill="none" stroke-width="1"></path></g><g transform="translate(255 314)"><path d="M4.6 -6.3C5.7 -4.5 6.2 -2.9 6.7 -1.1C7.2 0.7 7.5 2.7 7 4.4C6.4 6.2 4.9 7.8 3.2 8.3C1.4 8.7 -0.6 8 -1.9 6.8C-3.2 5.7 -3.8 4.1 -5.1 2.6C-6.5 1.1 -8.5 -0.4 -8.4 -1.6C-8.3 -2.7 -6 -3.6 -4.3 -5.3C-2.5 -7 -1.2 -9.5 0.2 -9.8C1.7 -10 3.5 -8.1 4.6 -6.3Z" stroke="#e1e1e1" fill="none" stroke-width="1"></path></g><g transform="translate(716 512)"><path d="M5.6 -6.2C7.1 -5.4 8.1 -3.5 8.1 -1.7C8.1 0.1 7.1 1.8 5.9 2.9C4.7 4.1 3.3 4.7 2.1 4.5C1 4.3 0.1 3.3 -1 2.9C-2 2.4 -3.1 2.4 -4.6 1.7C-6 1 -7.9 -0.3 -7.5 -1.1C-7.2 -1.9 -4.6 -2.2 -3 -3C-1.3 -3.8 -0.7 -5.3 0.7 -6.1C2 -6.9 4.1 -7.1 5.6 -6.2Z" stroke="#e1e1e1" fill="none" stroke-width="1"></path></g></g></svg>