<svg id="visual" viewBox="0 0 900 600" width="900" height="600" xmlns="http://www.w3.org/2000/svg" xmlns:xlink="http://www.w3.org/1999/xlink" version="1.1"><rect width="900" height="600" fill="#fff"></rect><g><g transform="translate(329 55)"><path d="M30.5 -37C37.9 -30.1 41.1 -19 40.3 -9.2C39.6 0.6 34.8 9 28.5 13.1C22.1 17.3 14.2 17.3 6.4 22.1C-1.5 27 -9.2 36.8 -16.7 37.6C-24.2 38.5 -31.5 30.4 -34.6 21.6C-37.7 12.8 -36.7 3.3 -34 -5C-31.3 -13.2 -27 -20 -21 -27.2C-15 -34.3 -7.5 -41.7 2 -44.1C11.5 -46.5 23.1 -43.9 30.5 -37Z" fill="#FDE767"></path></g><g transform="translate(816 68)"><path d="M13.4 -13.2C20 -10.4 30 -8.7 31.9 -4.6C33.8 -0.5 27.7 6 23.4 13.6C19.1 21.3 16.6 30.1 11.9 31.1C7.1 32.2 0.1 25.5 -4.6 20.4C-9.3 15.3 -11.7 11.7 -13.7 8.1C-15.6 4.4 -17 0.6 -16.5 -3C-16 -6.6 -13.7 -10 -10.6 -13.5C-7.5 -17 -3.8 -20.5 -0.2 -20.3C3.4 -20 6.7 -16 13.4 -13.2Z" fill="#FDE767"></path></g><g transform="translate(358 318)"><path d="M15.5 -18.2C22.7 -12.5 32.7 -10 32.4 -6.5C32.1 -3 21.4 1.6 16.5 9.1C11.7 16.6 12.6 27 9.8 28.8C7 30.6 0.4 23.9 -6.4 20.3C-13.2 16.7 -20.3 16.2 -24.9 12.4C-29.5 8.5 -31.7 1.3 -30.4 -5.3C-29.2 -11.8 -24.4 -17.6 -18.8 -23.6C-13.1 -29.6 -6.6 -35.7 -1.2 -34.3C4.2 -32.9 8.4 -23.9 15.5 -18.2Z" fill="#FDE767"></path></g><g transform="translate(576 67)"><path d="M5.2 -6.9C7.1 -4.5 9.5 -3.3 9.7 -1.8C9.8 -0.2 7.9 1.6 6.9 4.6C5.9 7.7 5.9 11.9 4.1 13.7C2.2 15.4 -1.4 14.7 -4.9 13.4C-8.3 12.1 -11.5 10.3 -12.3 7.7C-13.1 5.1 -11.5 1.7 -10.9 -1.9C-10.3 -5.5 -10.6 -9.3 -9 -11.7C-7.3 -14.1 -3.7 -15.1 -1 -13.9C1.6 -12.7 3.2 -9.2 5.2 -6.9Z" fill="#FDE767"></path></g><g transform="translate(845 356)"><path d="M11 -13.1C14.6 -10 18.3 -6.9 19.2 -3.2C20 0.5 18.1 4.9 15.2 7.8C12.4 10.7 8.6 12.1 5 13.1C1.4 14 -2 14.6 -5.3 13.7C-8.5 12.9 -11.5 10.6 -13 7.7C-14.5 4.8 -14.4 1.1 -13.6 -2.2C-12.8 -5.5 -11.2 -8.5 -8.8 -11.8C-6.4 -15.2 -3.2 -18.9 0.2 -19.1C3.6 -19.4 7.3 -16.2 11 -13.1Z" fill="#FDE767"></path></g><g transform="translate(466 504)"><path d="M1.6 -1.9C2 -1.6 2.1 -1 2.6 -0.2C3.1 0.7 4 1.7 3.8 2.5C3.7 3.2 2.6 3.6 1.5 3.9C0.4 4.3 -0.7 4.5 -1.8 4.4C-2.9 4.2 -4 3.6 -4.3 2.7C-4.5 1.8 -3.9 0.6 -3.7 -0.7C-3.5 -1.9 -3.7 -3.2 -3.1 -3.5C-2.5 -3.8 -1.3 -3 -0.3 -2.6C0.6 -2.2 1.3 -2.2 1.6 -1.9Z" fill="#FDE767"></path></g><g transform="translate(134 519)"><path d="M11.5 -16.7C14.8 -10.9 17.2 -7.2 18.2 -3C19.2 1.2 18.7 5.9 17 10.7C15.3 15.6 12.3 20.6 7.9 22.6C3.5 24.6 -2.4 23.6 -7 21.1C-11.7 18.6 -15.1 14.7 -20.1 9.8C-25.1 4.9 -31.5 -0.9 -33.3 -8.5C-35 -16.1 -32.1 -25.4 -25.8 -30.7C-19.5 -35.9 -9.7 -37.1 -2.8 -33.7C4.1 -30.4 8.2 -22.5 11.5 -16.7Z" fill="#FDE767"></path></g><g transform="translate(721 526)"><path d="M8.4 -10.5C10.9 -7.9 12.9 -5.3 12.3 -3C11.8 -0.6 8.8 1.3 7.2 4.2C5.6 7.1 5.5 10.9 3.7 12.5C1.9 14.2 -1.4 13.7 -4.4 12.4C-7.3 11.2 -9.9 9.2 -11.2 6.6C-12.5 4 -12.5 0.9 -11.2 -1.2C-9.9 -3.3 -7.3 -4.4 -5.2 -7C-3.1 -9.6 -1.5 -13.8 0.7 -14.7C3 -15.5 5.9 -13 8.4 -10.5Z" fill="#FDE767"></path></g><g transform="translate(247 423)"><path d="M12.8 -14.5C16.2 -12.3 18.4 -8 18.4 -3.8C18.5 0.3 16.3 4.2 14.5 9.4C12.7 14.6 11.3 20.9 6.8 25.7C2.2 30.4 -5.5 33.4 -10 30.5C-14.4 27.5 -15.6 18.6 -16.9 11.9C-18.3 5.2 -19.9 0.7 -20.9 -5.3C-21.8 -11.4 -22 -18.9 -18.4 -21.1C-14.8 -23.2 -7.4 -20 -1.4 -18.3C4.7 -16.7 9.3 -16.7 12.8 -14.5Z" fill="#FDE767"></path></g><g transform="translate(80 112)"><path d="M2.9 -3.9C3.4 -3.1 3 -1.8 3 -0.7C3 0.4 3.3 1.3 3.1 1.9C2.9 2.5 2 2.9 1.3 2.9C0.6 2.8 0 2.3 -0.9 2.1C-1.8 2 -2.9 2.2 -3.4 1.7C-3.9 1.3 -3.8 0.3 -3.7 -0.6C-3.5 -1.6 -3.2 -2.6 -2.6 -3.3C-2 -4 -1 -4.5 0.1 -4.7C1.2 -4.8 2.5 -4.6 2.9 -3.9Z" fill="#FDE767"></path></g><g transform="translate(399 144)"><path d="M8.6 -9.4C11.8 -7.6 15.3 -5.5 16.2 -2.6C17 0.3 15.1 3.9 13.4 8.7C11.8 13.5 10.5 19.4 7.5 20.3C4.5 21.2 -0.1 17.2 -4.1 14.4C-8.1 11.6 -11.5 10.1 -15.6 7.1C-19.6 4 -24.4 -0.6 -24.9 -5.6C-25.4 -10.5 -21.7 -16 -16.8 -17.4C-12 -18.8 -6 -16.3 -1.6 -14.4C2.7 -12.4 5.5 -11.1 8.6 -9.4Z" fill="#FDE767"></path></g><g transform="translate(125 297)"><path d="M4 -4.9C4.9 -3.9 5.3 -2.5 5.7 -0.9C6.1 0.6 6.4 2.3 5.8 3.2C5.1 4.1 3.4 4.3 1.7 5.2C0 6 -1.6 7.4 -3.2 7.4C-4.8 7.4 -6.3 6 -7.1 4.3C-7.9 2.6 -7.8 0.6 -7.2 -1C-6.7 -2.7 -5.6 -4 -4.3 -4.9C-3 -5.9 -1.5 -6.4 0 -6.5C1.5 -6.5 3 -5.9 4 -4.9Z" fill="#FDE767"></path></g><g transform="translate(651 423)"><path d="M8.8 -8.7C11.4 -8.2 13.8 -5.5 15.3 -2C16.8 1.6 17.4 6 15.8 9.3C14.1 12.6 10.1 14.8 6.7 14.1C3.4 13.4 0.5 9.9 -2.8 8.4C-6.2 6.9 -10.1 7.5 -11.6 6.1C-13.1 4.7 -12.3 1.4 -11.6 -2C-10.9 -5.3 -10.5 -8.7 -8.6 -9.3C-6.7 -10 -3.4 -8 -0.2 -7.8C3 -7.6 6.1 -9.2 8.8 -8.7Z" fill="#FDE767"></path></g><g transform="translate(713 142)"><path d="M9 -11.9C12.1 -8.2 15.2 -5.7 17.5 -1.7C19.9 2.3 21.6 7.9 19.7 11.6C17.8 15.3 12.4 17.2 7.2 18.5C2 19.8 -2.9 20.5 -7.4 19.3C-11.9 18.1 -16.1 14.9 -18.2 10.8C-20.4 6.6 -20.4 1.5 -19.1 -2.9C-17.8 -7.3 -15.1 -11.1 -11.7 -14.7C-8.3 -18.3 -4.1 -21.7 -0.6 -21C3 -20.3 6 -15.5 9 -11.9Z" fill="#FDE767"></path></g><g transform="translate(113 406)"><path d="M6.6 -9.5C8.7 -6.2 10.5 -4.2 11.6 -1.5C12.7 1.1 13 4.4 12 7.7C11 11 8.7 14.4 5.1 17.2C1.4 20 -3.7 22.1 -6.9 20.3C-10 18.5 -11.1 12.8 -13.2 8.1C-15.3 3.5 -18.3 -0.1 -19.8 -5.6C-21.3 -11 -21.3 -18.2 -17.8 -21.3C-14.2 -24.4 -7.1 -23.3 -2.4 -20.5C2.3 -17.6 4.6 -12.9 6.6 -9.5Z" fill="#FDE767"></path></g><g transform="translate(356 516)"><path d="M6.9 -7.6C8.9 -6.6 10.4 -4.3 10.7 -2C11 0.4 10.2 2.9 8.8 4.8C7.4 6.7 5.3 7.9 3.3 8.2C1.3 8.5 -0.7 8 -1.8 6.8C-2.9 5.5 -3 3.7 -3.6 2.3C-4.1 0.9 -5.1 -0.1 -6 -2.1C-6.8 -4 -7.6 -7 -6.6 -8.2C-5.6 -9.3 -2.8 -8.6 -0.2 -8.5C2.5 -8.3 4.9 -8.5 6.9 -7.6Z" fill="#FDE767"></path></g><g transform="translate(843 490)"><path d="M23 -27.9C25.9 -25 21.6 -14 18.7 -6.8C15.8 0.4 14.3 3.9 12.7 7.8C11.1 11.8 9.2 16.1 5.8 18.5C2.3 20.9 -2.8 21.4 -7.3 19.8C-11.7 18.2 -15.4 14.6 -21.2 9.7C-26.9 4.9 -34.7 -1.3 -36.8 -9.4C-38.9 -17.6 -35.3 -27.6 -28.2 -29.7C-21.1 -31.8 -10.5 -25.9 -0.2 -25.6C10.1 -25.4 20.1 -30.7 23 -27.9Z" fill="#FDE767"></path></g><g transform="translate(302 217)"><path d="M15.6 -20.4C18.7 -16.1 18.4 -9.7 20.6 -2.8C22.7 4 27.3 11.2 26.6 18.1C25.9 25 19.9 31.7 13 33C6.1 34.4 -1.8 30.5 -10.2 27.6C-18.6 24.7 -27.5 22.9 -30.8 17.6C-34.1 12.3 -31.7 3.5 -28.1 -2.9C-24.6 -9.4 -19.7 -13.6 -14.8 -17.5C-9.9 -21.5 -5 -25.1 0.7 -25.9C6.3 -26.7 12.6 -24.6 15.6 -20.4Z" fill="#FDE767"></path></g><g transform="translate(196 176)"><path d="M11.5 -10.3C16.7 -9.3 24 -7.4 24.9 -4.1C25.8 -0.8 20.3 3.9 17.1 10.2C13.8 16.5 12.8 24.5 9.7 24.8C6.6 25.1 1.4 17.8 -5 14.9C-11.4 12.1 -18.9 13.7 -23.5 11C-28 8.3 -29.6 1.4 -26.6 -2.8C-23.6 -7.1 -16.1 -8.6 -10.9 -9.6C-5.7 -10.6 -2.9 -11 0.1 -11.2C3.1 -11.3 6.2 -11.2 11.5 -10.3Z" fill="#FDE767"></path></g><g transform="translate(533 249)"><path d="M5 -6.3C6.1 -5 6.5 -3.1 6.1 -1.6C5.7 -0.2 4.5 0.9 3.9 2.4C3.2 4 3.1 6 2.2 6.4C1.4 6.8 -0.1 5.7 -1.6 4.9C-3.1 4.2 -4.5 3.8 -5.3 2.9C-6.1 1.9 -6.2 0.4 -5.9 -1C-5.6 -2.4 -4.9 -3.7 -3.8 -4.9C-2.8 -6.2 -1.4 -7.5 0.3 -7.8C1.9 -8.1 3.9 -7.5 5 -6.3Z" fill="#FDE767"></path></g><g transform="translate(818 191)"><path d="M12.1 -17.5C13.9 -13 12.3 -7.4 14.1 -1.8C16 3.9 21.3 9.6 21.1 14.4C21 19.2 15.4 23 10 22.9C4.7 22.7 -0.3 18.8 -6.2 16.8C-12.1 14.8 -18.9 14.8 -22 11.6C-25.2 8.4 -24.8 2.1 -23.3 -3.7C-21.9 -9.5 -19.3 -14.7 -15.2 -18.8C-11.1 -22.9 -5.6 -25.9 -0.2 -25.6C5.2 -25.4 10.4 -22 12.1 -17.5Z" fill="#FDE767"></path></g><g transform="translate(540 401)"><path d="M14.1 -22.2C16.3 -14.9 14.8 -8.6 14.1 -3.8C13.3 1 13.4 4.4 12.5 8.6C11.7 12.8 10 17.9 6.8 19.3C3.6 20.6 -1.1 18.3 -8.4 17.9C-15.7 17.5 -25.6 19 -29.8 15.4C-34.1 11.8 -32.7 3.1 -30.5 -4.7C-28.3 -12.5 -25.2 -19.4 -20 -26.1C-14.7 -32.8 -7.4 -39.2 -0.7 -38.4C5.9 -37.5 11.9 -29.4 14.1 -22.2Z" fill="#FDE767"></path></g><g transform="translate(645 289)"><path d="M21.3 -22.7C27.1 -20.4 31.2 -13.3 32.3 -5.9C33.3 1.6 31.5 9.4 27.7 16C23.9 22.7 18.1 28.3 12.1 28.4C6.1 28.4 -0.1 23 -5.1 19C-10 15 -13.5 12.4 -15.5 9C-17.4 5.5 -17.8 1.2 -17.2 -3.1C-16.5 -7.4 -14.9 -11.6 -11.9 -14.4C-8.9 -17.2 -4.4 -18.5 1.6 -20.4C7.7 -22.4 15.4 -25 21.3 -22.7Z" fill="#FDE767"></path></g><g transform="translate(590 543)"><path d="M4.1 -5.6C4.8 -4.4 4.4 -2.5 4.9 -0.7C5.4 1.1 6.9 3 6.8 4.7C6.8 6.5 5.2 8.3 3.6 7.9C2.1 7.6 0.5 5.3 -0.7 4C-2 2.7 -2.9 2.5 -3.4 1.8C-4 1.2 -4.1 0.2 -4.6 -1.5C-5.1 -3.3 -6 -5.8 -5.3 -7C-4.6 -8.2 -2.3 -8.1 -0.3 -7.8C1.7 -7.4 3.5 -6.8 4.1 -5.6Z" fill="#FDE767"></path></g><g transform="translate(202 62)"><path d="M4 -4.8C5.2 -3.8 6 -2.5 5.7 -1.4C5.4 -0.4 3.9 0.5 3.2 2C2.5 3.4 2.6 5.4 2.1 5.7C1.5 5.9 0.3 4.2 -0.5 3.2C-1.3 2.1 -1.6 1.6 -2.5 1C-3.5 0.3 -5 -0.4 -4.9 -0.9C-4.9 -1.3 -3.1 -1.5 -2 -2.5C-0.9 -3.4 -0.5 -5.1 0.5 -5.7C1.4 -6.2 2.9 -5.7 4 -4.8Z" fill="#FDE767"></path></g></g></svg>