<svg id="visual" viewBox="0 0 900 600" width="900" height="600" xmlns="http://www.w3.org/2000/svg" xmlns:xlink="http://www.w3.org/1999/xlink" version="1.1"><g><g transform="translate(405 465)"><path d="M10.5 -9.1C12.4 -6 11.8 -1.7 10.7 2.2C9.7 6.1 8 9.7 4.8 12C1.5 14.4 -3.3 15.7 -6.4 13.9C-9.4 12.2 -10.6 7.4 -10.4 3.8C-10.1 0.1 -8.4 -2.6 -6.4 -5.7C-4.4 -8.9 -2.2 -12.5 1.1 -13.3C4.3 -14.2 8.6 -12.2 10.5 -9.1Z" stroke="#ddd" fill="none" stroke-width="1"></path></g><g transform="translate(270 320)"><path d="M1.6 -1.3C1.9 -0.8 1.9 -0.2 1.7 0.3C1.6 0.9 1.2 1.3 0.8 1.5C0.3 1.6 -0.2 1.6 -0.6 1.3C-1.1 1.1 -1.4 0.8 -1.6 0.3C-1.7 -0.1 -1.6 -0.7 -1.3 -1.2C-1 -1.7 -0.5 -2.1 0.1 -2.1C0.6 -2.2 1.2 -1.8 1.6 -1.3Z" stroke="#ddd" fill="none" stroke-width="1"></path></g><g transform="translate(615 167)"><path d="M3.9 -2.6C5.2 -1.6 6.3 0.1 6 1.3C5.6 2.5 3.8 3.3 2.3 3.5C0.9 3.7 -0.3 3.3 -1.2 2.8C-2.2 2.2 -3 1.5 -3.7 0.3C-4.4 -0.9 -5 -2.7 -4.4 -3.6C-3.8 -4.5 -1.9 -4.5 -0.3 -4.3C1.3 -4.1 2.7 -3.6 3.9 -2.6Z" stroke="#ddd" fill="none" stroke-width="1"></path></g><g transform="translate(135 137)"><path d="M2.5 -2C3.2 -1 4 0.1 3.8 0.9C3.7 1.8 2.6 2.6 1.6 3C0.5 3.5 -0.7 3.6 -1.4 3.2C-2.2 2.8 -2.6 1.7 -2.8 0.7C-3 -0.4 -3 -1.4 -2.5 -2.3C-2 -3.3 -1 -4.1 -0.1 -4C0.8 -3.9 1.7 -2.9 2.5 -2Z" stroke="#ddd" fill="none" stroke-width="1"></path></g><g transform="translate(557 35)"><path d="M8.8 -7.6C9.8 -5.7 8.1 -2.1 7.2 1.7C6.4 5.5 6.5 9.7 4.5 11.3C2.6 13 -1.5 12.2 -4.6 10.4C-7.8 8.6 -10.1 5.7 -10.3 2.8C-10.6 0 -8.9 -2.9 -6.8 -5C-4.8 -7.1 -2.4 -8.5 0.7 -9.1C3.9 -9.7 7.7 -9.5 8.8 -7.6Z" stroke="#ddd" fill="none" stroke-width="1"></path></g><g transform="translate(38 395)"><path d="M3.2 -2.2C3.9 -1.6 4.3 -0.3 3.9 0.7C3.5 1.7 2.5 2.3 1.4 2.8C0.3 3.3 -0.9 3.8 -1.7 3.4C-2.6 3.1 -3.1 2 -3.2 0.9C-3.3 -0.1 -2.9 -1.1 -2.3 -1.6C-1.7 -2.2 -0.8 -2.3 0.2 -2.5C1.2 -2.6 2.4 -2.7 3.2 -2.2Z" stroke="#ddd" fill="none" stroke-width="1"></path></g><g transform="translate(654 191)"><path d="M2.2 -2.1C2.5 -1.2 2.4 -0.3 2.3 0.6C2.2 1.6 2 2.7 1.4 2.9C0.9 3.2 0 2.6 -1.1 2.1C-2.1 1.6 -3.3 1.3 -3.4 0.8C-3.6 0.2 -2.7 -0.6 -2 -1.6C-1.2 -2.6 -0.6 -3.8 0.1 -3.9C0.9 -4 1.8 -3.1 2.2 -2.1Z" stroke="#ddd" fill="none" stroke-width="1"></path></g><g transform="translate(485 466)"><path d="M0.8 -0.6C1 -0.4 1 -0.1 1 0.2C0.9 0.5 0.7 0.8 0.4 1.1C0.1 1.3 -0.4 1.5 -0.7 1.4C-1.1 1.3 -1.4 0.8 -1.4 0.4C-1.3 0.1 -1 -0.2 -0.7 -0.4C-0.5 -0.6 -0.2 -0.7 0 -0.7C0.3 -0.8 0.6 -0.7 0.8 -0.6Z" stroke="#ddd" fill="none" stroke-width="1"></path></g><g transform="translate(663 371)"><path d="M1.2 -0.9C1.6 -0.6 1.7 -0.1 1.6 0.3C1.5 0.7 1 1 0.6 1.1C0.1 1.3 -0.3 1.5 -0.6 1.3C-0.9 1.1 -1 0.7 -1.1 0.3C-1.1 -0.2 -1.2 -0.6 -1 -0.8C-0.8 -1.1 -0.4 -1.2 0 -1.3C0.5 -1.3 0.9 -1.2 1.2 -0.9Z" stroke="#ddd" fill="none" stroke-width="1"></path></g><g transform="translate(563 515)"><path d="M9.1 -6.5C11.3 -4.4 12.4 -0.7 11.5 2.4C10.6 5.4 7.7 7.7 4.7 8.8C1.7 9.8 -1.4 9.6 -3.1 8.1C-4.8 6.6 -5 3.9 -6.1 1C-7.1 -2 -8.8 -5.2 -7.9 -7C-7 -8.8 -3.5 -9.3 -0.1 -9.2C3.4 -9.2 6.8 -8.7 9.1 -6.5Z" stroke="#ddd" fill="none" stroke-width="1"></path></g><g transform="translate(215 50)"><path d="M1.2 -0.8C1.6 -0.4 2.2 0.1 2.2 0.7C2.2 1.3 1.7 2 1.1 2.2C0.5 2.5 -0.2 2.3 -0.8 1.9C-1.4 1.5 -1.8 1 -2 0.4C-2.2 -0.3 -2.3 -1.1 -1.9 -1.5C-1.5 -1.9 -0.8 -1.9 -0.2 -1.8C0.4 -1.6 0.7 -1.3 1.2 -0.8Z" stroke="#ddd" fill="none" stroke-width="1"></path></g><g transform="translate(71 478)"><path d="M3.6 -3.2C4.7 -1.4 5.7 0 5.7 1.8C5.7 3.6 4.7 5.7 3.1 6.5C1.5 7.3 -0.8 6.8 -2.4 5.8C-4 4.7 -4.9 3 -5.4 1.1C-5.9 -0.8 -6.1 -2.9 -5.1 -4.6C-4.2 -6.3 -2.1 -7.6 -0.4 -7.2C1.2 -6.9 2.4 -4.9 3.6 -3.2Z" stroke="#ddd" fill="none" stroke-width="1"></path></g><g transform="translate(486 518)"><path d="M2.6 -2.2C3.2 -1.4 3.3 -0.3 3.1 0.8C3 2 2.6 3.2 1.5 4.1C0.4 5.1 -1.3 5.7 -2.7 5.2C-4.1 4.7 -5.3 3.1 -5.6 1.4C-5.9 -0.3 -5.4 -2.1 -4.4 -3.1C-3.3 -4 -1.6 -4.1 -0.3 -3.8C1 -3.6 2.1 -3 2.6 -2.2Z" stroke="#ddd" fill="none" stroke-width="1"></path></g><g transform="translate(752 431)"><path d="M5.4 -4.2C6.8 -2.6 7.6 -0.3 6.9 1.2C6.2 2.7 4.1 3.5 2 4.7C-0.1 5.9 -2.2 7.5 -3.8 7.1C-5.3 6.6 -6.2 4.1 -6.3 2C-6.3 -0.1 -5.4 -1.9 -4.2 -3.5C-3 -5.1 -1.5 -6.5 0.2 -6.7C2 -6.9 4 -5.8 5.4 -4.2Z" stroke="#ddd" fill="none" stroke-width="1"></path></g><g transform="translate(780 248)"><path d="M5.1 -4.7C5.8 -3.1 5.1 -1 4.3 0.4C3.5 1.8 2.6 2.7 1.3 3.6C0.1 4.5 -1.5 5.5 -2.6 5.1C-3.6 4.7 -4.1 2.9 -4.3 1.2C-4.6 -0.5 -4.6 -2.1 -3.8 -3.7C-3.1 -5.3 -1.5 -6.9 0.3 -7.2C2.2 -7.4 4.3 -6.3 5.1 -4.7Z" stroke="#ddd" fill="none" stroke-width="1"></path></g><g transform="translate(690 138)"><path d="M10.6 -8C12.8 -5.8 12.8 -1.4 11.5 2.1C10.3 5.5 7.7 8.2 5.1 8.7C2.4 9.3 -0.3 7.8 -3.7 6.6C-7 5.3 -11 4.4 -11.7 2.4C-12.4 0.3 -9.8 -2.7 -7.3 -5C-4.8 -7.2 -2.4 -8.7 0.9 -9.4C4.2 -10.1 8.5 -10.1 10.6 -8Z" stroke="#ddd" fill="none" stroke-width="1"></path></g><g transform="translate(137 576)"><path d="M2.7 -2C3.5 -1.1 4.3 0 4.1 1C4 2 2.9 2.9 1.6 3.5C0.4 4.1 -1 4.5 -1.8 4C-2.6 3.5 -2.8 2.1 -3.1 0.8C-3.3 -0.5 -3.5 -1.8 -3 -2.6C-2.5 -3.4 -1.3 -3.8 -0.2 -3.6C0.9 -3.5 1.9 -2.9 2.7 -2Z" stroke="#ddd" fill="none" stroke-width="1"></path></g><g transform="translate(274 86)"><path d="M9.6 -6.6C11.9 -4.9 12.6 -0.9 11.3 1.9C10.1 4.7 7 6.3 4.1 7.1C1.3 7.9 -1.2 7.8 -4.3 7C-7.3 6.3 -10.8 4.8 -11.2 2.7C-11.5 0.6 -8.7 -2 -6.3 -3.7C-3.9 -5.5 -1.9 -6.4 0.9 -7.1C3.7 -7.8 7.4 -8.3 9.6 -6.6Z" stroke="#ddd" fill="none" stroke-width="1"></path></g><g transform="translate(784 554)"><path d="M1.3 -0.8C1.8 -0.4 2.4 0.1 2.3 0.6C2.3 1 1.5 1.3 0.8 1.6C0.1 1.8 -0.5 2.1 -1.2 2C-1.9 1.8 -2.6 1.3 -2.8 0.6C-2.9 -0.1 -2.5 -0.9 -2 -1.3C-1.4 -1.7 -0.7 -1.7 -0.2 -1.6C0.4 -1.5 0.8 -1.2 1.3 -0.8Z" stroke="#ddd" fill="none" stroke-width="1"></path></g><g transform="translate(783 84)"><path d="M5.7 -3.9C7.8 -1.9 10.2 0.5 9.6 2C9.1 3.6 5.8 4.3 3 5.2C0.2 6.1 -1.9 7.3 -3.7 6.8C-5.4 6.3 -6.6 4 -7.5 1.4C-8.4 -1.3 -8.9 -4.4 -7.5 -6.2C-6.2 -8 -3.1 -8.6 -0.7 -8C1.8 -7.5 3.6 -5.9 5.7 -3.9Z" stroke="#ddd" fill="none" stroke-width="1"></path></g><g transform="translate(415 43)"><path d="M4.4 -3.5C5.6 -2 6.3 -0.2 5.9 1.2C5.5 2.6 3.9 3.6 2.4 4C0.9 4.3 -0.5 4.1 -1.6 3.5C-2.8 2.9 -3.8 2 -4.5 0.5C-5.3 -0.9 -5.7 -2.9 -4.9 -4.3C-4.1 -5.7 -2.1 -6.5 -0.2 -6.3C1.6 -6.1 3.2 -5 4.4 -3.5Z" stroke="#ddd" fill="none" stroke-width="1"></path></g><g transform="translate(818 202)"><path d="M3.5 -2.6C4.3 -1.9 4.4 -0.4 4 0.7C3.6 1.9 2.7 2.8 1.7 3.1C0.7 3.4 -0.3 3.1 -1.2 2.7C-2 2.2 -2.7 1.5 -2.8 0.7C-3 -0.2 -2.8 -1.1 -2.2 -1.8C-1.7 -2.5 -0.8 -3 0.3 -3.2C1.4 -3.5 2.8 -3.4 3.5 -2.6Z" stroke="#ddd" fill="none" stroke-width="1"></path></g><g transform="translate(744 542)"><path d="M1.7 -1.2C2.3 -0.6 2.9 0.1 2.8 0.6C2.7 1.1 1.7 1.3 0.9 1.6C0.1 1.9 -0.6 2.3 -1.1 2.1C-1.6 2 -2 1.3 -2.1 0.5C-2.3 -0.2 -2.2 -1 -1.8 -1.5C-1.4 -2.1 -0.7 -2.5 -0.1 -2.5C0.5 -2.4 1.1 -1.8 1.7 -1.2Z" stroke="#ddd" fill="none" stroke-width="1"></path></g><g transform="translate(346 502)"><path d="M4.6 -4.3C5.5 -2.6 5.5 -0.7 5.2 1.5C5 3.7 4.6 6.3 3 7.6C1.3 9 -1.6 9.1 -3.1 7.8C-4.6 6.6 -4.7 3.8 -5.4 1.1C-6.2 -1.7 -7.6 -4.4 -6.8 -6.1C-6 -7.8 -3 -8.5 -0.6 -8C1.9 -7.6 3.7 -6 4.6 -4.3Z" stroke="#ddd" fill="none" stroke-width="1"></path></g><g transform="translate(282 162)"><path d="M3.2 -2.7C3.7 -1.9 3.4 -0.6 3.1 0.6C2.7 1.9 2.4 3.1 1.5 3.7C0.6 4.4 -0.9 4.6 -2.3 4.2C-3.8 3.7 -5.3 2.6 -5.5 1.3C-5.7 0 -4.7 -1.5 -3.6 -2.3C-2.5 -3.2 -1.2 -3.5 0.1 -3.5C1.4 -3.6 2.7 -3.4 3.2 -2.7Z" stroke="#ddd" fill="none" stroke-width="1"></path></g><g transform="translate(158 407)"><path d="M9.3 -7.3C10.7 -5.5 9.9 -1.7 8.7 1.5C7.6 4.8 6.3 7.5 3.8 9.2C1.3 10.9 -2.3 11.5 -5.5 10.4C-8.7 9.2 -11.6 6.3 -11.6 3.5C-11.6 0.6 -8.7 -2 -6.3 -4C-3.9 -5.9 -1.9 -7.2 1 -8C3.9 -8.8 7.8 -9 9.3 -7.3Z" stroke="#ddd" fill="none" stroke-width="1"></path></g><g transform="translate(124 365)"><path d="M5.1 -4.3C5.8 -3.1 5.1 -1.1 4.7 1.1C4.2 3.3 4 5.6 2.8 6.5C1.6 7.4 -0.7 6.8 -2.4 5.7C-4 4.6 -5.1 3 -5.4 1.3C-5.7 -0.4 -5.3 -2.1 -4.2 -3.3C-3.2 -4.5 -1.6 -5.1 0.3 -5.4C2.2 -5.6 4.4 -5.4 5.1 -4.3Z" stroke="#ddd" fill="none" stroke-width="1"></path></g><g transform="translate(657 72)"><path d="M5.3 -4.3C6.4 -2.8 6.6 -0.6 6.4 1.9C6.2 4.5 5.6 7.3 4 7.9C2.5 8.5 0.1 6.7 -2 5.3C-4 3.9 -5.7 2.8 -6.2 1.3C-6.7 -0.3 -5.9 -2.2 -4.7 -3.8C-3.5 -5.3 -1.7 -6.4 0.2 -6.5C2.1 -6.7 4.1 -5.8 5.3 -4.3Z" stroke="#ddd" fill="none" stroke-width="1"></path></g><g transform="translate(607 229)"><path d="M2.8 -1.9C3.6 -1.1 4.4 0 4.5 1.5C4.5 2.9 3.8 4.6 2.7 4.8C1.6 5 0.2 3.7 -0.8 2.8C-1.9 1.9 -2.7 1.3 -3.2 0.3C-3.8 -0.7 -4.2 -2.2 -3.6 -2.9C-3 -3.6 -1.5 -3.6 -0.3 -3.3C0.9 -3.1 1.9 -2.7 2.8 -1.9Z" stroke="#ddd" fill="none" stroke-width="1"></path></g><g transform="translate(706 176)"><path d="M10.2 -7.6C12.4 -5.4 12.7 -1.2 11.8 2.7C10.9 6.5 8.7 10.1 5.8 11.3C2.8 12.4 -1 11.1 -4.6 9.4C-8.1 7.7 -11.5 5.6 -12.5 2.5C-13.4 -0.5 -11.9 -4.4 -9.4 -6.7C-6.9 -8.9 -3.5 -9.5 0.3 -9.7C4 -9.9 8 -9.8 10.2 -7.6Z" stroke="#ddd" fill="none" stroke-width="1"></path></g><g transform="translate(425 318)"><path d="M0.8 -0.7C0.9 -0.4 1 -0.1 0.9 0.2C0.9 0.5 0.7 0.8 0.4 0.9C0.2 1 -0.2 1.1 -0.5 0.9C-0.8 0.8 -1.1 0.6 -1.2 0.2C-1.3 -0.1 -1.2 -0.5 -1 -0.8C-0.8 -1.2 -0.4 -1.4 0 -1.4C0.3 -1.3 0.6 -1 0.8 -0.7Z" stroke="#ddd" fill="none" stroke-width="1"></path></g><g transform="translate(82 381)"><path d="M7.1 -6.2C8 -4.5 6.8 -1.6 5.6 0.4C4.4 2.4 3.4 3.6 1.5 5.3C-0.3 7.1 -3 9.4 -4.7 8.9C-6.4 8.4 -7.2 5.1 -7.3 2.3C-7.3 -0.4 -6.7 -2.7 -5.4 -4.4C-4.1 -6.1 -2 -7.4 0.5 -7.8C3.1 -8.2 6.2 -7.8 7.1 -6.2Z" stroke="#ddd" fill="none" stroke-width="1"></path></g><g transform="translate(312 350)"><path d="M5.7 -5.8C6.8 -3.2 6.6 -0.9 6.3 1.9C6 4.6 5.6 7.8 3.8 9.1C2.1 10.3 -1.2 9.7 -3.8 8.3C-6.5 6.9 -8.7 4.7 -9.1 2.2C-9.5 -0.2 -8.3 -2.9 -6.5 -5.6C-4.7 -8.4 -2.3 -11.1 0 -11.1C2.3 -11.1 4.7 -8.4 5.7 -5.8Z" stroke="#ddd" fill="none" stroke-width="1"></path></g><g transform="translate(282 472)"><path d="M6.8 -5.7C7.8 -4.2 6.7 -1.5 6 1.3C5.3 4 5 6.8 3.6 7.4C2.2 8.1 -0.2 6.7 -2.5 5.5C-4.8 4.3 -7 3.2 -8.1 1.1C-9.3 -1.1 -9.3 -4.2 -7.7 -5.8C-6.2 -7.4 -3.1 -7.4 -0.1 -7.3C2.9 -7.2 5.9 -7.1 6.8 -5.7Z" stroke="#ddd" fill="none" stroke-width="1"></path></g><g transform="translate(64 308)"><path d="M5.5 -4.4C6.5 -3 6.4 -0.8 5.7 0.9C5 2.5 3.6 3.7 1.9 4.7C0.3 5.8 -1.8 6.9 -3.2 6.3C-4.6 5.7 -5.4 3.6 -5.5 1.7C-5.5 -0.1 -4.8 -1.7 -3.7 -3.1C-2.7 -4.4 -1.3 -5.7 0.4 -6C2.2 -6.4 4.4 -5.8 5.5 -4.4Z" stroke="#ddd" fill="none" stroke-width="1"></path></g><g transform="translate(480 304)"><path d="M5.4 -4C7.1 -2.1 8.7 0.1 8.5 2.3C8.3 4.4 6.2 6.5 4.1 6.9C2 7.3 -0.2 6.1 -1.9 4.9C-3.5 3.7 -4.7 2.5 -5.4 0.8C-6.1 -0.9 -6.4 -3.1 -5.4 -4.8C-4.5 -6.5 -2.2 -7.6 -0.2 -7.5C1.8 -7.3 3.7 -5.8 5.4 -4Z" stroke="#ddd" fill="none" stroke-width="1"></path></g><g transform="translate(307 55)"><path d="M5.6 -5.4C6.4 -3.5 5.7 -1.2 5.2 1.2C4.7 3.6 4.4 6.2 3.2 6.9C1.9 7.6 -0.4 6.6 -2.6 5.5C-4.9 4.4 -7.1 3.3 -7.8 1.4C-8.5 -0.4 -7.7 -3 -6.2 -5C-4.6 -7.1 -2.3 -8.7 0.1 -8.7C2.4 -8.8 4.8 -7.3 5.6 -5.4Z" stroke="#ddd" fill="none" stroke-width="1"></path></g><g transform="translate(70 187)"><path d="M7.2 -6.4C8.2 -4.6 6.9 -1.6 6.4 1.7C5.8 5.1 6 8.8 4.3 10C2.7 11.1 -0.6 9.6 -2.9 7.8C-5.2 6 -6.4 3.9 -6.7 1.8C-7 -0.3 -6.3 -2.4 -5 -4.3C-3.7 -6.2 -1.9 -7.9 0.6 -8.4C3.1 -8.9 6.3 -8.2 7.2 -6.4Z" stroke="#ddd" fill="none" stroke-width="1"></path></g><g transform="translate(372 130)"><path d="M2 -2.1C2.6 -0.8 3.1 0 3.2 1.2C3.3 2.4 3 4 2.1 4.3C1.3 4.7 0 3.8 -1.3 3C-2.6 2.3 -3.7 1.7 -4.3 0.6C-4.8 -0.4 -4.6 -2 -3.8 -3.3C-3 -4.5 -1.5 -5.5 -0.4 -5.2C0.7 -4.9 1.4 -3.3 2 -2.1Z" stroke="#ddd" fill="none" stroke-width="1"></path></g><g transform="translate(676 465)"><path d="M7.2 -6.4C8.2 -4.4 7.1 -1.5 6.1 0.7C5 2.9 3.9 4.3 2.3 5.3C0.7 6.3 -1.4 6.8 -3.8 6.3C-6.2 5.7 -8.9 4.2 -9.5 2C-10.2 -0.2 -8.8 -3.1 -6.9 -5.3C-5 -7.5 -2.5 -9 0.3 -9.3C3.1 -9.5 6.2 -8.4 7.2 -6.4Z" stroke="#ddd" fill="none" stroke-width="1"></path></g><g transform="translate(612 69)"><path d="M2.8 -2.1C3.4 -1.5 3.6 -0.3 3.2 0.5C2.8 1.3 1.9 1.7 1 2.2C0.1 2.7 -0.9 3.2 -1.3 2.9C-1.8 2.6 -1.9 1.5 -1.9 0.6C-2 -0.3 -2 -0.9 -1.7 -1.5C-1.4 -2.1 -0.7 -2.5 0.2 -2.7C1.1 -2.9 2.2 -2.8 2.8 -2.1Z" stroke="#ddd" fill="none" stroke-width="1"></path></g><g transform="translate(782 466)"><path d="M1.9 -1.5C2.2 -1.1 2.1 -0.3 1.9 0.2C1.6 0.8 1.1 1.1 0.6 1.4C0.1 1.7 -0.5 2 -1.1 1.9C-1.7 1.8 -2.2 1.2 -2.3 0.6C-2.4 0 -2 -0.6 -1.5 -1.1C-1.1 -1.6 -0.5 -2 0.1 -2C0.8 -2.1 1.5 -2 1.9 -1.5Z" stroke="#ddd" fill="none" stroke-width="1"></path></g><g transform="translate(166 225)"><path d="M8.9 -6.1C11 -4.4 12 -0.7 10.7 1.6C9.5 3.9 6.2 4.9 3.1 6.2C0.1 7.6 -2.6 9.4 -4.6 8.7C-6.5 8.1 -7.6 5.1 -8.5 1.8C-9.3 -1.4 -9.7 -4.8 -8.3 -6.3C-6.8 -7.8 -3.4 -7.4 0 -7.4C3.4 -7.4 6.7 -7.7 8.9 -6.1Z" stroke="#ddd" fill="none" stroke-width="1"></path></g><g transform="translate(533 483)"><path d="M6.1 -5.3C7.3 -3.5 7 -1 6.2 0.9C5.3 2.7 3.8 3.8 1.8 5.5C-0.3 7.2 -2.9 9.4 -5.4 9.1C-7.8 8.7 -10 5.7 -10 3.1C-9.9 0.4 -7.6 -1.9 -5.6 -3.9C-3.6 -6 -1.8 -7.7 0.4 -8C2.5 -8.2 5 -7.1 6.1 -5.3Z" stroke="#ddd" fill="none" stroke-width="1"></path></g><g transform="translate(51 21)"><path d="M6.7 -5.1C8.5 -3.2 9.5 -0.4 8.9 2.1C8.4 4.5 6.3 6.7 3.6 8.4C0.9 10.1 -2.6 11.2 -5.3 10.2C-8 9.2 -10 6 -10.4 2.7C-10.9 -0.5 -9.8 -3.7 -7.8 -5.7C-5.8 -7.8 -2.9 -8.6 -0.2 -8.5C2.5 -8.3 5 -7.1 6.7 -5.1Z" stroke="#ddd" fill="none" stroke-width="1"></path></g><g transform="translate(179 521)"><path d="M3.3 -2.6C4.2 -1.4 4.9 -0.1 4.7 1.1C4.4 2.3 3.2 3.2 1.9 3.7C0.7 4.2 -0.7 4.3 -1.5 3.7C-2.4 3.1 -2.6 1.9 -3 0.6C-3.3 -0.7 -3.7 -2 -3.2 -3C-2.7 -4.1 -1.4 -5 -0.1 -4.9C1.2 -4.8 2.3 -3.8 3.3 -2.6Z" stroke="#ddd" fill="none" stroke-width="1"></path></g><g transform="translate(481 68)"><path d="M2.4 -1.5C3.5 -0.7 4.8 0.4 4.9 1.6C5 2.7 3.8 4.1 2.3 4.9C0.7 5.7 -1.1 5.9 -2.5 5.2C-3.8 4.6 -4.7 2.9 -4.6 1.5C-4.6 0.1 -3.7 -1 -2.7 -1.9C-1.8 -2.7 -0.9 -3.2 -0.1 -3.2C0.7 -3.1 1.4 -2.4 2.4 -1.5Z" stroke="#ddd" fill="none" stroke-width="1"></path></g><g transform="translate(454 237)"><path d="M4.6 -3.9C5.9 -2 7 -0.1 6.6 1.4C6.1 2.8 4.2 3.7 2.3 4.6C0.3 5.5 -1.6 6.4 -2.6 5.8C-3.7 5.1 -3.9 3 -4.3 1C-4.8 -1 -5.5 -3 -4.8 -4.7C-4.1 -6.5 -2.1 -8 -0.2 -7.8C1.6 -7.6 3.2 -5.7 4.6 -3.9Z" stroke="#ddd" fill="none" stroke-width="1"></path></g><g transform="translate(405 223)"><path d="M7.5 -6.2C8.4 -4.9 6.9 -1.8 6.1 1.3C5.3 4.4 5.3 7.6 3.9 8.3C2.6 9 0 7.2 -2.8 5.8C-5.6 4.5 -8.5 3.5 -9 1.9C-9.5 0.3 -7.6 -2.1 -5.7 -3.6C-3.7 -5.2 -1.9 -5.9 0.7 -6.5C3.3 -7.1 6.6 -7.5 7.5 -6.2Z" stroke="#ddd" fill="none" stroke-width="1"></path></g><g transform="translate(387 518)"><path d="M9.6 -7.6C11.1 -5.8 10.1 -1.8 8.8 1.3C7.5 4.4 5.9 6.7 3.5 8.3C1.1 9.8 -2.2 10.6 -5.1 9.6C-8 8.6 -10.6 5.8 -11.7 2.3C-12.9 -1.3 -12.6 -5.6 -10.5 -7.6C-8.3 -9.5 -4.1 -9.2 0 -9.2C4 -9.1 8.1 -9.4 9.6 -7.6Z" stroke="#ddd" fill="none" stroke-width="1"></path></g><g transform="translate(40 516)"><path d="M1.4 -1.3C1.6 -0.8 1.5 -0.3 1.4 0.4C1.3 1 1.2 1.7 0.9 1.9C0.6 2 0.1 1.5 -0.4 1.2C-1 0.8 -1.4 0.6 -1.6 0.3C-1.7 0 -1.4 -0.5 -1.1 -0.9C-0.8 -1.4 -0.4 -1.9 0.1 -2C0.6 -2 1.2 -1.7 1.4 -1.3Z" stroke="#ddd" fill="none" stroke-width="1"></path></g><g transform="translate(591 556)"><path d="M3.5 -2.9C4.2 -1.8 4.4 -0.4 4 0.7C3.6 1.8 2.6 2.6 1.5 3.2C0.3 3.8 -1 4.3 -2.5 4C-4 3.7 -5.7 2.7 -6.3 1.1C-6.9 -0.4 -6.4 -2.6 -5.2 -3.8C-3.9 -4.9 -2 -5.2 -0.3 -4.9C1.4 -4.7 2.7 -4 3.5 -2.9Z" stroke="#ddd" fill="none" stroke-width="1"></path></g><g transform="translate(66 80)"><path d="M11.2 -8.5C13 -6.6 12 -2 10.4 1.4C8.8 4.7 6.6 7 3.9 8.3C1.3 9.6 -1.9 10 -5.2 9.1C-8.5 8.1 -11.9 5.8 -13.1 2.4C-14.4 -1 -13.4 -5.5 -10.9 -7.6C-8.3 -9.7 -4.2 -9.4 0.3 -9.6C4.7 -9.8 9.3 -10.5 11.2 -8.5Z" stroke="#ddd" fill="none" stroke-width="1"></path></g><g transform="translate(720 320)"><path d="M3.9 -3C4.9 -1.9 5.5 -0.3 5 0.9C4.6 2.1 3.1 2.8 1.6 3.6C0.1 4.4 -1.4 5.3 -2.5 4.9C-3.6 4.5 -4.2 2.8 -4.1 1.4C-4 0.1 -3.2 -0.9 -2.4 -2C-1.6 -3.1 -0.8 -4.3 0.3 -4.6C1.5 -4.9 2.9 -4.2 3.9 -3Z" stroke="#ddd" fill="none" stroke-width="1"></path></g><g transform="translate(829 299)"><path d="M1 -0.8C1.2 -0.6 1.2 -0.2 1.1 0.3C1 0.7 0.9 1.1 0.6 1.3C0.2 1.5 -0.3 1.5 -0.6 1.3C-0.9 1.1 -1.1 0.7 -1.2 0.3C-1.2 -0.1 -1.1 -0.5 -0.9 -0.7C-0.7 -1 -0.4 -1.1 0 -1.2C0.4 -1.2 0.8 -1.1 1 -0.8Z" stroke="#ddd" fill="none" stroke-width="1"></path></g><g transform="translate(560 360)"><path d="M5.5 -5.1C6.7 -2.8 7.1 -0.6 6.4 1.1C5.7 2.7 4 3.7 1.9 5.1C-0.2 6.6 -2.6 8.5 -4 8C-5.4 7.4 -5.8 4.4 -5.7 2.1C-5.6 -0.3 -5.1 -1.9 -4 -4.2C-3 -6.4 -1.5 -9.1 0.3 -9.4C2.1 -9.6 4.3 -7.4 5.5 -5.1Z" stroke="#ddd" fill="none" stroke-width="1"></path></g><g transform="translate(349 207)"><path d="M4.4 -4.3C5.1 -2.5 4.9 -0.7 4.3 0.7C3.7 2.1 2.8 3.1 1.5 4C0.2 5 -1.5 5.8 -3 5.4C-4.6 5 -5.9 3.3 -6.1 1.6C-6.3 -0.1 -5.4 -1.9 -4.2 -3.7C-3 -5.5 -1.5 -7.5 0.1 -7.6C1.8 -7.7 3.6 -6 4.4 -4.3Z" stroke="#ddd" fill="none" stroke-width="1"></path></g><g transform="translate(348 315)"><path d="M8.4 -7.4C9.7 -5.1 8.8 -1.6 7.5 0.7C6.1 3.1 4.4 4.4 2.5 5.4C0.6 6.3 -1.5 7 -4.2 6.6C-6.9 6.1 -10.2 4.6 -11.2 2C-12.3 -0.6 -11.2 -4.3 -8.9 -6.9C-6.7 -9.5 -3.4 -11 0.1 -11.1C3.6 -11.2 7.1 -9.8 8.4 -7.4Z" stroke="#ddd" fill="none" stroke-width="1"></path></g><g transform="translate(404 267)"><path d="M2.4 -1.8C3 -1.1 3.5 -0.1 3.3 0.7C3 1.4 2.1 2 1.3 2.1C0.5 2.2 -0.2 2 -1 1.7C-1.9 1.5 -2.9 1.2 -3.2 0.6C-3.5 0 -2.9 -1 -2.3 -1.8C-1.6 -2.6 -0.8 -3.2 0 -3.2C0.9 -3.2 1.7 -2.6 2.4 -1.8Z" stroke="#ddd" fill="none" stroke-width="1"></path></g><g transform="translate(418 185)"><path d="M7.8 -6C9.7 -3.8 10.6 -0.6 9.8 2C9.1 4.6 6.6 6.7 4.1 7.4C1.6 8.2 -0.9 7.7 -2.7 6.5C-4.5 5.3 -5.5 3.4 -6 1.3C-6.5 -0.7 -6.5 -2.9 -5.4 -4.9C-4.3 -7 -2.1 -8.8 0.4 -9.1C2.9 -9.4 5.9 -8.2 7.8 -6Z" stroke="#ddd" fill="none" stroke-width="1"></path></g><g transform="translate(853 384)"><path d="M3 -3C3.6 -1.6 3.6 -0.4 3.4 0.8C3.1 1.9 2.5 2.9 1.3 3.9C0.2 4.9 -1.5 5.8 -2.6 5.3C-3.7 4.9 -4.2 3 -4.2 1.4C-4.1 -0.1 -3.6 -1.2 -2.8 -2.7C-2 -4.1 -1 -5.8 0.1 -5.8C1.2 -5.9 2.4 -4.4 3 -3Z" stroke="#ddd" fill="none" stroke-width="1"></path></g><g transform="translate(236 517)"><path d="M3.9 -3.1C5.3 -1.3 7 0.4 6.9 1.9C6.8 3.5 5 5 3 5.9C1 6.7 -1.2 6.9 -2.5 6C-3.7 5.1 -4.1 3 -4.4 1.1C-4.7 -0.8 -5 -2.5 -4.3 -4.2C-3.6 -5.8 -1.8 -7.4 -0.3 -7.2C1.2 -6.9 2.4 -4.9 3.9 -3.1Z" stroke="#ddd" fill="none" stroke-width="1"></path></g><g transform="translate(80 441)"><path d="M5.5 -4C6.7 -3 6.8 -0.7 6.2 1.2C5.6 3.1 4.3 4.7 2.5 5.8C0.7 7 -1.7 7.7 -2.8 6.8C-3.9 5.9 -3.8 3.4 -4.4 0.9C-5 -1.5 -6.3 -3.8 -5.7 -4.7C-5.1 -5.5 -2.6 -5 -0.2 -4.8C2.2 -4.7 4.4 -5 5.5 -4Z" stroke="#ddd" fill="none" stroke-width="1"></path></g><g transform="translate(833 79)"><path d="M6.2 -4.7C8 -2.7 9.4 -0.1 9 2.4C8.7 4.8 6.7 7.2 4.3 8.1C1.9 8.9 -0.8 8.2 -3.7 7C-6.6 5.9 -9.6 4.4 -10 2.3C-10.4 0.3 -8.3 -2.3 -6.2 -4.4C-4.1 -6.4 -2.1 -8 0.1 -8C2.2 -8.1 4.4 -6.7 6.2 -4.7Z" stroke="#ddd" fill="none" stroke-width="1"></path></g><g transform="translate(585 434)"><path d="M6.5 -4.7C8 -3.4 8.3 -0.7 7.6 1.6C7 3.9 5.4 5.8 3.4 6.7C1.3 7.6 -1.1 7.4 -3.3 6.5C-5.6 5.5 -7.7 3.9 -7.9 2.1C-8.1 0.3 -6.3 -1.7 -4.7 -3C-3.1 -4.3 -1.5 -4.9 0.5 -5.3C2.6 -5.7 5.1 -5.9 6.5 -4.7Z" stroke="#ddd" fill="none" stroke-width="1"></path></g><g transform="translate(26 129)"><path d="M5.1 -3.6C6.7 -2.2 8 0 8 2.5C7.9 5.1 6.6 8 4.2 9.6C1.7 11.1 -1.9 11.3 -4.6 9.8C-7.3 8.4 -9.1 5.5 -9.6 2.5C-10 -0.5 -9.1 -3.6 -7.3 -5C-5.5 -6.5 -2.7 -6.4 -0.5 -6C1.8 -5.6 3.6 -4.9 5.1 -3.6Z" stroke="#ddd" fill="none" stroke-width="1"></path></g><g transform="translate(510 215)"><path d="M7.4 -6.4C8.4 -4.6 7.3 -1.6 6.4 1.1C5.5 3.8 4.8 6.1 3.3 6.7C1.9 7.4 -0.3 6.3 -2.1 5.1C-3.9 4 -5.2 2.7 -5.7 1.1C-6.2 -0.5 -5.8 -2.4 -4.7 -4.3C-3.6 -6.1 -1.8 -7.9 0.7 -8.4C3.2 -8.9 6.3 -8.3 7.4 -6.4Z" stroke="#ddd" fill="none" stroke-width="1"></path></g><g transform="translate(684 534)"><path d="M1 -0.9C1.2 -0.5 1.2 -0.1 1.1 0.2C1 0.6 0.8 1 0.5 1.2C0.2 1.5 -0.3 1.6 -0.6 1.4C-0.8 1.2 -0.8 0.7 -0.9 0.2C-1 -0.3 -1.2 -0.7 -1.1 -1C-0.9 -1.3 -0.5 -1.4 0 -1.4C0.4 -1.4 0.8 -1.2 1 -0.9Z" stroke="#ddd" fill="none" stroke-width="1"></path></g><g transform="translate(277 277)"><path d="M7 -4.9C8.9 -3.2 10.2 -0.3 9.7 2.3C9.2 5 6.9 7.3 4.5 7.9C2.1 8.5 -0.5 7.4 -2.2 6C-3.9 4.6 -4.8 3 -5.3 1.2C-5.7 -0.7 -5.7 -2.6 -4.8 -4.1C-3.8 -5.6 -1.9 -6.7 0.3 -7C2.5 -7.2 5.1 -6.7 7 -4.9Z" stroke="#ddd" fill="none" stroke-width="1"></path></g><g transform="translate(188 467)"><path d="M6.9 -5.3C8 -4.1 7.4 -1.3 6.6 1.2C5.7 3.6 4.8 5.7 3 6.9C1.2 8 -1.4 8.2 -2.8 7C-4.1 5.9 -4.3 3.4 -4.8 1.1C-5.3 -1.2 -6.3 -3.5 -5.5 -4.7C-4.8 -5.8 -2.4 -5.8 0.2 -6C2.9 -6.2 5.8 -6.6 6.9 -5.3Z" stroke="#ddd" fill="none" stroke-width="1"></path></g><g transform="translate(582 269)"><path d="M6.6 -5.3C8.4 -2.9 9.7 -0.2 8.9 1.5C8.1 3.1 5.1 3.8 2.7 4.6C0.2 5.4 -1.7 6.4 -3.5 6C-5.3 5.6 -7.1 3.8 -7.5 1.9C-7.8 -0.1 -6.7 -2.3 -5.2 -4.5C-3.7 -6.7 -1.8 -9 0.3 -9.2C2.4 -9.5 4.8 -7.6 6.6 -5.3Z" stroke="#ddd" fill="none" stroke-width="1"></path></g><g transform="translate(213 378)"><path d="M7.4 -6.7C8.7 -4.2 8.4 -1.2 7.8 1.9C7.2 5 6.3 8.1 4.3 9.2C2.3 10.3 -0.9 9.4 -3.4 7.9C-6 6.4 -7.8 4.3 -9.2 1.3C-10.5 -1.7 -11.2 -5.6 -9.6 -8.2C-8 -10.8 -4 -12.1 -0.5 -11.7C3 -11.3 6 -9.2 7.4 -6.7Z" stroke="#ddd" fill="none" stroke-width="1"></path></g><g transform="translate(812 496)"><path d="M6.7 -4.9C8.5 -3.2 9.4 -0.4 8.9 2.2C8.4 4.7 6.5 7.1 4.3 7.6C2.2 8.1 -0.2 6.7 -2.2 5.4C-4.3 4.1 -6 3 -6.4 1.4C-6.8 -0.1 -5.8 -2 -4.5 -3.6C-3.2 -5.2 -1.6 -6.5 0.4 -6.9C2.5 -7.2 5 -6.6 6.7 -4.9Z" stroke="#ddd" fill="none" stroke-width="1"></path></g><g transform="translate(786 151)"><path d="M1.9 -1.8C2.4 -0.9 2.6 -0.1 2.7 1.2C2.9 2.4 2.9 4.2 2.1 4.8C1.2 5.4 -0.4 4.9 -1.9 4.1C-3.5 3.3 -4.8 2.4 -4.9 1.3C-5.1 0.2 -3.9 -1 -2.9 -2C-1.9 -3 -0.9 -3.8 -0.1 -3.7C0.7 -3.6 1.4 -2.7 1.9 -1.8Z" stroke="#ddd" fill="none" stroke-width="1"></path></g><g transform="translate(744 370)"><path d="M6.5 -6.6C8 -3.4 8.3 -0.7 7.7 1.7C7.1 4 5.5 6.1 3 8.1C0.4 10.1 -3.2 12 -5.1 10.9C-7.1 9.9 -7.6 5.9 -7.5 2.7C-7.5 -0.5 -7 -2.9 -5.7 -6C-4.3 -9.2 -2.2 -13.2 0.2 -13.4C2.5 -13.5 5.1 -9.8 6.5 -6.6Z" stroke="#ddd" fill="none" stroke-width="1"></path></g><g transform="translate(627 399)"><path d="M2.5 -1.8C3.1 -1.4 3.2 -0.3 2.8 0.4C2.5 1.1 1.7 1.6 1 1.8C0.3 2 -0.4 2.1 -1 1.9C-1.5 1.7 -2 1.1 -2.2 0.4C-2.4 -0.2 -2.3 -1 -1.9 -1.5C-1.5 -1.9 -0.8 -2 0.1 -2.1C1 -2.2 2 -2.3 2.5 -1.8Z" stroke="#ddd" fill="none" stroke-width="1"></path></g><g transform="translate(464 352)"><path d="M0.7 -0.6C1 -0.3 1.2 0 1.2 0.3C1.1 0.7 0.9 1 0.6 1.1C0.3 1.2 0 1 -0.3 0.8C-0.6 0.6 -0.9 0.4 -1.1 0.2C-1.2 -0.1 -1.2 -0.5 -1 -0.8C-0.8 -1.1 -0.4 -1.4 -0.1 -1.3C0.2 -1.3 0.5 -0.9 0.7 -0.6Z" stroke="#ddd" fill="none" stroke-width="1"></path></g><g transform="translate(515 573)"><path d="M5.7 -5.2C7.2 -2.7 7.9 -0.4 7.5 1.9C7.2 4.1 5.6 6.3 3.4 7.4C1.3 8.6 -1.5 8.7 -3.1 7.5C-4.7 6.4 -5.1 3.8 -6 1C-6.9 -1.7 -8.3 -4.7 -7.4 -7C-6.5 -9.3 -3.2 -10.9 -0.5 -10.5C2.1 -10.1 4.3 -7.6 5.7 -5.2Z" stroke="#ddd" fill="none" stroke-width="1"></path></g><g transform="translate(471 413)"><path d="M1.1 -0.8C1.4 -0.5 1.5 -0.1 1.4 0.3C1.3 0.6 0.9 0.9 0.6 1C0.2 1.1 -0.1 1 -0.4 0.9C-0.7 0.7 -1 0.5 -1.1 0.2C-1.1 0 -1 -0.4 -0.8 -0.6C-0.6 -0.9 -0.3 -1.1 0.1 -1.1C0.4 -1.2 0.8 -1.1 1.1 -0.8Z" stroke="#ddd" fill="none" stroke-width="1"></path></g><g transform="translate(541 442)"><path d="M4.7 -4.1C5.9 -2.4 6.3 -0.4 5.9 1.2C5.4 2.8 4 4.1 2.3 4.9C0.7 5.7 -1.2 6 -3.4 5.5C-5.6 5 -8.2 3.7 -8.5 2.1C-8.7 0.4 -6.7 -1.6 -4.9 -3.5C-3.1 -5.4 -1.5 -7.1 0.1 -7.2C1.8 -7.3 3.6 -5.8 4.7 -4.1Z" stroke="#ddd" fill="none" stroke-width="1"></path></g><g transform="translate(800 428)"><path d="M5.7 -4.8C7 -2.9 7.4 -0.6 6.9 1.5C6.4 3.6 5 5.5 2.9 6.8C0.8 8.1 -1.9 8.9 -3.9 8C-6 7.1 -7.3 4.5 -7.5 2.1C-7.8 -0.3 -7 -2.6 -5.5 -4.5C-4.1 -6.3 -2 -7.8 0.1 -7.9C2.2 -7.9 4.4 -6.6 5.7 -4.8Z" stroke="#ddd" fill="none" stroke-width="1"></path></g><g transform="translate(859 43)"><path d="M2.6 -2C3.2 -1.3 3.4 -0.2 3.3 1C3.2 2.2 2.8 3.5 1.9 3.9C1.1 4.3 -0.2 3.7 -1.1 3C-2.1 2.3 -2.6 1.5 -2.9 0.6C-3.3 -0.4 -3.3 -1.5 -2.8 -2.2C-2.2 -2.9 -1.1 -3.1 -0.1 -3C1 -3 2 -2.7 2.6 -2Z" stroke="#ddd" fill="none" stroke-width="1"></path></g><g transform="translate(314 404)"><path d="M6.4 -5.3C8 -3 8.8 -0.4 8 1.3C7.2 3.1 4.8 4 2.4 5.3C0 6.5 -2.3 8.1 -4.4 7.7C-6.5 7.2 -8.3 4.8 -8.4 2.5C-8.5 0.2 -6.9 -2 -5.2 -4.2C-3.5 -6.5 -1.7 -8.7 0.3 -9C2.4 -9.2 4.7 -7.5 6.4 -5.3Z" stroke="#ddd" fill="none" stroke-width="1"></path></g><g transform="translate(699 56)"><path d="M2.9 -2.5C3.5 -1.5 3.7 -0.3 3.4 0.7C3.1 1.8 2.4 2.7 1.6 3C0.7 3.4 -0.3 3.1 -1 2.6C-1.7 2.1 -2 1.3 -2.1 0.5C-2.3 -0.3 -2.3 -1 -1.9 -2C-1.5 -2.9 -0.8 -4 0.2 -4.2C1.1 -4.3 2.2 -3.5 2.9 -2.5Z" stroke="#ddd" fill="none" stroke-width="1"></path></g><g transform="translate(748 45)"><path d="M2.3 -1.9C2.7 -1.3 2.6 -0.4 2.5 0.6C2.3 1.5 1.9 2.5 1.3 2.8C0.7 3.1 -0.3 2.8 -1 2.4C-1.7 1.9 -2.2 1.3 -2.3 0.6C-2.4 0 -2 -0.7 -1.6 -1.2C-1.1 -1.8 -0.6 -2.3 0.2 -2.4C0.9 -2.6 1.9 -2.4 2.3 -1.9Z" stroke="#ddd" fill="none" stroke-width="1"></path></g><g transform="translate(441 495)"><path d="M5.6 -5.5C6.7 -3.1 6.6 -0.8 6 1.3C5.5 3.4 4.5 5.3 2.4 7.1C0.3 9 -2.9 10.8 -5.9 10.2C-9 9.5 -11.9 6.5 -11.7 3.7C-11.5 1 -8.2 -1.5 -5.7 -4.1C-3.3 -6.7 -1.6 -9.6 0.3 -9.9C2.3 -10.1 4.6 -7.8 5.6 -5.5Z" stroke="#ddd" fill="none" stroke-width="1"></path></g><g transform="translate(183 560)"><path d="M3.8 -2.4C5.4 -1 7.4 0.6 7.5 2.2C7.5 3.9 5.5 5.6 3.6 5.9C1.6 6.3 -0.2 5.3 -1.4 4.2C-2.6 3.1 -3.2 2 -3.9 0.4C-4.6 -1.1 -5.4 -3.1 -4.8 -4.2C-4.2 -5.4 -2.1 -5.7 -0.5 -5.3C1.1 -4.9 2.2 -3.8 3.8 -2.4Z" stroke="#ddd" fill="none" stroke-width="1"></path></g><g transform="translate(361 254)"><path d="M6.8 -4.7C8.4 -3.3 9.2 -0.5 8.5 1.8C7.9 4.1 5.8 5.9 3.6 6.6C1.5 7.3 -0.8 6.8 -2.7 5.8C-4.6 4.8 -6.2 3.3 -6.2 1.8C-6.3 0.3 -4.8 -1.2 -3.6 -2.5C-2.3 -3.8 -1.1 -4.9 0.7 -5.5C2.6 -6 5.1 -6.1 6.8 -4.7Z" stroke="#ddd" fill="none" stroke-width="1"></path></g><g transform="translate(45 236)"><path d="M3.9 -3.6C4.7 -2.2 4.6 -0.6 4.1 0.8C3.7 2.3 3 3.6 1.8 4.4C0.6 5.1 -1 5.4 -2.3 4.8C-3.6 4.2 -4.5 2.7 -4.8 1.2C-5 -0.3 -4.6 -1.8 -3.7 -3.2C-2.8 -4.6 -1.4 -6 0.1 -6.1C1.6 -6.1 3.2 -5 3.9 -3.6Z" stroke="#ddd" fill="none" stroke-width="1"></path></g><g transform="translate(662 293)"><path d="M4.5 -3C6.4 -1.3 8.8 0.6 8.6 2.3C8.5 3.9 5.8 5.2 3 6.6C0.3 8.1 -2.6 9.6 -4.1 8.8C-5.7 8 -6 4.7 -5.9 2.3C-5.7 -0.2 -5.1 -1.9 -4 -3.4C-2.9 -4.9 -1.5 -6.4 -0.1 -6.3C1.3 -6.3 2.6 -4.7 4.5 -3Z" stroke="#ddd" fill="none" stroke-width="1"></path></g><g transform="translate(640 28)"><path d="M5 -3.7C6.5 -2.1 7.8 0 7.8 2.6C7.8 5.2 6.7 8.3 4.5 9.3C2.3 10.4 -0.8 9.3 -2.9 7.7C-5 6.1 -6 3.8 -6.2 1.8C-6.3 -0.3 -5.7 -2.2 -4.5 -3.6C-3.4 -5.1 -1.7 -6.1 0 -6.1C1.8 -6.2 3.5 -5.2 5 -3.7Z" stroke="#ddd" fill="none" stroke-width="1"></path></g><g transform="translate(524 125)"><path d="M7.3 -6.9C8.7 -4 8.6 -1.1 7.9 1.7C7.1 4.4 5.8 6.9 3.6 8.4C1.3 9.8 -1.9 10.2 -3.8 8.9C-5.7 7.6 -6.4 4.6 -7.6 1.2C-8.8 -2.2 -10.6 -6 -9.4 -8.8C-8.3 -11.6 -4.1 -13.4 -0.6 -12.9C2.9 -12.5 5.9 -9.7 7.3 -6.9Z" stroke="#ddd" fill="none" stroke-width="1"></path></g><g transform="translate(375 401)"><path d="M3.8 -2.6C4.9 -1.7 5.6 -0.1 5.3 1.1C4.9 2.3 3.4 3.2 2 3.7C0.7 4.1 -0.7 4.1 -2 3.7C-3.4 3.2 -4.8 2.3 -4.9 1.3C-4.9 0.3 -3.7 -0.9 -2.7 -1.7C-1.7 -2.6 -0.8 -3.2 0.3 -3.4C1.4 -3.6 2.8 -3.5 3.8 -2.6Z" stroke="#ddd" fill="none" stroke-width="1"></path></g><g transform="translate(769 330)"><path d="M6.6 -5.5C8.2 -3.2 9.1 -0.4 8.4 1.8C7.8 4 5.7 5.7 3.2 7C0.8 8.2 -2 9.1 -3.6 8.1C-5.1 7.1 -5.4 4.2 -5.9 1.5C-6.4 -1.2 -7.2 -3.7 -6.2 -6C-5.2 -8.2 -2.6 -10.1 -0.1 -10C2.5 -9.9 4.9 -7.9 6.6 -5.5Z" stroke="#ddd" fill="none" stroke-width="1"></path></g><g transform="translate(531 283)"><path d="M1.5 -1C2.1 -0.4 2.8 0.2 2.8 0.8C2.8 1.4 2.1 2.1 1.2 2.4C0.4 2.8 -0.6 3 -1.1 2.6C-1.7 2.3 -1.9 1.4 -2 0.5C-2.2 -0.4 -2.3 -1.2 -2 -1.7C-1.7 -2.3 -0.8 -2.6 -0.2 -2.4C0.4 -2.3 0.9 -1.6 1.5 -1Z" stroke="#ddd" fill="none" stroke-width="1"></path></g><g transform="translate(546 197)"><path d="M0.7 -0.5C0.9 -0.3 1.2 0 1.2 0.3C1.1 0.6 0.9 0.9 0.6 1C0.3 1.1 -0.1 0.9 -0.3 0.8C-0.6 0.6 -0.9 0.4 -0.9 0.2C-0.9 0 -0.8 -0.3 -0.6 -0.5C-0.4 -0.7 -0.2 -0.8 0 -0.8C0.2 -0.8 0.5 -0.7 0.7 -0.5Z" stroke="#ddd" fill="none" stroke-width="1"></path></g><g transform="translate(86 532)"><path d="M5.8 -3.6C7.9 -1.9 10.5 0.5 10.4 3C10.3 5.4 7.6 7.9 4.8 8.8C1.9 9.8 -1.2 9.3 -3.8 8C-6.4 6.7 -8.6 4.6 -9.5 1.9C-10.3 -0.9 -9.8 -4.2 -8.1 -5.8C-6.3 -7.4 -3.1 -7.4 -0.7 -6.8C1.8 -6.3 3.6 -5.3 5.8 -3.6Z" stroke="#ddd" fill="none" stroke-width="1"></path></g><g transform="translate(238 273)"><path d="M9.2 -6.8C11.4 -4.5 12.5 -0.7 11.4 2.1C10.3 4.8 7.2 6.5 4 8C0.7 9.5 -2.5 10.7 -4.6 9.6C-6.6 8.6 -7.5 5.3 -8 2.1C-8.5 -1 -8.5 -3.9 -7.1 -6C-5.7 -8.1 -2.9 -9.3 0.3 -9.6C3.5 -9.8 6.9 -9 9.2 -6.8Z" stroke="#ddd" fill="none" stroke-width="1"></path></g><g transform="translate(612 119)"><path d="M4 -3.9C4.7 -2.3 4.5 -0.7 4.1 0.9C3.7 2.6 3.3 4.2 2.1 5C0.9 5.8 -0.9 5.8 -2.5 5.1C-4 4.3 -5.2 2.9 -5.8 1C-6.5 -0.8 -6.6 -3.1 -5.5 -4.7C-4.5 -6.4 -2.2 -7.5 -0.3 -7.3C1.7 -7.1 3.3 -5.5 4 -3.9Z" stroke="#ddd" fill="none" stroke-width="1"></path></g><g transform="translate(116 314)"><path d="M8.2 -7.1C9.1 -5.3 7.4 -2 6.2 0.9C5.1 3.8 4.7 6.2 3.3 7C1.9 7.7 -0.4 6.6 -2.4 5.5C-4.3 4.3 -5.9 3 -6.3 1.5C-6.6 -0.1 -5.7 -1.9 -4.4 -3.8C-3.1 -5.6 -1.6 -7.5 1 -8.3C3.6 -9.1 7.2 -8.9 8.2 -7.1Z" stroke="#ddd" fill="none" stroke-width="1"></path></g><g transform="translate(482 146)"><path d="M3 -1.9C3.9 -1.2 4.7 0 4.6 1.4C4.6 2.7 3.6 4.1 2.5 4.4C1.3 4.7 0 3.7 -1 2.9C-2 2.1 -2.6 1.4 -2.8 0.6C-3 -0.2 -2.8 -1.1 -2.3 -1.7C-1.7 -2.4 -0.9 -2.7 0.1 -2.7C1 -2.8 2.1 -2.6 3 -1.9Z" stroke="#ddd" fill="none" stroke-width="1"></path></g><g transform="translate(786 383)"><path d="M1.3 -1.2C1.6 -0.7 1.8 -0.1 1.6 0.3C1.4 0.7 1 1 0.6 1.2C0.1 1.5 -0.4 1.6 -0.7 1.5C-1 1.3 -1.1 0.8 -1.3 0.2C-1.5 -0.4 -1.9 -1.1 -1.7 -1.6C-1.5 -2.1 -0.7 -2.3 -0.1 -2.2C0.5 -2.1 1 -1.7 1.3 -1.2Z" stroke="#ddd" fill="none" stroke-width="1"></path></g><g transform="translate(231 444)"><path d="M5.5 -4.6C6.9 -2.7 7.6 -0.4 7.2 1.7C6.8 3.8 5.2 5.8 3.4 6.5C1.5 7.2 -0.7 6.6 -3.3 5.8C-6 4.9 -9.1 3.9 -9.9 1.8C-10.7 -0.2 -9.2 -3.2 -7.2 -5.2C-5.2 -7.3 -2.6 -8.4 -0.3 -8.2C2.1 -8 4.2 -6.5 5.5 -4.6Z" stroke="#ddd" fill="none" stroke-width="1"></path></g><g transform="translate(875 273)"><path d="M6.1 -4.6C8 -2.3 10 0.2 9.7 2.5C9.4 4.9 6.9 7 4.4 7.6C1.9 8.3 -0.7 7.4 -2.7 6.2C-4.8 5 -6.4 3.4 -6.9 1.4C-7.5 -0.5 -7 -2.9 -5.7 -5C-4.4 -7.2 -2.2 -9.1 -0.1 -9C2 -9 4.1 -6.9 6.1 -4.6Z" stroke="#ddd" fill="none" stroke-width="1"></path></g><g transform="translate(73 135)"><path d="M7.1 -5.9C8.5 -4 8.3 -1.1 7.4 1.2C6.5 3.4 4.8 5 3 5.7C1.2 6.4 -0.8 6.2 -3.7 5.6C-6.6 5 -10.3 4.1 -11.5 1.7C-12.8 -0.6 -11.6 -4.4 -9.2 -6.6C-6.9 -8.7 -3.5 -9.2 -0.3 -9C2.9 -8.7 5.8 -7.8 7.1 -5.9Z" stroke="#ddd" fill="none" stroke-width="1"></path></g><g transform="translate(208 300)"><path d="M2.3 -1.8C2.7 -1.3 2.7 -0.3 2.6 0.8C2.5 1.8 2.3 3.1 1.7 3.3C1.1 3.6 0 2.8 -0.9 2.2C-1.8 1.6 -2.7 1.2 -3.1 0.5C-3.5 -0.3 -3.3 -1.4 -2.7 -2C-2.1 -2.5 -1.1 -2.5 -0.1 -2.5C0.9 -2.4 1.8 -2.3 2.3 -1.8Z" stroke="#ddd" fill="none" stroke-width="1"></path></g><g transform="translate(738 96)"><path d="M4 -3C5.7 -1.1 7.7 0.5 7.6 1.9C7.4 3.3 5 4.4 2.9 4.9C0.9 5.4 -0.9 5.5 -3 5C-5.2 4.4 -7.7 3.4 -8.6 1.4C-9.5 -0.6 -8.9 -3.6 -7.2 -5.5C-5.5 -7.3 -2.7 -8.1 -0.8 -7.5C1.2 -6.9 2.4 -4.9 4 -3Z" stroke="#ddd" fill="none" stroke-width="1"></path></g><g transform="translate(424 135)"><path d="M3.9 -2.7C5.1 -1.5 6.4 0.1 6.2 1.6C6 3.2 4.5 4.6 2.9 5C1.3 5.4 -0.3 4.6 -1.5 3.8C-2.8 2.9 -3.7 2 -4.4 0.6C-5.1 -0.9 -5.5 -2.8 -4.8 -3.9C-4 -4.9 -2 -5 -0.3 -4.8C1.3 -4.5 2.6 -3.8 3.9 -2.7Z" stroke="#ddd" fill="none" stroke-width="1"></path></g><g transform="translate(341 435)"><path d="M6.8 -4.5C9.5 -2.2 12.7 0.7 12.9 4.3C13.1 7.8 10.5 12 6.7 13.8C2.9 15.6 -2 15 -4.6 12.6C-7.1 10.2 -7.2 5.9 -8.3 1.8C-9.3 -2.4 -11.2 -6.4 -10 -8.4C-8.7 -10.4 -4.4 -10.4 -1.1 -9.5C2.1 -8.6 4.2 -6.8 6.8 -4.5Z" stroke="#ddd" fill="none" stroke-width="1"></path></g><g transform="translate(694 243)"><path d="M2.3 -1.9C2.9 -1.2 3.1 -0.2 2.8 0.4C2.5 1.1 1.7 1.5 0.9 1.9C0.1 2.2 -0.6 2.6 -1.3 2.4C-1.9 2.2 -2.5 1.4 -2.8 0.5C-3.2 -0.4 -3.3 -1.6 -2.8 -2.3C-2.3 -3.1 -1.1 -3.4 -0.1 -3.4C0.9 -3.3 1.8 -2.7 2.3 -1.9Z" stroke="#ddd" fill="none" stroke-width="1"></path></g><g transform="translate(170 50)"><path d="M9 -7.1C11.1 -4.6 11.8 -0.9 10.6 1.8C9.5 4.4 6.6 5.9 4 6.5C1.4 7 -0.7 6.5 -3.5 5.7C-6.2 5 -9.6 4 -10.8 1.6C-12.1 -0.7 -11.1 -4.4 -9 -7C-6.8 -9.6 -3.4 -11 0 -11.1C3.5 -11.1 6.9 -9.7 9 -7.1Z" stroke="#ddd" fill="none" stroke-width="1"></path></g><g transform="translate(609 332)"><path d="M3.5 -2.9C4.1 -2 4 -0.5 3.6 0.6C3.1 1.8 2.5 2.7 1.5 3.4C0.4 4 -0.9 4.3 -1.9 3.9C-3 3.4 -3.8 2.2 -3.9 1.1C-4 -0.1 -3.5 -1.2 -2.7 -2.2C-2 -3.1 -1 -3.9 0.2 -4.1C1.4 -4.3 2.8 -3.8 3.5 -2.9Z" stroke="#ddd" fill="none" stroke-width="1"></path></g><g transform="translate(167 284)"><path d="M7.4 -6.1C8.6 -4.4 7.8 -1.4 6.7 0.6C5.5 2.6 3.9 3.7 2.1 4.6C0.4 5.5 -1.5 6.3 -2.8 5.7C-4.2 5.1 -5 3.2 -5.2 1.4C-5.4 -0.4 -5.1 -2.1 -4.2 -3.7C-3.2 -5.3 -1.6 -6.8 0.8 -7.4C3.1 -8 6.2 -7.7 7.4 -6.1Z" stroke="#ddd" fill="none" stroke-width="1"></path></g><g transform="translate(416 565)"><path d="M2.3 -1.9C2.6 -1.4 2.3 -0.5 2.1 0.6C1.9 1.6 1.9 2.7 1.3 3.2C0.7 3.7 -0.5 3.5 -1.1 3C-1.8 2.4 -1.9 1.4 -1.9 0.7C-1.9 -0.1 -1.7 -0.7 -1.4 -1.2C-1 -1.6 -0.5 -2.1 0.2 -2.2C1 -2.4 2 -2.4 2.3 -1.9Z" stroke="#ddd" fill="none" stroke-width="1"></path></g><g transform="translate(117 271)"><path d="M3.9 -3.2C4.4 -2.6 3.6 -1 2.9 0.1C2.2 1.2 1.7 1.8 1 2.2C0.3 2.5 -0.5 2.7 -1.3 2.4C-2 2.1 -2.6 1.4 -3 0.5C-3.3 -0.5 -3.4 -1.6 -2.9 -2.3C-2.4 -3 -1.2 -3.3 0.3 -3.5C1.7 -3.7 3.5 -3.9 3.9 -3.2Z" stroke="#ddd" fill="none" stroke-width="1"></path></g><g transform="translate(130 198)"><path d="M5.7 -5C6.8 -3.1 6.9 -0.7 6.7 2C6.5 4.8 5.9 8 4.3 8.7C2.6 9.5 -0.2 7.8 -2.6 6.3C-5.1 4.8 -7.3 3.5 -7.6 1.8C-8 0.1 -6.6 -2 -5 -4.1C-3.4 -6.1 -1.7 -8.1 0.3 -8.3C2.3 -8.5 4.5 -6.9 5.7 -5Z" stroke="#ddd" fill="none" stroke-width="1"></path></g><g transform="translate(447 87)"><path d="M9.3 -7.7C10.7 -5.6 9.5 -1.9 8.8 2.2C8 6.3 7.6 10.6 5.1 12.5C2.6 14.4 -1.9 13.9 -5.9 12.1C-9.8 10.2 -13.2 7 -13.4 3.7C-13.6 0.5 -10.7 -2.9 -7.9 -5.3C-5.2 -7.7 -2.6 -9.2 0.7 -9.8C3.9 -10.3 7.9 -9.9 9.3 -7.7Z" stroke="#ddd" fill="none" stroke-width="1"></path></g><g transform="translate(871 536)"><path d="M8.3 -6.6C10.3 -4 11.3 -0.6 10.5 2.1C9.6 4.8 6.9 6.8 4.4 7.2C1.9 7.7 -0.4 6.7 -2.3 5.5C-4.1 4.3 -5.6 2.9 -6.5 0.9C-7.4 -1.1 -7.9 -3.9 -6.7 -6.2C-5.5 -8.6 -2.8 -10.6 0.2 -10.8C3.1 -10.9 6.2 -9.2 8.3 -6.6Z" stroke="#ddd" fill="none" stroke-width="1"></path></g><g transform="translate(23 338)"><path d="M4.8 -3.5C6.6 -1.5 8.7 0.5 8.8 2.9C9 5.2 7.1 8 4.6 8.9C2.2 9.9 -0.9 9 -3.5 7.6C-6.1 6.2 -8.4 4.3 -9.2 1.8C-10 -0.7 -9.3 -3.8 -7.6 -5.7C-5.8 -7.7 -2.9 -8.4 -0.7 -7.8C1.5 -7.3 2.9 -5.4 4.8 -3.5Z" stroke="#ddd" fill="none" stroke-width="1"></path></g><g transform="translate(232 156)"><path d="M6.3 -4.8C8 -2.9 9.1 -0.3 9.1 2.9C9 6.2 7.8 10 5.7 10.6C3.5 11.2 0.3 8.5 -2.1 6.5C-4.6 4.5 -6.3 3.2 -7.8 0.7C-9.2 -1.9 -10.4 -5.5 -9.1 -7.3C-7.7 -9.1 -3.9 -9 -0.8 -8.4C2.3 -7.8 4.6 -6.7 6.3 -4.8Z" stroke="#ddd" fill="none" stroke-width="1"></path></g><g transform="translate(622 463)"><path d="M1.5 -1.1C1.9 -0.7 2.2 -0.1 2.2 0.6C2.1 1.4 1.8 2.1 1.2 2.3C0.6 2.5 -0.1 2.2 -0.9 1.8C-1.7 1.5 -2.6 1.1 -2.7 0.6C-2.8 0.1 -2.1 -0.5 -1.6 -1C-1 -1.4 -0.5 -1.6 0 -1.6C0.5 -1.6 1.1 -1.5 1.5 -1.1Z" stroke="#ddd" fill="none" stroke-width="1"></path></g><g transform="translate(181 352)"><path d="M2.6 -2.1C3.2 -1.3 3.4 -0.3 3.2 0.8C3 1.8 2.4 2.8 1.5 3.3C0.6 3.8 -0.6 3.7 -1.3 3.2C-2.1 2.7 -2.4 1.6 -2.8 0.5C-3.2 -0.7 -3.7 -2 -3.2 -2.7C-2.8 -3.4 -1.4 -3.6 -0.2 -3.4C1 -3.3 2 -2.8 2.6 -2.1Z" stroke="#ddd" fill="none" stroke-width="1"></path></g><g transform="translate(317 264)"><path d="M2.1 -1.6C2.7 -1 3 -0.1 2.9 0.7C2.7 1.6 2.1 2.4 1.3 2.8C0.5 3.1 -0.5 3.1 -1.3 2.7C-2.1 2.3 -2.7 1.5 -3 0.6C-3.2 -0.3 -3.1 -1.3 -2.5 -1.9C-2 -2.5 -1 -2.6 -0.1 -2.6C0.8 -2.5 1.6 -2.2 2.1 -1.6Z" stroke="#ddd" fill="none" stroke-width="1"></path></g><g transform="translate(370 557)"><path d="M3.9 -2.8C5.2 -1.4 6.6 0.2 6.4 1.7C6.2 3.2 4.5 4.5 2.8 5C1.1 5.5 -0.6 5.1 -2 4.3C-3.5 3.6 -4.8 2.5 -5.5 0.8C-6.3 -0.9 -6.5 -3.1 -5.5 -4.4C-4.5 -5.6 -2.2 -5.9 -0.5 -5.5C1.3 -5.1 2.5 -4.1 3.9 -2.8Z" stroke="#ddd" fill="none" stroke-width="1"></path></g><g transform="translate(708 440)"><path d="M1.9 -2C2.3 -1 2.3 -0.3 2.1 0.5C1.9 1.2 1.6 1.8 0.9 2.3C0.3 2.7 -0.6 2.9 -1.5 2.7C-2.3 2.4 -3.1 1.6 -3.3 0.8C-3.5 -0.1 -3 -1.1 -2.4 -2.1C-1.8 -3.2 -0.9 -4.2 -0.1 -4.2C0.7 -4.1 1.5 -3 1.9 -2Z" stroke="#ddd" fill="none" stroke-width="1"></path></g><g transform="translate(272 400)"><path d="M3.8 -2.9C4.7 -2 5 -0.4 5 1.7C4.9 3.8 4.7 6.5 3 7.8C1.4 9.2 -1.6 9.3 -3.3 8C-5.1 6.7 -5.6 4.1 -5.9 1.7C-6.2 -0.7 -6.2 -2.9 -5.2 -3.9C-4.2 -4.9 -2.1 -4.7 -0.3 -4.5C1.5 -4.3 3 -3.9 3.8 -2.9Z" stroke="#ddd" fill="none" stroke-width="1"></path></g><g transform="translate(414 379)"><path d="M8.1 -7.5C9.5 -4.7 9 -1.4 8.3 2C7.7 5.5 6.9 9 4.5 10.8C2.1 12.5 -1.9 12.4 -4.9 10.8C-7.8 9.1 -9.7 5.9 -9.9 2.9C-10 0 -8.4 -2.7 -6.4 -5.6C-4.5 -8.5 -2.2 -11.7 0.6 -12.1C3.4 -12.6 6.7 -10.3 8.1 -7.5Z" stroke="#ddd" fill="none" stroke-width="1"></path></g><g transform="translate(96 234)"><path d="M4.1 -3.6C4.8 -2.3 4.6 -0.7 4.3 1C3.9 2.7 3.4 4.3 2.2 5.1C1 5.8 -0.8 5.7 -2.3 4.9C-3.7 4.1 -4.7 2.7 -5.2 1.1C-5.6 -0.5 -5.4 -2.4 -4.5 -3.7C-3.5 -4.9 -1.8 -5.6 0 -5.6C1.7 -5.6 3.4 -4.8 4.1 -3.6Z" stroke="#ddd" fill="none" stroke-width="1"></path></g><g transform="translate(281 202)"><path d="M3.4 -2.8C4.2 -1.7 4.5 -0.3 4.2 0.8C3.8 1.9 2.8 2.7 1.7 3.1C0.6 3.4 -0.5 3.3 -1.8 3C-3.1 2.6 -4.7 2 -4.8 1.2C-5 0.3 -3.6 -0.8 -2.6 -1.9C-1.5 -3.1 -0.8 -4.4 0.3 -4.6C1.3 -4.8 2.6 -3.9 3.4 -2.8Z" stroke="#ddd" fill="none" stroke-width="1"></path></g><g transform="translate(329 119)"><path d="M1.3 -1.2C1.6 -0.6 1.8 -0.1 1.8 0.5C1.7 1 1.4 1.6 0.9 1.8C0.4 2.1 -0.3 2 -0.8 1.8C-1.4 1.5 -1.9 1 -2 0.4C-2.2 -0.1 -2 -0.8 -1.6 -1.4C-1.2 -1.9 -0.6 -2.3 -0.1 -2.3C0.5 -2.2 1 -1.7 1.3 -1.2Z" stroke="#ddd" fill="none" stroke-width="1"></path></g><g transform="translate(512 28)"><path d="M5 -3.8C6.3 -2.3 7.2 -0.2 6.7 1.4C6.3 3.1 4.5 4.3 2.8 4.6C1.2 4.8 -0.3 4.2 -1.4 3.5C-2.6 2.7 -3.5 1.9 -4 0.6C-4.5 -0.6 -4.7 -2.3 -4 -3.7C-3.3 -5.1 -1.6 -6.2 0.1 -6.3C1.8 -6.4 3.6 -5.4 5 -3.8Z" stroke="#ddd" fill="none" stroke-width="1"></path></g><g transform="translate(871 97)"><path d="M6.8 -6.3C7.8 -4.1 7 -1.4 5.9 0.5C4.8 2.4 3.5 3.5 1.8 4.8C0 6 -2.1 7.5 -3.5 7C-4.9 6.4 -5.5 3.9 -6.3 1.2C-7.1 -1.5 -8.1 -4.4 -7.1 -6.5C-6.1 -8.7 -3.1 -10.1 -0.1 -10C2.9 -9.9 5.7 -8.4 6.8 -6.3Z" stroke="#ddd" fill="none" stroke-width="1"></path></g><g transform="translate(296 556)"><path d="M2.7 -2.2C3.3 -1.5 3.3 -0.4 3.1 0.7C2.8 1.8 2.3 2.8 1.5 3.2C0.7 3.6 -0.4 3.4 -1.3 2.9C-2.3 2.4 -3 1.6 -3.3 0.7C-3.5 -0.2 -3.3 -1.3 -2.6 -2.1C-2 -2.8 -1 -3.2 0 -3.3C1.1 -3.3 2.2 -3 2.7 -2.2Z" stroke="#ddd" fill="none" stroke-width="1"></path></g><g transform="translate(222 99)"><path d="M4.3 -3.6C5.5 -1.9 6.3 -0.2 6 1.4C5.7 3 4.3 4.5 2.8 4.7C1.4 5 -0.1 4.1 -1.5 3.3C-3 2.6 -4.5 2 -5 0.8C-5.6 -0.4 -5.2 -2.1 -4.2 -3.7C-3.2 -5.3 -1.6 -6.7 0 -6.7C1.6 -6.7 3.1 -5.2 4.3 -3.6Z" stroke="#ddd" fill="none" stroke-width="1"></path></g><g transform="translate(561 138)"><path d="M5.8 -4.6C8 -1.8 10.6 0.6 10.4 2.8C10.2 4.9 7.2 6.8 4 8.4C0.7 10 -2.7 11.4 -4.7 10.3C-6.8 9.1 -7.4 5.5 -8 2C-8.7 -1.5 -9.4 -4.7 -8 -7.3C-6.7 -9.9 -3.4 -11.9 -0.8 -11.2C1.8 -10.6 3.6 -7.4 5.8 -4.6Z" stroke="#ddd" fill="none" stroke-width="1"></path></g><g transform="translate(520 384)"><path d="M9.6 -7.1C11.9 -4.8 12.8 -0.8 11.5 1.7C10.2 4.2 6.7 5.3 3.3 6.9C0 8.5 -3.1 10.6 -5 9.9C-6.9 9.1 -7.6 5.5 -7.5 2.7C-7.4 -0.2 -6.5 -2.3 -5.1 -4.5C-3.7 -6.6 -1.9 -8.8 0.9 -9.6C3.6 -10.3 7.3 -9.5 9.6 -7.1Z" stroke="#ddd" fill="none" stroke-width="1"></path></g><g transform="translate(549 239)"><path d="M5.3 -4.5C6.3 -3 6.1 -0.8 5.7 1.5C5.4 3.9 4.8 6.4 3.2 7.6C1.5 8.9 -1.4 8.8 -3.5 7.6C-5.6 6.4 -7 4.2 -7.5 1.8C-8 -0.6 -7.6 -3.2 -6.2 -4.7C-4.8 -6.3 -2.4 -6.8 -0.1 -6.7C2.2 -6.7 4.3 -5.9 5.3 -4.5Z" stroke="#ddd" fill="none" stroke-width="1"></path></g><g transform="translate(378 174)"><path d="M4.4 -4.2C5.3 -2.3 5.3 -0.6 5.3 1.8C5.2 4.1 5 7 3.7 7.5C2.4 8.1 0.1 6.3 -2 5C-4.2 3.6 -6.1 2.7 -6.5 1.4C-6.9 0 -5.8 -1.8 -4.4 -3.8C-3 -5.8 -1.5 -7.9 0.1 -8C1.7 -8.1 3.5 -6.1 4.4 -4.2Z" stroke="#ddd" fill="none" stroke-width="1"></path></g><g transform="translate(820 29)"><path d="M4.4 -4C5.4 -2.2 5.8 -0.4 5.4 1.3C5.1 3.1 4.1 4.8 2.4 6C0.7 7.2 -1.7 7.9 -3.9 7.2C-6 6.5 -7.9 4.4 -8.5 2C-9 -0.5 -8.2 -3.2 -6.5 -5.1C-4.9 -7.1 -2.5 -8.2 -0.4 -7.9C1.7 -7.6 3.4 -5.8 4.4 -4Z" stroke="#ddd" fill="none" stroke-width="1"></path></g><g transform="translate(730 224)"><path d="M3.6 -2.9C4.5 -1.7 4.9 -0.3 4.6 1C4.2 2.2 3.1 3.2 2 3.4C0.9 3.7 -0.2 3.2 -1 2.6C-1.8 2 -2.3 1.3 -2.7 0.4C-3.1 -0.6 -3.4 -1.8 -2.9 -2.8C-2.5 -3.9 -1.2 -4.8 0.1 -4.9C1.3 -4.9 2.7 -4.1 3.6 -2.9Z" stroke="#ddd" fill="none" stroke-width="1"></path></g><g transform="translate(269 25)"><path d="M1.9 -1.4C2.5 -0.9 2.9 -0.1 2.7 0.6C2.6 1.3 1.8 1.8 1.1 2.1C0.4 2.3 -0.3 2.3 -1.3 2.1C-2.2 1.8 -3.3 1.4 -3.6 0.6C-4 -0.2 -3.7 -1.4 -2.9 -2C-2.2 -2.7 -1.1 -2.6 -0.2 -2.5C0.7 -2.3 1.4 -2 1.9 -1.4Z" stroke="#ddd" fill="none" stroke-width="1"></path></g><g transform="translate(535 75)"><path d="M4.6 -3.8C5.9 -2 7 -0.1 6.6 1.4C6.2 2.9 4.3 4 2.4 4.8C0.5 5.7 -1.5 6.4 -3.3 5.9C-5 5.4 -6.6 3.6 -7.6 1.2C-8.6 -1.2 -8.9 -4.3 -7.5 -6.2C-6.2 -8.1 -3.1 -8.7 -0.7 -8.1C1.6 -7.6 3.2 -5.7 4.6 -3.8Z" stroke="#ddd" fill="none" stroke-width="1"></path></g><g transform="translate(208 246)"><path d="M2.7 -2.7C3.3 -1.5 3.4 -0.3 3.4 1.2C3.4 2.7 3.3 4.7 2.4 5.1C1.6 5.4 0.1 4.3 -1.7 3.5C-3.5 2.7 -5.5 2.2 -6.2 1C-6.8 -0.3 -6 -2.2 -4.8 -3.6C-3.5 -5 -1.8 -5.9 -0.3 -5.6C1.1 -5.3 2.2 -4 2.7 -2.7Z" stroke="#ddd" fill="none" stroke-width="1"></path></g><g transform="translate(20 60)"><path d="M4.1 -3.3C4.8 -2.4 4.6 -0.7 4 0.6C3.5 1.9 2.7 2.9 1.6 3.5C0.5 4.1 -0.9 4.4 -1.8 3.9C-2.7 3.4 -3 2.1 -3.4 0.7C-3.8 -0.7 -4.2 -2.2 -3.6 -3.1C-3 -4 -1.5 -4.3 0.1 -4.3C1.7 -4.4 3.4 -4.2 4.1 -3.3Z" stroke="#ddd" fill="none" stroke-width="1"></path></g><g transform="translate(880 351)"><path d="M3.6 -2.9C4.6 -1.6 5.3 -0.1 5.2 1.6C5.1 3.3 4.3 5.2 3 5.6C1.7 6 -0.1 4.8 -2.1 4C-4.1 3.2 -6.5 2.6 -6.8 1.5C-7.2 0.3 -5.5 -1.4 -4 -2.8C-2.6 -4.2 -1.3 -5.3 0 -5.3C1.3 -5.3 2.6 -4.2 3.6 -2.9Z" stroke="#ddd" fill="none" stroke-width="1"></path></g><g transform="translate(336 26)"><path d="M3.5 -2.6C4.5 -1.5 5.2 -0.1 5 1.3C4.8 2.7 3.7 4 2.1 4.9C0.6 5.8 -1.3 6.3 -2.6 5.6C-3.9 4.9 -4.5 3 -4.9 1.2C-5.3 -0.7 -5.4 -2.5 -4.5 -3.6C-3.7 -4.6 -1.8 -4.8 -0.3 -4.6C1.2 -4.3 2.5 -3.6 3.5 -2.6Z" stroke="#ddd" fill="none" stroke-width="1"></path></g><g transform="translate(459 562)"><path d="M3.1 -2.7C3.5 -1.9 3.1 -0.7 2.9 0.9C2.8 2.5 2.9 4.4 2.1 5.1C1.2 5.8 -0.5 5.3 -2 4.5C-3.4 3.7 -4.5 2.5 -4.8 1.2C-5 -0.1 -4.3 -1.5 -3.4 -2.5C-2.5 -3.4 -1.2 -3.9 0 -3.9C1.3 -3.9 2.7 -3.6 3.1 -2.7Z" stroke="#ddd" fill="none" stroke-width="1"></path></g><g transform="translate(868 492)"><path d="M10.1 -7.9C12.8 -4.7 14.5 -0.5 13.4 2.7C12.4 5.9 8.7 8.1 5.4 8.6C2.2 9.1 -0.5 7.9 -2.5 6.4C-4.5 5 -5.8 3.3 -6.8 0.9C-7.8 -1.4 -8.6 -4.5 -7.4 -7.3C-6.3 -10.2 -3.1 -12.8 0.3 -13C3.7 -13.3 7.4 -11.1 10.1 -7.9Z" stroke="#ddd" fill="none" stroke-width="1"></path></g><g transform="translate(26 564)"><path d="M7.3 -6.2C9.1 -3.6 9.8 -0.6 9.1 2C8.4 4.5 6.3 6.7 3.4 8.8C0.4 10.9 -3.4 13 -5.2 11.8C-7.1 10.5 -6.9 6 -7.3 2.2C-7.8 -1.6 -8.9 -4.8 -7.8 -7.2C-6.6 -9.7 -3.3 -11.4 -0.3 -11.2C2.8 -11 5.5 -8.8 7.3 -6.2Z" stroke="#ddd" fill="none" stroke-width="1"></path></g><g transform="translate(557 406)"><path d="M2.7 -2.4C3.3 -1.4 3.5 -0.3 3.5 1.1C3.4 2.6 3.2 4.3 2.1 5.2C1 6 -1 6 -1.9 5.1C-2.8 4.2 -2.8 2.4 -3.1 0.8C-3.4 -0.9 -4.1 -2.3 -3.6 -3.3C-3.2 -4.3 -1.6 -4.8 -0.3 -4.6C1 -4.4 2.1 -3.4 2.7 -2.4Z" stroke="#ddd" fill="none" stroke-width="1"></path></g><g transform="translate(347 373)"><path d="M3.4 -2.4C4.5 -1.4 5.4 0 5.6 2.1C5.8 4.2 5.3 7 3.9 7.5C2.5 8 0.2 6.1 -1.8 4.8C-3.9 3.4 -5.7 2.6 -6.3 1.1C-6.9 -0.4 -6.3 -2.5 -5.1 -3.5C-3.8 -4.6 -1.9 -4.6 -0.4 -4.3C1.2 -4 2.3 -3.4 3.4 -2.4Z" stroke="#ddd" fill="none" stroke-width="1"></path></g><g transform="translate(177 110)"><path d="M8.5 -5.5C11.3 -3.1 14.3 0.4 13.8 3.5C13.4 6.5 9.5 9.1 5.8 10.2C2 11.4 -1.6 11.1 -5.4 9.8C-9.1 8.5 -13.1 6.2 -14.2 2.8C-15.4 -0.6 -13.7 -5.1 -10.9 -7.4C-8 -9.7 -4 -9.8 -0.6 -9.4C2.8 -8.9 5.6 -7.8 8.5 -5.5Z" stroke="#ddd" fill="none" stroke-width="1"></path></g><g transform="translate(836 123)"><path d="M6.2 -4.5C7.7 -3.2 8.1 -0.6 7.2 1C6.3 2.6 4.1 3.3 2.3 3.9C0.4 4.4 -1.1 4.9 -2.5 4.5C-4 4 -5.3 2.8 -6.1 1C-6.8 -0.8 -6.9 -3.2 -5.8 -4.5C-4.6 -5.8 -2.3 -6 0 -6C2.4 -6 4.8 -5.9 6.2 -4.5Z" stroke="#ddd" fill="none" stroke-width="1"></path></g><g transform="translate(121 442)"><path d="M3.1 -2.3C3.7 -1.8 3.5 -0.5 3.2 0.6C2.8 1.7 2.2 2.6 1.5 2.7C0.8 2.9 0 2.3 -0.6 1.8C-1.2 1.3 -1.5 0.9 -1.6 0.4C-1.8 -0.2 -1.7 -0.7 -1.4 -1.2C-1.1 -1.7 -0.6 -2 0.4 -2.3C1.3 -2.6 2.6 -2.8 3.1 -2.3Z" stroke="#ddd" fill="none" stroke-width="1"></path></g><g transform="translate(730 484)"><path d="M10 -6.8C12.2 -5.2 12.8 -1.1 11.4 1.7C10 4.5 6.8 5.9 3.9 6.7C1.1 7.5 -1.3 7.6 -4.5 7C-7.6 6.4 -11.5 5 -11.9 2.8C-12.4 0.7 -9.4 -2.2 -6.8 -3.9C-4.2 -5.6 -2.1 -6.2 0.9 -6.9C3.9 -7.6 7.8 -8.4 10 -6.8Z" stroke="#ddd" fill="none" stroke-width="1"></path></g><g transform="translate(175 163)"><path d="M4 -2.6C5.2 -1.7 6.2 0 6 1.5C5.8 3.1 4.3 4.6 2.6 5.4C0.9 6.3 -1.1 6.4 -2.2 5.5C-3.3 4.7 -3.4 2.7 -3.9 0.8C-4.5 -1.2 -5.4 -3.1 -4.9 -3.9C-4.3 -4.6 -2.1 -4.1 -0.4 -3.8C1.4 -3.5 2.8 -3.5 4 -2.6Z" stroke="#ddd" fill="none" stroke-width="1"></path></g><g transform="translate(817 342)"><path d="M5.6 -4.5C6.6 -3.3 6.2 -1 5.8 1.6C5.4 4.1 5 6.8 3.2 8.5C1.3 10.1 -2 10.6 -4.8 9.4C-7.5 8.3 -9.7 5.5 -10.1 2.6C-10.5 -0.3 -9.2 -3.3 -7.2 -4.7C-5.2 -6.2 -2.6 -6.2 -0.1 -6.1C2.3 -5.9 4.6 -5.8 5.6 -4.5Z" stroke="#ddd" fill="none" stroke-width="1"></path></g><g transform="translate(837 578)"><path d="M1 -0.7C1.4 -0.4 1.7 0 1.6 0.4C1.5 0.7 1.1 1 0.6 1.3C0.1 1.6 -0.5 1.9 -1 1.8C-1.6 1.7 -2.1 1.1 -2.1 0.6C-2.1 0.1 -1.6 -0.4 -1.2 -0.7C-0.7 -1 -0.4 -1.2 0 -1.2C0.3 -1.1 0.7 -1 1 -0.7Z" stroke="#ddd" fill="none" stroke-width="1"></path></g><g transform="translate(372 52)"><path d="M6.8 -5.2C8 -3.9 7.6 -1.1 6.7 0.9C5.8 2.9 4.2 4.2 2.3 5.2C0.5 6.3 -1.7 7.1 -4.2 6.7C-6.8 6.3 -9.8 4.6 -10.1 2.6C-10.4 0.5 -7.8 -1.9 -5.7 -3.4C-3.6 -4.9 -1.8 -5.6 0.5 -6C2.8 -6.4 5.5 -6.5 6.8 -5.2Z" stroke="#ddd" fill="none" stroke-width="1"></path></g><g transform="translate(874 138)"><path d="M3.4 -2.7C4.2 -1.8 4.4 -0.4 4.1 0.9C3.8 2.2 3 3.3 1.9 3.7C0.9 4.1 -0.3 3.7 -1.5 3.1C-2.7 2.5 -3.8 1.8 -4.1 0.8C-4.3 -0.1 -3.8 -1.4 -3 -2.4C-2.2 -3.4 -1.1 -4.1 0.1 -4.2C1.3 -4.3 2.7 -3.7 3.4 -2.7Z" stroke="#ddd" fill="none" stroke-width="1"></path></g><g transform="translate(419 423)"><path d="M3.5 -2.9C4.2 -1.8 4.4 -0.4 4 0.7C3.6 1.8 2.6 2.7 1.6 3C0.6 3.3 -0.4 3.2 -1.4 2.7C-2.4 2.3 -3.3 1.6 -3.8 0.5C-4.3 -0.6 -4.4 -2.1 -3.7 -3.1C-3 -4.1 -1.5 -4.5 -0.1 -4.5C1.4 -4.4 2.7 -3.9 3.5 -2.9Z" stroke="#ddd" fill="none" stroke-width="1"></path></g><g transform="translate(449 450)"><path d="M5.8 -4.9C6.5 -3.8 5.4 -1.4 4.6 0.6C3.8 2.7 3.4 4.4 2 5.6C0.6 6.9 -1.7 7.6 -3.6 6.9C-5.4 6.2 -6.8 4 -7 2C-7.1 -0.1 -6 -2 -4.6 -3.2C-3.3 -4.5 -1.6 -5 0.5 -5.4C2.6 -5.8 5.1 -6 5.8 -4.9Z" stroke="#ddd" fill="none" stroke-width="1"></path></g><g transform="translate(833 259)"><path d="M10.8 -8.7C12.9 -6 12.7 -1.6 11.1 1.3C9.4 4.1 6.3 5.4 3.5 6.4C0.7 7.4 -1.9 8.3 -4.6 7.7C-7.3 7.1 -10.3 5 -11.1 2.3C-11.9 -0.5 -10.6 -4 -8.4 -6.7C-6.2 -9.4 -3.1 -11.4 0.6 -11.9C4.4 -12.3 8.7 -11.4 10.8 -8.7Z" stroke="#ddd" fill="none" stroke-width="1"></path></g><g transform="translate(250 573)"><path d="M2.6 -2.1C3 -1.5 2.9 -0.4 2.9 1C2.8 2.4 2.8 4.1 2 4.8C1.1 5.4 -0.6 5.1 -1.7 4.2C-2.9 3.4 -3.5 2.2 -3.8 0.8C-4.1 -0.5 -4.2 -1.9 -3.5 -2.6C-2.8 -3.2 -1.4 -3.1 -0.2 -3C1 -2.8 2.1 -2.7 2.6 -2.1Z" stroke="#ddd" fill="none" stroke-width="1"></path></g><g transform="translate(41 449)"><path d="M5.8 -3.8C8.1 -1.7 11 0.7 10.6 2.4C10.2 4 6.5 4.9 3.6 5.6C0.6 6.4 -1.5 7 -2.9 6.2C-4.3 5.5 -5 3.4 -5.6 1.2C-6.2 -1 -6.6 -3.3 -5.7 -5.1C-4.7 -6.9 -2.4 -8.2 -0.3 -8C1.7 -7.7 3.5 -5.9 5.8 -3.8Z" stroke="#ddd" fill="none" stroke-width="1"></path></g><g transform="translate(840 426)"><path d="M6.9 -5.9C7.9 -4.4 6.7 -1.5 5.7 0.7C4.7 2.9 3.8 4.5 2.1 6C0.3 7.5 -2.3 8.9 -4.2 8.2C-6.1 7.5 -7.2 4.7 -7.5 2.1C-7.8 -0.5 -7.3 -3 -5.9 -4.6C-4.5 -6.2 -2.2 -7 0.4 -7.3C3 -7.6 6 -7.4 6.9 -5.9Z" stroke="#ddd" fill="none" stroke-width="1"></path></g><g transform="translate(237 200)"><path d="M4.4 -3.3C6.2 -1.3 8.5 0.6 8.7 2.9C8.9 5.2 7.1 8 4.8 8.6C2.6 9.1 0 7.3 -2.1 5.7C-4.1 4.2 -5.6 2.9 -6.1 1.3C-6.5 -0.3 -5.9 -2.3 -4.7 -4.1C-3.5 -6 -1.8 -7.8 -0.2 -7.6C1.3 -7.5 2.6 -5.3 4.4 -3.3Z" stroke="#ddd" fill="none" stroke-width="1"></path></g><g transform="translate(750 290)"><path d="M4.8 -3.6C5.6 -2.8 5.3 -0.9 4.8 1C4.3 2.9 3.7 4.7 2.3 5.7C0.9 6.7 -1.3 6.9 -3 6.1C-4.8 5.3 -6.1 3.5 -6.1 1.8C-6.1 0.2 -4.9 -1.4 -3.7 -2.3C-2.4 -3.2 -1.2 -3.4 0.4 -3.8C2 -4.1 4 -4.4 4.8 -3.6Z" stroke="#ddd" fill="none" stroke-width="1"></path></g><g transform="translate(642 561)"><path d="M2.4 -2C3 -1 3.6 0 3.5 1.1C3.5 2.2 2.9 3.5 1.8 4.1C0.8 4.7 -0.7 4.6 -2.1 4.1C-3.5 3.5 -4.9 2.5 -5 1.3C-5.2 0.1 -4.1 -1.2 -3.1 -2.2C-2.1 -3.3 -1 -4.1 -0.1 -4C0.8 -3.9 1.7 -3 2.4 -2Z" stroke="#ddd" fill="none" stroke-width="1"></path></g><g transform="translate(626 263)"><path d="M3.1 -2.5C4.2 -1.2 5.2 0.1 4.9 0.9C4.5 1.8 2.9 2.2 1.5 2.6C0.1 3.1 -0.9 3.6 -2 3.4C-3.1 3.2 -4.3 2.2 -4.6 1C-4.9 -0.2 -4.4 -1.6 -3.5 -2.9C-2.6 -4.2 -1.3 -5.4 -0.1 -5.3C1.1 -5.2 2.1 -3.9 3.1 -2.5Z" stroke="#ddd" fill="none" stroke-width="1"></path></g><g transform="translate(140 482)"><path d="M1.1 -0.8C1.6 -0.3 2.2 0.2 2.3 0.7C2.3 1.2 1.7 1.8 1.2 1.9C0.6 1.9 0 1.5 -0.6 1.2C-1.3 0.9 -2 0.8 -2.2 0.4C-2.4 0 -2.1 -0.7 -1.6 -1.2C-1.2 -1.8 -0.6 -2.1 -0.1 -2C0.3 -1.9 0.6 -1.3 1.1 -0.8Z" stroke="#ddd" fill="none" stroke-width="1"></path></g><g transform="translate(765 188)"><path d="M7.5 -5.1C10 -2.9 12.4 0.3 12.2 3.4C11.9 6.5 9 9.5 5.4 11.2C1.9 12.9 -2.3 13.1 -5.4 11.5C-8.5 9.9 -10.6 6.4 -11.3 2.7C-12 -0.9 -11.3 -4.7 -9.2 -6.8C-7.1 -8.9 -3.6 -9.4 -0.5 -8.9C2.5 -8.5 5 -7.3 7.5 -5.1Z" stroke="#ddd" fill="none" stroke-width="1"></path></g><g transform="translate(23 272)"><path d="M7.6 -5.5C9.2 -3.9 9.6 -0.8 9.3 2.7C9 6.3 7.9 10.3 5.3 12C2.6 13.6 -1.6 12.9 -5 11.1C-8.4 9.2 -10.9 6.1 -11.5 2.9C-12 -0.4 -10.6 -3.9 -8.3 -5.6C-6.1 -7.3 -3.1 -7.2 -0.1 -7.2C3 -7.2 5.9 -7.1 7.6 -5.5Z" stroke="#ddd" fill="none" stroke-width="1"></path></g><g transform="translate(398 97)"><path d="M2.8 -2.2C3.6 -1.2 4.2 -0.1 4 1C3.9 2.2 3 3.2 1.8 3.9C0.6 4.5 -0.9 4.8 -2 4.2C-3.2 3.7 -3.9 2.4 -4.3 1C-4.6 -0.5 -4.6 -2 -3.8 -3C-3 -4 -1.5 -4.3 -0.2 -4.1C1 -3.9 2 -3.2 2.8 -2.2Z" stroke="#ddd" fill="none" stroke-width="1"></path></g><g transform="translate(117 88)"><path d="M7.2 -6.4C8.8 -3.8 9.1 -0.8 8.2 1.5C7.4 3.7 5.3 5.3 3.3 5.9C1.3 6.4 -0.7 6 -2.6 5.1C-4.5 4.3 -6.3 3.1 -7.1 1.1C-8 -0.8 -7.8 -3.5 -6.5 -6.1C-5.2 -8.6 -2.6 -11.1 0.1 -11.2C2.8 -11.3 5.6 -9 7.2 -6.4Z" stroke="#ddd" fill="none" stroke-width="1"></path></g><g transform="translate(702 283)"><path d="M3.5 -2.5C4.4 -1.8 4.8 -0.3 4.5 1C4.2 2.3 3.2 3.5 2.1 3.8C1 4.1 -0.3 3.7 -1.1 3C-1.8 2.3 -2.1 1.4 -2.1 0.6C-2.2 -0.1 -2 -0.8 -1.6 -1.4C-1.2 -2.1 -0.6 -2.6 0.4 -2.9C1.3 -3.2 2.7 -3.2 3.5 -2.5Z" stroke="#ddd" fill="none" stroke-width="1"></path></g><g transform="translate(102 39)"><path d="M3.1 -3C3.6 -1.9 3.2 -0.6 3 0.9C2.8 2.4 2.9 4.2 2.2 4.6C1.5 4.9 0.1 3.9 -1.5 3.1C-3 2.3 -4.6 1.9 -5 0.9C-5.4 -0.1 -4.6 -1.6 -3.6 -2.8C-2.6 -4.1 -1.3 -5.2 0 -5.2C1.3 -5.2 2.7 -4.2 3.1 -3Z" stroke="#ddd" fill="none" stroke-width="1"></path></g><g transform="translate(875 453)"><path d="M6.6 -5.4C7.7 -3.8 7.2 -1.1 6.2 0.7C5.2 2.5 3.7 3.5 2.3 3.9C0.8 4.3 -0.5 4.1 -2 3.6C-3.6 3.1 -5.3 2.4 -5.6 1.3C-5.8 0.2 -4.6 -1.3 -3.4 -2.8C-2.2 -4.4 -1.1 -6.1 0.8 -6.7C2.7 -7.3 5.4 -6.9 6.6 -5.4Z" stroke="#ddd" fill="none" stroke-width="1"></path></g><g transform="translate(735 149)"><path d="M4.8 -3.9C6.1 -2.2 7.1 -0.2 7 2.2C6.9 4.5 5.8 7.2 3.8 8.3C1.7 9.5 -1.3 9.3 -3.3 7.9C-5.3 6.6 -6.3 4.1 -6.3 2.1C-6.3 0 -5.2 -1.7 -4 -3.4C-2.8 -5.1 -1.4 -6.8 0.2 -7C1.7 -7.1 3.5 -5.6 4.8 -3.9Z" stroke="#ddd" fill="none" stroke-width="1"></path></g><g transform="translate(22 181)"><path d="M5.6 -5C6.6 -3.3 6 -1 5.4 1C4.7 3 3.9 4.7 2.1 6.4C0.2 8.1 -2.6 9.7 -4.7 9C-6.9 8.3 -8.3 5.3 -8.6 2.4C-8.9 -0.5 -8.1 -3.1 -6.5 -5C-4.9 -6.9 -2.4 -7.9 0 -7.9C2.4 -7.9 4.7 -6.7 5.6 -5Z" stroke="#ddd" fill="none" stroke-width="1"></path></g><g transform="translate(385 352)"><path d="M4.7 -3.6C6 -2.1 6.9 -0.2 7 2.4C7.1 5 6.3 8.2 4.3 9.3C2.4 10.3 -0.8 9.2 -4 7.8C-7.2 6.4 -10.5 4.8 -11.3 2.3C-12 -0.2 -10.3 -3.5 -8 -5.2C-5.7 -7 -2.9 -7.1 -0.6 -6.7C1.7 -6.2 3.4 -5.1 4.7 -3.6Z" stroke="#ddd" fill="none" stroke-width="1"></path></g><g transform="translate(705 374)"><path d="M4.5 -3.5C5.4 -2.4 5.5 -0.5 5.1 1.1C4.7 2.8 3.7 4.3 2.3 5.2C0.8 6.1 -1.3 6.5 -3.3 5.9C-5.3 5.2 -7.3 3.7 -7.5 2C-7.6 0.3 -5.9 -1.6 -4.4 -2.9C-2.9 -4.2 -1.4 -5 0.2 -5.1C1.8 -5.2 3.5 -4.7 4.5 -3.5Z" stroke="#ddd" fill="none" stroke-width="1"></path></g><g transform="translate(628 509)"><path d="M11.4 -9.9C13.5 -6.5 13 -1.8 11.4 1.6C9.8 5.1 7.2 7.3 4.4 8.4C1.6 9.6 -1.5 9.5 -4.5 8.4C-7.5 7.3 -10.5 5.2 -12 1.9C-13.4 -1.5 -13.4 -6 -11.1 -9.5C-8.9 -12.9 -4.4 -15.2 0.1 -15.3C4.7 -15.4 9.4 -13.3 11.4 -9.9Z" stroke="#ddd" fill="none" stroke-width="1"></path></g><g transform="translate(766 504)"><path d="M9.5 -6.7C11.5 -5.2 11.5 -1.3 10.3 1.7C9.1 4.6 6.6 6.5 3.8 7.8C1 9.1 -2 9.7 -5.1 8.9C-8.2 8 -11.3 5.7 -11.6 3.1C-11.8 0.5 -9.1 -2.3 -6.7 -4C-4.3 -5.7 -2.2 -6.2 0.8 -6.9C3.8 -7.5 7.6 -8.3 9.5 -6.7Z" stroke="#ddd" fill="none" stroke-width="1"></path></g><g transform="translate(572 311)"><path d="M8.8 -6.4C10.8 -4.5 11.3 -0.9 10.6 2.5C9.8 5.8 7.8 8.9 4.9 10.4C2 11.9 -1.8 11.7 -3.9 10C-6.1 8.2 -6.6 4.9 -7.6 1.4C-8.7 -2.1 -10.3 -5.8 -9.1 -7.5C-8 -9.2 -4 -8.9 -0.3 -8.6C3.4 -8.4 6.8 -8.3 8.8 -6.4Z" stroke="#ddd" fill="none" stroke-width="1"></path></g><g transform="translate(682 330)"><path d="M1.6 -1.3C2.1 -0.7 2.4 0 2.3 0.5C2.2 1.1 1.6 1.7 1 1.8C0.4 2 -0.2 1.9 -0.8 1.6C-1.5 1.4 -2.1 1 -2.2 0.5C-2.4 0 -2 -0.6 -1.5 -1.2C-1.1 -1.7 -0.5 -2.2 0 -2.2C0.6 -2.2 1.2 -1.8 1.6 -1.3Z" stroke="#ddd" fill="none" stroke-width="1"></path></g><g transform="translate(529 324)"><path d="M8.6 -6.8C10.4 -4.6 10.5 -1.1 9.2 1.2C8 3.4 5.3 4.4 3.1 5C0.8 5.5 -1 5.6 -3.4 5.2C-5.9 4.7 -9.1 3.8 -9.5 2.1C-9.8 0.5 -7.5 -1.8 -5.4 -4C-3.4 -6.3 -1.7 -8.6 0.9 -9.2C3.4 -9.9 6.8 -9 8.6 -6.8Z" stroke="#ddd" fill="none" stroke-width="1"></path></g><g transform="translate(867 195)"><path d="M3.2 -2.9C3.6 -2 3 -0.7 2.5 0.2C2 1.2 1.6 1.9 0.9 2.4C0.2 3 -0.8 3.4 -1.5 3.1C-2.1 2.8 -2.2 1.7 -2.3 0.7C-2.4 -0.3 -2.4 -1.1 -2 -1.9C-1.6 -2.8 -0.8 -3.8 0.3 -4C1.4 -4.3 2.8 -3.8 3.2 -2.9Z" stroke="#ddd" fill="none" stroke-width="1"></path></g><g transform="translate(705 580)"><path d="M0.8 -0.7C1.1 -0.3 1.3 0 1.3 0.3C1.2 0.7 0.9 1 0.6 1.1C0.2 1.2 -0.1 1.2 -0.4 1C-0.7 0.8 -0.8 0.5 -0.9 0.2C-1 -0.1 -1 -0.5 -0.8 -0.8C-0.7 -1.2 -0.3 -1.5 0 -1.5C0.3 -1.4 0.5 -1 0.8 -0.7Z" stroke="#ddd" fill="none" stroke-width="1"></path></g><g transform="translate(358 92)"><path d="M2.5 -1.7C3.3 -1 4 0 4 1.2C3.9 2.4 3.2 3.6 2 4.1C0.9 4.6 -0.5 4.3 -1.3 3.6C-2.1 2.9 -2.3 1.7 -2.5 0.6C-2.7 -0.5 -3.1 -1.6 -2.7 -2.2C-2.3 -2.9 -1.1 -3 -0.1 -2.9C0.8 -2.8 1.7 -2.4 2.5 -1.7Z" stroke="#ddd" fill="none" stroke-width="1"></path></g><g transform="translate(73 573)"><path d="M4.8 -3.9C5.7 -2.8 5.5 -0.8 4.8 0.6C4 2 2.9 2.8 1.4 3.8C-0.1 4.9 -1.9 6.2 -3.3 5.9C-4.7 5.5 -5.8 3.6 -6.3 1.4C-6.9 -0.8 -6.9 -3.1 -5.7 -4.4C-4.6 -5.6 -2.3 -5.7 -0.2 -5.6C2 -5.5 4 -5.1 4.8 -3.9Z" stroke="#ddd" fill="none" stroke-width="1"></path></g><g transform="translate(254 363)"><path d="M2.6 -2.3C3.1 -1.5 3 -0.4 2.7 0.5C2.4 1.5 2 2.4 1.1 3.2C0.2 4 -1.2 4.8 -2 4.3C-2.7 3.9 -2.7 2.3 -2.7 1C-2.6 -0.2 -2.4 -1 -1.9 -1.8C-1.5 -2.6 -0.7 -3.4 0.2 -3.6C1.1 -3.7 2.2 -3.1 2.6 -2.3Z" stroke="#ddd" fill="none" stroke-width="1"></path></g><g transform="translate(459 198)"><path d="M10 -9C11.6 -6 10.6 -1.9 9.3 1.5C8 4.9 6.5 7.6 3.7 9.8C0.9 11.9 -3.2 13.6 -5.3 12.1C-7.4 10.7 -7.6 6.2 -8.3 2.2C-9 -1.9 -10.2 -5.5 -8.9 -8.4C-7.6 -11.3 -3.8 -13.5 0.2 -13.7C4.2 -13.8 8.4 -11.9 10 -9Z" stroke="#ddd" fill="none" stroke-width="1"></path></g><g transform="translate(487 265)"><path d="M1.4 -1C1.8 -0.7 1.9 -0.1 1.7 0.4C1.6 0.9 1.2 1.3 0.7 1.6C0.1 2 -0.6 2.3 -1.1 2.1C-1.7 1.9 -2.1 1.3 -2 0.7C-2 0.1 -1.5 -0.4 -1.1 -0.7C-0.7 -1 -0.3 -1.1 0.1 -1.2C0.6 -1.3 1.1 -1.3 1.4 -1Z" stroke="#ddd" fill="none" stroke-width="1"></path></g><g transform="translate(452 27)"><path d="M6.4 -4.6C8 -3.1 8.8 -0.4 8.1 1.6C7.5 3.7 5.3 5.2 3.2 5.9C1 6.7 -1.1 6.7 -2.5 5.8C-3.8 4.9 -4.3 3 -4.8 1.1C-5.2 -0.8 -5.6 -2.8 -4.8 -4.2C-4 -5.5 -2 -6.3 0.2 -6.5C2.4 -6.7 4.8 -6.2 6.4 -4.6Z" stroke="#ddd" fill="none" stroke-width="1"></path></g><g transform="translate(300 510)"><path d="M8.2 -7C9.3 -5.3 7.7 -1.9 6.6 0.9C5.5 3.7 4.7 6 3.2 6.7C1.7 7.4 -0.5 6.6 -3.3 5.7C-6 4.8 -9.2 3.8 -10.2 1.7C-11.2 -0.5 -10 -3.8 -8 -5.7C-5.9 -7.6 -2.9 -8.1 0.3 -8.4C3.6 -8.6 7.2 -8.6 8.2 -7Z" stroke="#ddd" fill="none" stroke-width="1"></path></g><g transform="translate(879 577)"><path d="M3.2 -2.3C3.9 -1.6 4.1 -0.3 3.8 0.8C3.5 1.9 2.6 2.8 1.7 3.1C0.7 3.4 -0.3 3.1 -1.3 2.6C-2.2 2.1 -3.1 1.5 -3.2 0.8C-3.3 0 -2.7 -0.8 -2.1 -1.5C-1.4 -2.2 -0.7 -2.7 0.3 -2.9C1.2 -3.1 2.4 -3 3.2 -2.3Z" stroke="#ddd" fill="none" stroke-width="1"></path></g><g transform="translate(649 432)"><path d="M8.2 -7C10.3 -3.9 11.5 -0.5 10.5 1.7C9.4 3.8 6.1 4.7 2.8 6.6C-0.4 8.4 -3.6 11.2 -5.1 10.5C-6.5 9.8 -6.3 5.6 -6.4 2.3C-6.5 -1 -6.8 -3.3 -5.8 -6.1C-4.7 -9 -2.4 -12.3 0.3 -12.6C3 -12.9 6.1 -10.1 8.2 -7Z" stroke="#ddd" fill="none" stroke-width="1"></path></g><g transform="translate(652 148)"><path d="M4 -2.9C5.1 -1.8 5.8 -0.2 5.4 1C5 2.2 3.4 3 1.7 4C0 5 -1.9 6.3 -3.4 6C-5 5.7 -6.3 3.7 -6.4 1.9C-6.4 0.1 -5.1 -1.5 -3.8 -2.6C-2.6 -3.7 -1.3 -4.4 0.1 -4.5C1.5 -4.6 2.9 -4 4 -2.9Z" stroke="#ddd" fill="none" stroke-width="1"></path></g><g transform="translate(256 124)"><path d="M5.2 -5C6.5 -2.4 7.3 -0.3 7.3 2.4C7.3 5.2 6.5 8.5 4.2 10.1C1.9 11.8 -1.9 11.8 -4.2 10.1C-6.6 8.5 -7.5 5.2 -7.4 2.5C-7.4 -0.2 -6.4 -2.2 -5 -4.8C-3.6 -7.4 -1.8 -10.6 0.1 -10.6C1.9 -10.7 3.8 -7.6 5.2 -5Z" stroke="#ddd" fill="none" stroke-width="1"></path></g><g transform="translate(323 471)"><path d="M1.8 -1.3C2.2 -0.9 2.3 -0.2 2 0.3C1.8 0.7 1.2 0.9 0.6 1.2C0 1.5 -0.5 1.8 -1.1 1.7C-1.6 1.7 -2.2 1.1 -2.4 0.5C-2.6 -0.1 -2.3 -0.9 -1.9 -1.3C-1.4 -1.7 -0.7 -1.7 0 -1.7C0.7 -1.7 1.4 -1.7 1.8 -1.3Z" stroke="#ddd" fill="none" stroke-width="1"></path></g><g transform="translate(686 408)"><path d="M8 -6.1C9.9 -3.9 10.8 -0.6 10.1 2.3C9.5 5.3 7.3 8 5 8.3C2.7 8.5 0.3 6.4 -2.4 5.1C-5.2 3.8 -8.3 3.2 -8.7 1.9C-9 0.6 -6.7 -1.5 -4.8 -3.6C-2.9 -5.8 -1.5 -8.1 0.8 -8.7C3 -9.3 6 -8.3 8 -6.1Z" stroke="#ddd" fill="none" stroke-width="1"></path></g><g transform="translate(130 535)"><path d="M3.6 -3.2C4.4 -1.9 4.5 -0.4 4.1 0.7C3.7 1.9 2.7 2.7 1.6 3.2C0.4 3.8 -0.8 4.1 -2.2 3.7C-3.6 3.4 -5 2.4 -5.5 1C-6 -0.3 -5.5 -2.2 -4.4 -3.5C-3.3 -4.9 -1.7 -5.8 -0.1 -5.7C1.4 -5.6 2.9 -4.5 3.6 -3.2Z" stroke="#ddd" fill="none" stroke-width="1"></path></g><g transform="translate(448 278)"><path d="M10.3 -7.7C13.2 -4.7 15.2 -0.4 14.3 3.1C13.3 6.5 9.5 9.1 5.4 10.9C1.3 12.8 -3 13.9 -5 12.2C-7.1 10.5 -7 6 -8.1 1.7C-9.2 -2.7 -11.6 -6.9 -10.4 -9.6C-9.3 -12.3 -4.7 -13.5 -0.5 -13.1C3.7 -12.7 7.5 -10.8 10.3 -7.7Z" stroke="#ddd" fill="none" stroke-width="1"></path></g><g transform="translate(553 556)"><path d="M10.3 -9.3C11.8 -6.3 10.4 -2.1 9 1.2C7.5 4.5 6 7 3.9 8C1.7 9 -1.1 8.6 -3.6 7.4C-6 6.2 -8.1 4.3 -8.4 2.1C-8.7 0 -7.3 -2.4 -5.6 -5.4C-3.9 -8.4 -2 -12.2 1.2 -13.1C4.4 -14.1 8.8 -12.3 10.3 -9.3Z" stroke="#ddd" fill="none" stroke-width="1"></path></g><g transform="translate(86 342)"><path d="M4.6 -4.6C5.5 -2.5 5.6 -0.6 5.4 1.8C5.3 4.2 5.1 7.2 3.6 8.3C2 9.3 -0.9 8.6 -3.5 7.3C-6 6 -8.3 4.2 -9.5 1.4C-10.7 -1.3 -10.9 -5.1 -9.1 -7.4C-7.3 -9.7 -3.7 -10.5 -0.9 -9.8C1.8 -9.1 3.7 -6.7 4.6 -4.6Z" stroke="#ddd" fill="none" stroke-width="1"></path></g><g transform="translate(578 99)"><path d="M1.9 -1.6C2.5 -0.9 2.9 -0.1 2.8 0.7C2.7 1.5 2.1 2.3 1.4 2.6C0.7 2.8 -0.2 2.5 -0.9 2.1C-1.6 1.7 -2.3 1.2 -2.5 0.5C-2.7 -0.2 -2.6 -1.1 -2.1 -1.8C-1.6 -2.5 -0.8 -3 -0.1 -3C0.7 -2.9 1.4 -2.3 1.9 -1.6Z" stroke="#ddd" fill="none" stroke-width="1"></path></g><g transform="translate(839 165)"><path d="M1.4 -1.3C1.8 -0.6 2.1 0 2 0.6C2 1.2 1.6 1.9 1 2.1C0.5 2.3 -0.2 2.1 -1 1.9C-1.9 1.6 -2.8 1.2 -3 0.6C-3.1 0.1 -2.5 -0.7 -1.9 -1.4C-1.2 -2 -0.6 -2.6 -0.1 -2.6C0.5 -2.5 1 -1.9 1.4 -1.3Z" stroke="#ddd" fill="none" stroke-width="1"></path></g><g transform="translate(323 176)"><path d="M4.7 -3.8C5.5 -2.7 5.3 -0.8 5.1 1.6C5 4 4.8 6.9 3.1 8.6C1.3 10.3 -2.1 10.8 -4.4 9.6C-6.8 8.3 -8.2 5.2 -8.4 2.5C-8.6 -0.3 -7.6 -2.8 -6 -4.1C-4.4 -5.3 -2.2 -5.4 -0.2 -5.2C1.9 -5.1 3.8 -4.8 4.7 -3.8Z" stroke="#ddd" fill="none" stroke-width="1"></path></g><g transform="translate(385 301)"><path d="M9.2 -6.2C11.5 -4.5 12.5 -0.7 11.8 2.8C11 6.2 8.5 9.4 5.5 10.6C2.4 11.8 -1.3 11.1 -4.1 9.4C-6.9 7.7 -8.9 5.1 -9.8 2C-10.6 -1 -10.3 -4.5 -8.5 -6.1C-6.7 -7.6 -3.4 -7.2 0.1 -7.3C3.5 -7.3 7 -7.8 9.2 -6.2Z" stroke="#ddd" fill="none" stroke-width="1"></path></g><g transform="translate(507 176)"><path d="M5.5 -4C6.9 -2.6 7.7 -0.3 7.3 1.9C7 4 5.5 6.2 3.4 7.3C1.3 8.4 -1.5 8.5 -3.8 7.5C-6 6.5 -7.9 4.4 -8 2.3C-8 0.3 -6.2 -1.6 -4.6 -3.1C-3 -4.6 -1.5 -5.7 0.3 -5.9C2 -6.1 4 -5.5 5.5 -4Z" stroke="#ddd" fill="none" stroke-width="1"></path></g><g transform="translate(524 529)"><path d="M2.1 -1.6C2.6 -1.1 2.6 -0.3 2.4 0.6C2.2 1.4 1.8 2.2 1.1 2.6C0.4 3 -0.5 3.1 -1.4 2.7C-2.2 2.4 -3 1.6 -3 0.9C-3 0.1 -2.3 -0.6 -1.7 -1.1C-1.1 -1.7 -0.5 -2.1 0.2 -2.2C0.8 -2.3 1.7 -2.2 2.1 -1.6Z" stroke="#ddd" fill="none" stroke-width="1"></path></g><g transform="translate(263 238)"><path d="M8.9 -7.9C10.2 -5.3 9.3 -1.7 8.4 1.8C7.5 5.2 6.6 8.5 4.3 10.1C2 11.6 -1.7 11.5 -4.8 10C-7.9 8.5 -10.3 5.7 -11.2 2.3C-12.2 -1 -11.7 -5 -9.6 -7.7C-7.5 -10.4 -3.7 -11.9 0 -11.9C3.7 -11.9 7.5 -10.4 8.9 -7.9Z" stroke="#ddd" fill="none" stroke-width="1"></path></g><g transform="translate(826 535)"><path d="M1.6 -1.2C2.1 -0.7 2.5 0 2.3 0.5C2.2 0.9 1.4 1.2 0.8 1.4C0.2 1.6 -0.4 1.8 -0.8 1.6C-1.1 1.4 -1.4 0.9 -1.4 0.4C-1.5 -0.1 -1.3 -0.5 -1.1 -1C-0.8 -1.4 -0.4 -1.8 0.1 -1.9C0.6 -2 1.2 -1.7 1.6 -1.2Z" stroke="#ddd" fill="none" stroke-width="1"></path></g><g transform="translate(195 422)"><path d="M5.7 -4.5C7 -2.9 7.4 -0.6 7.1 1.9C6.7 4.3 5.6 6.7 3.9 7.2C2.2 7.7 0 6.2 -1.6 4.8C-3.2 3.5 -4.1 2.3 -4.8 0.6C-5.6 -1 -6.2 -3.2 -5.4 -4.7C-4.5 -6.1 -2.3 -6.8 0 -6.8C2.2 -6.8 4.4 -6 5.7 -4.5Z" stroke="#ddd" fill="none" stroke-width="1"></path></g><g transform="translate(789 293)"><path d="M1.3 -0.8C1.6 -0.6 1.8 -0.1 1.6 0.2C1.4 0.5 0.9 0.6 0.4 0.8C0 1 -0.4 1.2 -0.7 1.2C-1.1 1.1 -1.4 0.8 -1.5 0.4C-1.5 0 -1.2 -0.4 -0.9 -0.6C-0.6 -0.8 -0.3 -0.8 0.1 -0.9C0.5 -0.9 1 -1 1.3 -0.8Z" stroke="#ddd" fill="none" stroke-width="1"></path></g><g transform="translate(137 20)"><path d="M3.5 -2.6C4.8 -1.2 6.2 0.3 6 1.4C5.8 2.4 3.8 3.1 1.7 4.4C-0.3 5.7 -2.4 7.6 -4.2 7.3C-5.9 7 -7.3 4.5 -7.2 2.4C-7.1 0.3 -5.5 -1.4 -4.1 -2.9C-2.6 -4.4 -1.3 -5.7 -0.1 -5.6C1.1 -5.5 2.2 -4 3.5 -2.6Z" stroke="#ddd" fill="none" stroke-width="1"></path></g><g transform="translate(199 195)"><path d="M5.3 -3.7C7.2 -1.9 9.2 0.3 9.1 2.4C8.9 4.5 6.5 6.5 4.2 6.9C2 7.3 -0.2 6.1 -1.9 4.9C-3.6 3.7 -4.8 2.5 -5 1.3C-5.2 0 -4.4 -1.4 -3.4 -3C-2.4 -4.6 -1.2 -6.4 0.3 -6.6C1.7 -6.8 3.5 -5.5 5.3 -3.7Z" stroke="#ddd" fill="none" stroke-width="1"></path></g><g transform="translate(695 97)"><path d="M2.9 -2.8C3.4 -1.7 3.1 -0.6 2.8 0.7C2.6 1.9 2.3 3.1 1.5 3.8C0.6 4.6 -0.9 4.8 -2.2 4.3C-3.4 3.8 -4.4 2.5 -4.4 1.3C-4.4 0.2 -3.4 -0.9 -2.5 -2C-1.6 -3.1 -0.8 -4.3 0.2 -4.5C1.2 -4.7 2.5 -3.8 2.9 -2.8Z" stroke="#ddd" fill="none" stroke-width="1"></path></g><g transform="translate(572 471)"><path d="M1.3 -0.9C1.7 -0.5 2.1 0 2.1 0.6C2.1 1.2 1.7 1.9 1 2.2C0.4 2.6 -0.4 2.6 -1 2.3C-1.6 1.9 -1.9 1.2 -1.9 0.6C-1.9 0.1 -1.5 -0.4 -1.1 -0.8C-0.7 -1.2 -0.4 -1.6 0 -1.6C0.4 -1.6 0.9 -1.4 1.3 -0.9Z" stroke="#ddd" fill="none" stroke-width="1"></path></g><g transform="translate(599 29)"><path d="M6.7 -5.7C8.3 -3.4 8.8 -0.6 8.3 2.1C7.9 4.8 6.4 7.5 4.1 8.5C1.9 9.5 -1 8.9 -3.6 7.6C-6.1 6.3 -8.2 4.3 -8.5 2.1C-8.8 -0.1 -7.4 -2.4 -5.7 -4.7C-4 -7 -2 -9.2 0.3 -9.4C2.6 -9.6 5.2 -7.9 6.7 -5.7Z" stroke="#ddd" fill="none" stroke-width="1"></path></g><g transform="translate(654 231)"><path d="M4.1 -3.3C4.8 -2.4 4.4 -0.7 4 0.9C3.6 2.5 3.2 4.1 1.8 5.4C0.3 6.8 -2 7.9 -4.1 7.4C-6.2 6.8 -8.1 4.6 -8.5 2.1C-9 -0.4 -8 -3 -6.4 -4.1C-4.7 -5.2 -2.4 -4.8 -0.3 -4.6C1.7 -4.3 3.4 -4.2 4.1 -3.3Z" stroke="#ddd" fill="none" stroke-width="1"></path></g><g transform="translate(332 542)"><path d="M3.1 -2.1C3.8 -1.7 3.9 -0.4 3.6 0.7C3.2 1.9 2.5 2.8 1.7 3.1C0.8 3.4 -0.3 3.1 -0.9 2.5C-1.6 2 -1.8 1.2 -1.9 0.6C-1.9 -0.1 -1.7 -0.7 -1.4 -1.1C-1 -1.5 -0.5 -1.7 0.4 -2C1.2 -2.3 2.5 -2.6 3.1 -2.1Z" stroke="#ddd" fill="none" stroke-width="1"></path></g></g></svg>